<?xml version="1.0" encoding="UTF-8"?>
<svg width="227px" height="44px" viewBox="0 0 227 44" version="1.1" xmlns="http://www.w3.org/2000/svg" xmlns:xlink="http://www.w3.org/1999/xlink">
    <!-- Generator: Sketch 53 (72520) - https://sketchapp.com -->
    <title>amp-logo</title>
    <desc>Created with Sketch.</desc>
    <g id="amp-logo" stroke="none" stroke-width="1" fill="none" fill-rule="evenodd">
        <path d="M33.9697258,16 C34.7660924,18.858206 35.4681791,22.1225449 36,25.6323492 C35.6654494,28.4074761 34.3309882,31.293879 33.1064572,34 L0,34 L0,16 L33.9697279,16.000003 Z M7.95027244,30.1807174 L7.95027244,25.93434 L11.0080414,30.1807174 L13.8585039,30.1807174 L10.1140327,25.3727223 L13.8585039,20.5647273 L10.9562148,20.5647273 L7.95027244,24.7837087 L7.95027244,20.5647273 L5.73468561,20.5647273 L5.73468561,30.1807174 L7.95027244,30.1807174 Z M13.2864181,25.3453263 C13.2864181,26.7699246 13.7377369,27.94794 14.6403879,28.8794081 C15.5430389,29.8108762 16.6465024,30.2766033 17.9508114,30.2766033 C19.2551205,30.2766033 20.3564246,29.8108762 21.2547567,28.8794081 C22.1530888,27.94794 22.6022481,26.7699246 22.6022481,25.3453263 C22.6022481,23.9207281 22.1552483,22.7449956 21.2612351,21.8180936 C20.3672219,20.8911915 19.2659178,20.4277474 17.9572898,20.4277474 C16.6486618,20.4277474 15.5430389,20.8911915 14.6403879,21.8180936 C13.7377369,22.7449956 13.2864181,23.9207281 13.2864181,25.3453263 Z M20.3477913,25.3453263 C20.3477913,26.185474 20.12969,26.8566689 19.6934806,27.3589311 C19.2572713,27.8611933 18.6742279,28.1123206 17.9443331,28.1123206 C17.2144383,28.1123206 16.631395,27.8611933 16.1951856,27.3589311 C15.7589763,26.8566689 15.5408749,26.185474 15.5408749,25.3453263 C15.5408749,24.5051787 15.7589763,23.8339838 16.1951856,23.3317216 C16.631395,22.8294594 17.2144383,22.5783321 17.9443331,22.5783321 C18.6742279,22.5783321 19.2572713,22.8294594 19.6934806,23.3317216 C20.12969,23.8339838 20.3477913,24.5051787 20.3477913,25.3453263 Z M24.0773127,20.5647273 L24.0773127,30.1807174 L29.0526656,30.1807174 L29.0526656,28.3999784 L26.2928995,28.3999784 L26.2928995,20.5647273 L24.0773127,20.5647273 Z" id="Combined-Shape" fill="#FFFFFF" fill-rule="nonzero"></path>
        <path d="M51.3229971,22.4667473 C48.0571862,27.0773881 44.9806976,34.7617896 44.9806976,38.0834341 C44.9806976,38.8766626 45.2173506,39.9673519 45.5013341,40.7605804 C44.1760775,41.4546554 42.3301844,42 40.5316219,42 C38.7330593,42 37.5497945,41.305925 37.5497945,39.719468 C37.5497945,35.9020556 41.7622173,30.4486094 42.377515,25.3917775 C40.8156054,15.1789601 37.6917863,7.19709794 35.1832648,6.00725514 C34.7099589,5.808948 34.3786447,5.56106409 34,5.41233374 C36.0825461,3.33010883 38.1650922,2.28899637 40.2003077,2.28899637 C41.9988702,2.28899637 43.3714574,3.23095526 44.1760775,5.26360339 C45.5486647,8.58524788 46.7319296,14.0386941 47.8678638,19.789601 C53.9261797,9.52720677 54.4468163,8.8331318 55.7720729,5.808948 C56.1980482,4.86698912 56.34004,3.82587666 56.34004,2.78476421 C56.34004,2.23941959 56.2927094,1.64449819 56.1980482,1.09915357 C56.6713541,1 57.0973295,1 57.5706354,1 C60.9311075,1 62.6350089,2.28899637 62.6350089,4.22249093 C62.6350089,9.27932285 54.3994857,18.2527207 51.3229971,22.4667473 Z M55.8121218,19.6904474 C58.7466186,16.2696493 62.4384048,14.1378476 66.5561664,14.1378476 C71.7152011,14.1378476 75.217665,17.4594921 75.217665,22.9625151 C75.217665,32.2829504 68.3073984,41.7025393 59.8825528,41.7025393 C54.6761875,41.7025393 51.2210542,38.2321644 51.2210542,32.4812576 C51.2210542,27.6723096 52.8302944,23.3591294 55.8121218,19.6904474 Z M68.1654066,22.9625151 C68.1654066,20.0374849 67.4081171,17.8065296 65.1362486,17.8065296 C60.9238258,17.8065296 58.1786514,27.3252721 58.1786514,33.0266022 C58.1786514,35.9516324 59.0306021,38.0834341 61.3024706,38.0834341 C65.4675628,38.0834341 68.1654066,28.6638452 68.1654066,22.9625151 Z M97.1717787,14.286578 C98.6863577,14.3857316 100.058945,14.9310762 100.058945,16.9637243 C100.058945,18.0048368 99.8222919,19.2442563 99.4436472,20.6819831 C98.1657211,25.5405079 96.6511422,30.3990326 96.6511422,33.9189843 C96.6511422,34.91052 96.9351257,35.6045949 97.1717787,36.050786 C98.4970353,35.7533253 101.810177,31.7871826 102.330813,31.7871826 C102.520136,31.7871826 102.614797,31.9359129 102.614797,32.2333736 C102.614797,35.8029021 97.597754,41.2563482 94.1899513,41.2563482 C91.5394381,41.2563482 89.9775285,39.5211608 89.9775285,35.9516324 C89.9775285,34.6130593 90.1668509,33.4727932 90.4035039,32.1342201 C86.7590482,38.3808948 83.2092537,41.7025393 79.3754757,41.7025393 C75.8730118,41.7025393 75.2577139,39.1245466 75.2577139,36.5961306 C75.2577139,32.7291415 78.6655168,21.5743652 78.6655168,17.8561064 C78.6655168,17.0133011 78.5708556,16.0713422 78.1922108,15.3276904 C79.8961122,14.6336155 81.6000135,14.286578 82.830609,14.286578 C85.0078162,14.286578 85.5757834,15.5259976 85.5757834,17.0133011 C85.5757834,18.0048368 85.2917998,19.1451028 85.1024774,20.0374849 C83.5878984,26.9782346 82.0259889,32.6795647 82.0259889,35.1088271 C82.0259889,35.7533253 82.2153112,36.3978235 82.9252701,36.3978235 C84.2505267,36.3978235 87.1850235,32.9770254 89.7882062,28.0689238 C92.2020664,23.458283 93.4326618,19.3434099 93.4326618,16.6662636 C93.4326618,16.120919 93.3380006,15.4764208 93.1013477,14.980653 C94.3319431,14.5344619 95.9885139,14.286578 97.1717787,14.286578 Z M130.457393,37.0918984 C130.504723,35.0592503 131.167352,32.6299879 131.593327,30.4486094 C132.776592,24.8960097 133.39189,21.7230955 133.39189,21.1777509 C133.39189,20.5332527 133.155237,20.3349456 132.681931,20.3349456 C130.552054,20.3349456 123.215812,32.7787183 122.079878,39.2237001 C122.079878,39.5707376 122.127208,39.9177751 122.2692,40.3639661 C121.795894,40.7605804 120.139323,41.4050786 118.956059,41.4050786 C117.583471,41.4050786 116.542198,40.9093108 115.642917,39.9177751 C117.820124,30.2998791 119.618687,22.9625151 119.618687,21.1777509 C119.618687,20.4836759 119.334703,20.2853688 118.861397,20.2853688 C117.583471,20.3349456 115.122281,24.0036276 112.755751,27.6723096 C111.193841,30.1015719 110.199899,32.828295 107.8807,38.6783555 C107.170741,40.4631197 106.413451,41.4050786 103.999591,41.4050786 C103.052979,41.4050786 101.869715,41.2563482 100.307805,40.9588875 C104.046922,31.2914148 105.656162,22.1692866 105.656162,18.8972189 C105.656162,17.7073761 105.46684,16.56711 105.088195,15.6251511 C107.170741,14.6831923 108.827312,14.2370012 110.057907,14.2370012 C111.477825,14.2370012 112.613759,15.1293833 112.613759,16.6662636 C112.613759,18.5501814 111.9038,21.4256348 111.05185,24.8960097 C115.406264,17.8065296 119.997332,14.0882709 122.931828,14.0882709 C124.730391,14.0882709 126.197639,15.1293833 126.197639,17.3107618 C126.197639,19.8391778 125.818995,22.6154776 125.109036,24.7968561 C129.46345,17.5090689 134.101848,14.0882709 136.847023,14.0882709 C138.740247,14.0882709 140.065503,15.7243047 140.065503,17.6577993 C140.065503,23.1112455 137.083676,30.8948005 137.083676,34.216445 C137.083676,35.2079807 137.320329,35.9020556 137.556982,36.3482467 C138.882238,36.050786 142.19538,32.0846433 142.716016,32.0846433 C142.905339,32.0846433 143,32.2333736 143,32.5308343 C143,36.1003628 137.982957,41.5538089 134.575154,41.5538089 C132.019302,41.5538089 130.457393,40.165659 130.457393,37.0918984 Z" id="Youm" fill="#FFFFFF" fill-rule="nonzero"></path>
        <path d="M173,40.4155844 C173,40.6493518 172.973119,40.8441551 172.919355,41 C172.758064,41 172.516131,40.9935066 172.193548,40.9805195 C171.870966,40.9675324 171.521507,40.9545455 171.145161,40.9415584 C170.768815,40.9285714 170.399195,40.9155845 170.03629,40.9025974 C169.673385,40.8896103 169.370969,40.8831169 169.129032,40.8831169 C168.887096,40.8831169 168.571239,40.8896103 168.181452,40.9025974 C167.791665,40.9155845 167.408604,40.9285714 167.032258,40.9415584 C166.655912,40.9545455 166.293012,40.9675324 165.943548,40.9805195 C165.594084,40.9935066 165.33871,41 165.177419,41 C165.123656,40.8441551 165.096774,40.6493518 165.096774,40.4155844 C165.096774,40.2077912 165.177419,40.0909092 165.33871,40.0649351 L166.548387,39.8701299 C167.005379,39.7922074 167.274193,39.5259763 167.354839,39.0714286 C167.435484,38.6168808 167.475806,37.7922138 167.475806,36.5974026 L167.475806,29.7402597 C167.475806,29.1428542 167.422044,28.5649379 167.314516,28.0064935 C167.206989,27.4480492 166.897852,26.9220804 166.387097,26.4285714 C165.661287,25.7272692 164.653232,25.3766234 163.362903,25.3766234 C162.341393,25.3766234 161.474466,25.5389594 160.762097,25.8636364 C160.049728,26.1883133 159.451615,26.5324657 158.967742,26.8961039 C158.752687,27.0519488 158.625,27.2077914 158.584677,27.3636364 C158.544355,27.5194813 158.524194,27.7402583 158.524194,28.025974 L158.524194,36.5974026 C158.524194,37.7922138 158.564516,38.6168808 158.645161,39.0714286 C158.725807,39.5259763 158.994621,39.7922074 159.451613,39.8701299 L160.66129,40.0649351 C160.822581,40.0909092 160.903226,40.2077912 160.903226,40.4155844 C160.903226,40.6493518 160.876344,40.8441551 160.822581,41 C160.66129,41 160.419356,40.9935066 160.096774,40.9805195 C159.774192,40.9675324 159.424733,40.9545455 159.048387,40.9415584 C158.672041,40.9285714 158.302421,40.9155845 157.939516,40.9025974 C157.576611,40.8896103 157.274195,40.8831169 157.032258,40.8831169 C156.790321,40.8831169 156.474464,40.8896103 156.084677,40.9025974 C155.694891,40.9155845 155.31183,40.9285714 154.935484,40.9415584 C154.559138,40.9545455 154.196238,40.9675324 153.846774,40.9805195 C153.49731,40.9935066 153.241936,41 153.080645,41 C153.026881,40.8441551 153,40.6493518 153,40.4155844 C153,40.2077912 153.080644,40.0909092 153.241935,40.0649351 L154.451613,39.8701299 C154.908604,39.7922074 155.177419,39.5259763 155.258065,39.0714286 C155.33871,38.6168808 155.379032,37.7922138 155.379032,36.5974026 L155.379032,27.6753247 C155.379032,27.233764 155.352151,26.9415592 155.298387,26.7987013 C155.244623,26.6558434 155.110216,26.5194812 154.895161,26.3896104 L153.483871,25.6493506 C153.349462,25.5974023 153.275538,25.5519482 153.262097,25.512987 C153.248656,25.4740258 153.241935,25.4155848 153.241935,25.3376623 C153.241935,25.285714 153.248656,25.2207796 153.262097,25.1428571 C153.275538,25.0649347 153.282258,25.0000003 153.282258,24.9480519 C153.60484,24.8701295 153.981181,24.759741 154.41129,24.6168831 C154.8414,24.4740253 155.311825,24.2987023 155.822581,24.0909091 C156.413981,23.8571417 156.904568,23.6168844 157.294355,23.3701299 C157.684142,23.1233754 157.986558,23 158.201613,23 C158.30914,23 158.403225,23.0389606 158.483871,23.1168831 L158.403226,25.7272727 C158.45699,25.779221 158.564515,25.8051948 158.725806,25.8051948 C159.263444,25.4155825 159.767471,25.0649366 160.237903,24.7532468 C160.708336,24.4415569 161.198922,24.1753258 161.709677,23.9545455 C162.220433,23.7337651 162.751341,23.5649356 163.302419,23.4480519 C163.853497,23.3311682 164.478491,23.2727273 165.177419,23.2727273 C165.956993,23.2727273 166.702953,23.3961027 167.415323,23.6428571 C168.127692,23.8896116 168.752685,24.2727247 169.290323,24.7922078 C169.639787,25.1298718 169.901881,25.499998 170.076613,25.9025974 C170.251345,26.3051968 170.379032,26.7207771 170.459677,27.1493506 C170.540323,27.5779242 170.587366,27.9999979 170.600806,28.4155844 C170.614247,28.8311709 170.620968,29.2077905 170.620968,29.5454545 L170.620968,36.5974026 C170.620968,37.7922138 170.66129,38.6168808 170.741935,39.0714286 C170.822581,39.5259763 171.091396,39.7922074 171.548387,39.8701299 L172.758065,40.0649351 C172.919356,40.0909092 173,40.2077912 173,40.4155844 Z M184,27.5229358 C184,26.9113119 183.903383,26.3853233 183.710145,25.9449541 C183.516907,25.504585 183.25282,25.1376161 182.917874,24.8440367 C182.582929,24.5504572 182.209342,24.3363921 181.797101,24.2018349 C181.384861,24.0672776 180.972627,24 180.560386,24 C179.45249,24 178.492758,24.3363881 177.681159,25.0091743 C176.869561,25.6819606 176.30918,26.5932664 176,27.7431193 C176.025765,27.865444 176.103059,27.9510701 176.231884,28 L183.768116,27.8899083 C183.819646,27.8409783 183.864734,27.785933 183.903382,27.7247706 C183.942029,27.6636083 183.974235,27.5963306 184,27.5229358 Z M188,29.1446809 C187.973333,29.3333343 187.94,29.4680847 187.9,29.5489362 C187.86,29.6297876 187.786667,29.7241129 187.68,29.8319149 L176.12,29.8319149 C175.986666,29.9127664 175.906667,30.0205667 175.88,30.1553191 C175.853333,30.2900716 175.826667,30.4719847 175.8,30.7010638 C175.773333,30.930143 175.76,31.1390061 175.76,31.3276596 C175.76,32.3517782 175.926665,33.3624064 176.26,34.3595745 C176.593335,35.3567426 177.066664,36.2460954 177.68,37.0276596 C178.293336,37.8092238 179.039996,38.4358132 179.92,38.9074468 C180.800004,39.3790804 181.786661,39.6148936 182.88,39.6148936 C183.680004,39.6148936 184.473329,39.3992929 185.26,38.9680851 C186.046671,38.5368773 186.666664,38.0248257 187.12,37.4319149 C187.280001,37.4588654 187.426666,37.5262406 187.56,37.6340426 C187.746668,37.768795 187.846667,37.9035454 187.86,38.0382979 C187.873333,38.1730503 187.786668,38.375176 187.6,38.6446809 C186.799996,39.7227004 185.846672,40.5514155 184.74,41.1308511 C183.633328,41.7102866 182.400007,42 181.04,42 C179.733327,42 178.580005,41.7372367 177.58,41.2117021 C176.579995,40.6861676 175.740003,39.9854654 175.06,39.1095745 C174.379997,38.2336836 173.866668,37.2230554 173.52,36.0776596 C173.173332,34.9322638 173,33.7531976 173,32.5404255 C173,31.1659506 173.226664,29.8925591 173.68,28.7202128 C174.133336,27.5478665 174.739996,26.5372383 175.5,25.6882979 C176.260004,24.8393575 177.126662,24.1790804 178.1,23.7074468 C179.073338,23.2358132 180.079995,23 181.12,23 C183.04001,23 184.619994,23.5053141 185.86,24.5159574 C187.100006,25.5266008 187.813332,27.0694932 188,29.1446809 Z M215,24.5882353 C215,24.7973867 214.919333,24.9150325 214.757997,24.9411765 L214.354659,25.0196078 C214.166434,25.0718957 213.991656,25.1503263 213.83032,25.254902 C213.668984,25.3594776 213.494206,25.5359465 213.305981,25.7843137 C213.117755,26.032681 212.916088,26.3856186 212.700974,26.8431373 C212.485859,27.3006559 212.21697,27.8823494 211.894298,28.5882353 L207.820584,38.0392157 C207.524801,38.6928137 207.269357,39.3660096 207.054242,40.0588235 C206.839127,40.7516375 206.664349,41.3464027 206.529903,41.8431373 C206.341677,41.9477129 206.099677,42 205.803894,42 C205.508112,42 205.252667,41.9477129 205.037552,41.8431373 C204.903105,41.3464027 204.721605,40.7581733 204.493046,40.0784314 C204.264487,39.3986894 204.015764,38.7189576 203.746871,38.0392157 L200.479833,29.8039216 L200.358832,29.8039216 L196.930459,38.0392157 C196.634676,38.7189576 196.379231,39.3986894 196.164117,40.0784314 C195.949002,40.7581733 195.774224,41.3464027 195.639777,41.8431373 C195.451552,41.9477129 195.209552,42 194.913769,42 C194.617986,42 194.362542,41.9477129 194.147427,41.8431373 C194.01298,41.3464027 193.83148,40.7581733 193.602921,40.0784314 C193.374361,39.3986894 193.125639,38.7189576 192.856745,38.0392157 L189.105702,28.5882353 C188.567916,27.2810392 188.137693,26.3790875 187.815021,25.8823529 C187.492349,25.3856184 187.115904,25.0980396 186.685675,25.0196078 L186.242003,24.9411765 C186.080667,24.9150325 186,24.7973867 186,24.5882353 C186,24.35294 186.026889,24.1568635 186.080668,24 C186.242004,24 186.484004,24.0065359 186.806676,24.0196078 C187.129348,24.0326798 187.472182,24.0457516 187.835188,24.0588235 L188.9242,24.0980392 C189.287206,24.1111112 189.589707,24.1176471 189.831711,24.1176471 C190.073715,24.1176471 190.38966,24.1111112 190.779555,24.0980392 C191.16945,24.0849673 191.552617,24.0718955 191.929068,24.0588235 C192.305519,24.0457516 192.668519,24.0326798 193.018081,24.0196078 C193.367642,24.0065359 193.623087,24 193.784423,24 C193.838201,24.1568635 193.86509,24.35294 193.86509,24.5882353 C193.86509,24.7973867 193.784424,24.9150325 193.623088,24.9411765 L192.413074,25.1372549 C192.17107,25.1895427 191.989569,25.2679733 191.868567,25.372549 C191.747565,25.4771247 191.693788,25.6470576 191.707232,25.8823529 C191.720677,26.1176482 191.794621,26.4444424 191.929068,26.8627451 C192.063515,27.2810478 192.251737,27.8169902 192.493741,28.4705882 L195.801113,37.254902 L198.866481,30.0392157 C199.054707,29.5686251 199.202596,29.183008 199.310153,28.8823529 C199.41771,28.5816978 199.491655,28.3071908 199.531989,28.0588235 C199.572323,27.8104563 199.572323,27.5817004 199.531989,27.372549 C199.491655,27.1633976 199.41771,26.9281059 199.310153,26.6666667 C199.068149,26.0130686 198.812704,25.5882363 198.543811,25.3921569 C198.274918,25.1960775 197.992584,25.0718957 197.696801,25.0196078 L197.132128,24.9411765 C196.970792,24.9150325 196.890125,24.7973867 196.890125,24.5882353 C196.890125,24.35294 196.917014,24.1568635 196.970793,24 C197.132129,24 197.374129,24.0065359 197.696801,24.0196078 C198.019473,24.0326798 198.362307,24.0457516 198.725313,24.0588235 L199.814325,24.0980392 C200.177331,24.1111112 200.479832,24.1176471 200.721836,24.1176471 C200.96384,24.1176471 201.279785,24.1111112 201.66968,24.0980392 C202.059575,24.0849673 202.442743,24.0718955 202.819193,24.0588235 C203.195644,24.0457516 203.558645,24.0326798 203.908206,24.0196078 C204.257767,24.0065359 204.513212,24 204.674548,24 C204.728327,24.1568635 204.755216,24.35294 204.755216,24.5882353 C204.755216,24.7973867 204.674549,24.9150325 204.513213,24.9411765 L203.303199,25.1372549 C203.061195,25.1895427 202.879695,25.2679733 202.758693,25.372549 C202.637691,25.4771247 202.583913,25.6470576 202.597357,25.8823529 C202.610802,26.1176482 202.684747,26.4444424 202.819193,26.8627451 C202.95364,27.2810478 203.141862,27.8169902 203.383866,28.4705882 L206.691238,37.254902 L209.756606,30.0392157 C209.971721,29.5686251 210.200277,28.9803957 210.442281,28.2745098 C210.684285,27.5686239 210.805285,26.9673227 210.805285,26.4705882 C210.805285,25.7124145 210.388507,25.241831 209.554937,25.0588235 L208.990264,24.9411765 C208.828928,24.9150325 208.748261,24.7973867 208.748261,24.5882353 C208.748261,24.35294 208.77515,24.1568635 208.828929,24 C209.286048,24.0522878 209.80366,24.0849673 210.38178,24.0980392 C210.959901,24.1111112 211.490957,24.1176471 211.974965,24.1176471 C212.405195,24.1176471 212.889195,24.1045753 213.426982,24.0784314 C213.964769,24.0522875 214.462214,24.0261439 214.919332,24 C214.973111,24.1568635 215,24.35294 215,24.5882353 Z M225,36.2191489 C225,37.1624161 224.830875,37.9911312 224.49262,38.7053191 C224.154365,39.4195071 223.694345,40.0191465 223.112546,40.5042553 C222.530747,40.9893641 221.847482,41.3599278 221.062731,41.6159574 C220.277979,41.8719871 219.439119,42 218.546125,42 C218.221401,42 217.862856,41.9797874 217.47048,41.9393617 C217.078104,41.898936 216.678969,41.8315608 216.273063,41.737234 C215.867157,41.6429073 215.474787,41.535107 215.095941,41.4138298 C214.717095,41.2925526 214.392375,41.1510646 214.121771,40.9893617 C214.121771,40.7468073 214.115006,40.4301438 214.101476,40.0393617 C214.087946,39.6485796 214.074416,39.2510659 214.060886,38.8468085 C214.047355,38.4425512 214.033825,38.0585125 214.020295,37.6946809 C214.006765,37.3308492 214,37.0680859 214,36.906383 C214.054121,36.8794325 214.108241,36.8592199 214.162362,36.8457447 C214.216482,36.8322694 214.311192,36.8255319 214.446494,36.8255319 C214.662978,36.8255319 214.798278,36.9333323 214.852399,37.1489362 C215.068882,38.1191538 215.474782,38.9546064 216.070111,39.6553191 C216.66544,40.3560319 217.53136,40.706383 218.667897,40.706383 C219.750313,40.706383 220.595938,40.4638322 221.204797,39.9787234 C221.813656,39.4936146 222.118081,38.7659623 222.118081,37.7957447 C222.118081,37.1489329 221.928661,36.5829811 221.549815,36.0978723 C221.17097,35.6127635 220.69742,35.1680871 220.129151,34.7638298 C219.560883,34.3595724 218.945268,33.9687962 218.282288,33.5914894 C217.619308,33.2141825 217.003693,32.7762436 216.435424,32.2776596 C215.867156,31.7790755 215.393606,31.2063862 215.01476,30.5595745 C214.635914,29.9127627 214.446494,29.1177352 214.446494,28.1744681 C214.446494,27.5276563 214.575029,26.8943293 214.832103,26.2744681 C215.089177,25.6546068 215.474782,25.1021301 215.98893,24.6170213 C216.503078,24.1319125 217.118693,23.7411362 217.835793,23.4446809 C218.552894,23.1482255 219.384989,23 220.332103,23 C221.089795,23 221.820415,23.0875878 222.523985,23.262766 C223.227556,23.4379441 223.822876,23.6737574 224.309963,23.9702128 C224.309963,24.4822721 224.323493,25.0684364 224.350554,25.7287234 C224.377614,26.3890104 224.391144,26.8943245 224.391144,27.2446809 C224.337023,27.2716313 224.282903,27.2918439 224.228782,27.3053191 C224.174661,27.3187944 224.079951,27.3255319 223.944649,27.3255319 C223.674045,27.3255319 223.525215,27.2446817 223.498155,27.0829787 C223.227551,26.0588601 222.801356,25.3379454 222.219557,24.9202128 C221.637758,24.5024802 220.913903,24.293617 220.04797,24.293617 C219.073796,24.293617 218.343176,24.5496428 217.856089,25.0617021 C217.369001,25.5737614 217.125461,26.1397132 217.125461,26.7595745 C217.125461,27.4333367 217.321646,28.0195011 217.714022,28.5180851 C218.106398,29.0166692 218.593478,29.4748206 219.175277,29.8925532 C219.757075,30.3102858 220.38622,30.7212746 221.062731,31.1255319 C221.739241,31.5297893 222.368386,31.9677281 222.950185,32.4393617 C223.531983,32.9109953 224.019063,33.449997 224.411439,34.056383 C224.803815,34.662769 225,35.3836838 225,36.2191489 Z" id="news" fill="#FFFFFF"></path>
    </g>
</svg>