<?xml version="1.0" encoding="UTF-8"?>
<svg width="270px" height="90px" viewBox="0 0 270 90" version="1.1" xmlns="http://www.w3.org/2000/svg" xmlns:xlink="http://www.w3.org/1999/xlink">
    <!-- Generator: Sketch 48.2 (47327) - http://www.bohemiancoding.com/sketch -->
    <title>logo</title>
    <desc>Created with Sketch.</desc>
    <defs></defs>
    <g id="Page-1" stroke="none" stroke-width="1" fill="none" fill-rule="evenodd">
        <g id="logo">
            <g id="Group-2" transform="translate(19.000000, 19.000000)">
                <path d="M21.9045223,25.2082075 L16.147,25.2082075 L16.147,0.29261404 L21.9045223,0.29261404 L21.9045223,14.2655482 L27.729384,6.42050324 L35.4734198,6.42050324 L27.4263565,16.0163737 L35.4734198,25.2082075 L27.8303931,25.2082075 L21.9045223,17.6998597 L21.9045223,25.2082075 Z M46.5574548,15.8143554 C46.5574548,14.2879871 46.1646453,13.1263933 45.3790145,12.3295393 C44.5933838,11.5326852 43.6618641,11.1342642 42.5844277,11.1342642 C41.5069912,11.1342642 40.5810832,11.5326852 39.8066757,12.3295393 C39.0322683,13.1263933 38.6450703,14.2879871 38.6450703,15.8143554 C38.6450703,17.3407237 39.0434914,18.507929 39.8403454,19.3160063 C40.6371995,20.1240837 41.5743307,20.5281163 42.6517671,20.5281163 C43.7292036,20.5281163 44.6495001,20.1240837 45.4126842,19.3160063 C46.1758684,18.507929 46.5574548,17.3407237 46.5574548,15.8143554 Z M32.7865389,15.7806856 C32.7865389,12.8850752 33.7292817,10.5674992 35.6147955,8.82788829 C37.5003093,7.08827734 39.8347199,6.21848492 42.6180974,6.21848492 C45.4014749,6.21848492 47.730274,7.08827734 49.6045645,8.82788829 C51.478855,10.5674992 52.4159862,12.8850752 52.4159862,15.7806856 C52.4159862,18.6762961 51.4844666,21.0107068 49.6213994,22.7839876 C47.7583321,24.5572684 45.4351446,25.4438955 42.6517671,25.4438955 C39.8683896,25.4438955 37.5283674,24.5572684 35.6316303,22.7839876 C33.7348932,21.0107068 32.7865389,18.6762961 32.7865389,15.7806856 Z M54.1196555,25.2082075 L54.1196555,0.29261404 L59.8771778,0.29261404 L59.8771778,25.2082075 L54.1196555,25.2082075 Z M69.8434151,24.8378406 L62.5370857,6.42050324 L69.0690116,6.42050324 L73.2440569,18.7099514 L77.823139,6.42050324 L83.850019,6.42050324 L71.8635984,34.1643533 L65.8367184,34.1643533 L69.8434151,24.8378406 Z M95.934054,15.8143554 C95.934054,14.2879871 95.5412445,13.1263933 94.7556138,12.3295393 C93.969983,11.5326852 93.0384634,11.1342642 91.9610269,11.1342642 C90.8835905,11.1342642 89.9576824,11.5326852 89.183275,12.3295393 C88.4088675,13.1263933 88.0216696,14.2879871 88.0216696,15.8143554 C88.0216696,17.3407237 88.4200906,18.507929 89.2169447,19.3160063 C90.0137987,20.1240837 90.9509299,20.5281163 92.0283664,20.5281163 C93.1058028,20.5281163 94.0260993,20.1240837 94.7892835,19.3160063 C95.5524676,18.507929 95.934054,17.3407237 95.934054,15.8143554 Z M82.1631381,15.7806856 C82.1631381,12.8850752 83.1058809,10.5674992 84.9913947,8.82788829 C86.8769085,7.08827734 89.2113191,6.21848492 91.9946966,6.21848492 C94.7780742,6.21848492 97.1068732,7.08827734 98.9811637,8.82788829 C100.855454,10.5674992 101.792585,12.8850752 101.792585,15.7806856 C101.792585,18.6762961 100.861066,21.0107068 98.9979986,22.7839876 C97.1349314,24.5572684 94.8117439,25.4438955 92.0283664,25.4438955 C89.2449889,25.4438955 86.9049667,24.5572684 85.0082296,22.7839876 C83.1114925,21.0107068 82.1631381,18.6762961 82.1631381,15.7806856 Z M116.257079,6.42050324 L122.014601,6.42050324 L122.014601,25.2082075 L116.257079,25.2082075 L116.257079,22.4472904 C115.06741,24.4225906 113.170701,25.4102258 110.566896,25.4102258 C108.412023,25.4102258 106.666827,24.6919456 105.331255,23.2553637 C103.995682,21.8187817 103.327906,19.8659575 103.327906,17.3968323 L103.327906,6.42050324 L109.051759,6.42050324 L109.051759,16.6224287 C109.051759,17.8345447 109.371618,18.7716759 110.011346,19.4338504 C110.651074,20.0960249 111.532089,20.4271071 112.654419,20.4271071 C113.776748,20.4271071 114.657764,20.0960249 115.297492,19.4338504 C115.93722,18.7716759 116.257079,17.8345447 116.257079,16.6224287 L116.257079,6.42050324 Z M129.822582,6.42050324 L129.822582,9.18142036 C131.012251,7.20612019 132.90896,6.21848492 135.512764,6.21848492 C136.904453,6.21848492 138.144609,6.5327325 139.233269,7.1612371 C140.321928,7.7897417 141.169275,8.68759195 141.775333,9.85481477 C142.471177,8.75493172 143.374639,7.87391617 144.485745,7.21174168 C145.596851,6.54956719 146.837007,6.21848492 148.206249,6.21848492 C150.495802,6.21848492 152.313948,6.92554198 153.660744,8.33967733 C155.00754,9.75381268 155.680927,11.7178601 155.680927,14.2318785 L155.680927,25.2082075 L149.957075,25.2082075 L149.957075,15.0062821 C149.957075,13.7941661 149.637216,12.8570349 148.997488,12.1948604 C148.35776,11.5326859 147.476744,11.2016036 146.354415,11.2016036 C145.232085,11.2016036 144.351069,11.5326859 143.711341,12.1948604 C143.071614,12.8570349 142.751754,13.7941661 142.751754,15.0062821 L142.751754,25.2082075 L137.027902,25.2082075 L137.027902,15.0062821 C137.027902,13.7941661 136.708043,12.8570349 136.068315,12.1948604 C135.428587,11.5326859 134.547571,11.2016036 133.425242,11.2016036 C132.302912,11.2016036 131.421897,11.5326859 130.782169,12.1948604 C130.142441,12.8570349 129.822582,13.7941661 129.822582,15.0062821 L129.822582,25.2082075 L124.065059,25.2082075 L124.065059,6.42050324 L129.822582,6.42050324 Z M162.919917,6.82453989 L162.919917,9.82114505 C164.15448,7.59893236 166.185866,6.48784268 169.014137,6.48784268 C171.056777,6.48784268 172.762692,7.1556188 174.131934,8.49119108 C175.501176,9.82676335 176.185787,11.7515298 176.185787,14.2655482 L176.185787,25.2082075 L173.862577,25.2082075 L173.862577,14.7032546 C173.862577,12.6830612 173.37437,11.1454927 172.397944,10.0905028 C171.421517,9.03551296 170.085965,8.50802594 168.391247,8.50802594 C166.696529,8.50802594 165.360977,9.03551296 164.38455,10.0905028 C163.408123,11.1454927 162.919917,12.6830612 162.919917,14.7032546 L162.919917,25.2082075 L160.563037,25.2082075 L160.563037,6.82453989 L162.919917,6.82453989 Z M185.744593,25.5449047 C183.118342,25.5449047 180.985947,24.6695007 179.347346,22.9186665 C177.708745,21.1678322 176.889457,18.8614794 176.889457,15.9995388 C176.889457,13.1375983 177.72558,10.836857 179.397851,9.09724605 C181.070122,7.35763511 183.236186,6.48784268 185.896107,6.48784268 C188.556028,6.48784268 190.671588,7.30713103 192.242849,8.94573231 C193.814111,10.5843336 194.59973,12.6157198 194.59973,15.0399518 C194.59973,15.690903 194.554837,16.2969519 194.465051,16.8581167 L179.313676,16.8581167 C179.403463,18.9680964 180.043181,20.6291194 181.232851,21.8412354 C182.42252,23.0533514 183.926419,23.6594003 185.744593,23.6594003 C187.158729,23.6594003 188.365215,23.3339296 189.364088,22.6829784 C190.362962,22.0320272 191.053184,21.1790695 191.434776,20.1240796 L193.960005,20.1240796 C193.353947,21.6953411 192.366312,22.9916124 190.99707,24.0129324 C189.627827,25.0342524 187.877019,25.5449047 185.744593,25.5449047 Z M192.17551,15.0062821 C192.17551,12.9860887 191.563849,11.3755698 190.34051,10.1746771 C189.117171,8.97378441 187.602048,8.37334705 185.795098,8.37334705 C183.988147,8.37334705 182.484248,8.96256128 181.283355,10.1410074 C180.082462,11.3194535 179.425909,12.9411955 179.313676,15.0062821 L192.17551,15.0062821 Z M216.616332,6.82453989 L219.107892,6.82453989 L213.24936,25.2082075 L210.85881,25.2082075 L206.279728,9.72013589 L201.700646,25.2082075 L199.310096,25.2082075 L193.384225,6.82453989 L195.875784,6.82453989 L200.488536,22.6829784 L205.235967,6.82453989 L207.592847,6.82453989 L212.03725,22.6493087 L216.616332,6.82453989 Z M218.599451,11.9086677 C218.599451,10.3822994 219.227946,9.09725127 220.484955,8.05348471 C221.741965,7.00971814 223.346872,6.48784268 225.299726,6.48784268 C227.252579,6.48784268 228.773313,6.99849501 229.861973,8.01981498 C230.950632,9.04113496 231.55107,10.4496375 231.663303,12.245365 L229.239083,12.245365 C229.19419,11.1230353 228.812603,10.1971272 228.094312,9.46761298 C227.376021,8.73809872 226.377163,8.37334705 225.097707,8.37334705 C223.818251,8.37334705 222.813781,8.68759464 222.084267,9.31609924 C221.354753,9.94460384 220.990001,10.702165 220.990001,11.5888054 C220.990001,12.4754458 221.259356,13.1768913 221.798075,13.693163 C222.336793,14.2094346 223.015792,14.5573516 223.835093,14.7369243 C224.654393,14.916497 225.54102,15.1297365 226.495001,15.376649 C227.448981,15.6235615 228.335608,15.887305 229.154909,16.1678874 C229.974209,16.4484699 230.653208,16.9535106 231.191927,17.6830249 C231.730645,18.4125391 232,19.3496703 232,20.4944466 C232,21.9759217 231.382728,23.1880195 230.148165,24.1307764 C228.913603,25.0735333 227.291861,25.5449047 225.282891,25.5449047 C223.273921,25.5449047 221.685848,25.0286408 220.518625,23.9960975 C219.351402,22.9635543 218.711684,21.5606633 218.599451,19.7873824 L221.023671,19.7873824 C221.068564,20.9321587 221.472597,21.8636783 222.235781,22.5819693 C222.998965,23.3002602 224.048328,23.6594003 225.3839,23.6594003 C226.719472,23.6594003 227.757611,23.3732106 228.498349,22.8008225 C229.239087,22.2284343 229.60945,21.4933195 229.60945,20.5954557 C229.60945,19.697592 229.340095,18.990535 228.801377,18.4742633 C228.262658,17.9579917 227.583659,17.6044632 226.764358,17.4136671 C225.945058,17.2228711 225.058431,17.0040201 224.10445,16.7571076 C223.15047,16.510195 222.263843,16.2520631 221.444543,15.982704 C220.625242,15.7133449 219.946243,15.2307504 219.407524,14.534906 C218.868806,13.8390616 218.599451,12.9636576 218.599451,11.9086677 Z" id="kolyoumnews" fill="#111111"></path>
                <path d="M22.9890273,39.3062871 L24.3707592,39.3062871 L24.3707592,49.828707 L22.9890273,49.828707 L17.4317319,41.4775801 L17.4317319,49.828707 L16.05,49.828707 L16.05,39.3062871 L17.4317319,39.3062871 L22.9890273,47.657414 L22.9890273,39.3062871 Z M32.2208185,39.3062871 L32.2208185,40.3995255 L28.0300712,40.3995255 L28.0300712,43.9829181 L31.7653025,43.9829181 L31.7653025,45.0609727 L28.0300712,45.0609727 L28.0300712,48.7354686 L32.2208185,48.7354686 L32.2208185,49.828707 L26.6483393,49.828707 L26.6483393,39.3062871 L32.2208185,39.3062871 Z M46.2355279,39.3062871 L47.6931791,39.3062871 L44.504567,49.828707 L42.9558126,49.828707 L40.5871293,41.3257414 L38.0514235,49.828707 L36.5178529,49.8438909 L33.5418149,39.3062871 L34.9994662,39.3062871 L37.3377817,48.2495848 L39.8886714,39.3062871 L41.4070581,39.3062871 L43.7605575,48.2192171 L46.2355279,39.3062871 Z M50.3199881,42.1153025 C50.3199881,42.4999624 50.4262741,42.8188204 50.6388493,43.0718861 C50.8514246,43.3249518 51.1247314,43.5122177 51.4587782,43.6336892 C51.7928249,43.7551607 52.1648259,43.8614468 52.5747924,43.9525504 C52.9847589,44.0436541 53.3947192,44.1474095 53.8046856,44.2638197 C54.2146521,44.3802299 54.5866531,44.5295365 54.9206999,44.7117438 C55.2547466,44.8939511 55.5280535,45.167258 55.7406287,45.5316726 C55.9532039,45.8960872 56.0594899,46.3465375 56.0594899,46.8830368 C56.0594899,47.7029697 55.7456931,48.4166043 55.1180902,49.023962 C54.4904872,49.6313198 53.6427297,49.9349941 52.5747924,49.9349941 C51.5068551,49.9349941 50.6388527,49.689524 49.9707592,49.1985765 C49.3026657,48.707629 48.968624,48.0420762 48.968624,47.201898 L50.4414591,47.201898 C50.4819496,47.6776615 50.671746,48.0623157 51.0108541,48.3558719 C51.3499622,48.6494281 51.8535554,48.796204 52.5216489,48.796204 C53.1897424,48.796204 53.7211724,48.6241219 54.1159549,48.2799526 C54.5107374,47.9357832 54.7081257,47.5334147 54.7081257,47.0728351 C54.7081257,46.6122555 54.6018397,46.2579688 54.3892645,46.0099644 C54.1766893,45.76196 53.9033825,45.5772248 53.5693357,45.4557533 C53.235289,45.3342817 52.8632879,45.2305263 52.4533215,45.144484 C52.043355,45.0584416 51.6333947,44.9546863 51.2234282,44.8332147 C50.8134618,44.7117432 50.4414607,44.5573754 50.107414,44.3701068 C49.7733673,44.1828381 49.5000604,43.90447 49.2874852,43.5349941 C49.07491,43.1655181 48.968624,42.707476 48.968624,42.1608541 C48.968624,41.2700628 49.2849514,40.5538975 49.9176157,40.0123369 C50.55028,39.4707763 51.3752618,39.2 52.392586,39.2 C53.4099102,39.2 54.2197083,39.4353476 54.8220047,39.9060498 C55.4243012,40.3767521 55.770996,41.0271212 55.8620996,41.8571767 L54.3285291,41.8571767 C54.2880385,41.442149 54.0931809,41.0878623 53.7439502,40.794306 C53.3947195,40.5007498 52.9240243,40.3539739 52.3318505,40.3539739 C51.7396768,40.3539739 51.2563285,40.5032804 50.8817912,40.801898 C50.507254,41.1005155 50.3199881,41.5383127 50.3199881,42.1153025 Z M64.2360024,40.1717675 C64.858544,40.7487573 65.1698102,41.4876981 65.1698102,42.3886121 C65.1698102,43.2895261 64.8686665,44.0309975 64.2663701,44.6130486 C63.6640737,45.1950998 62.7505202,45.486121 61.5256821,45.486121 L59.4910439,45.486121 L59.4910439,49.828707 L58.109312,49.828707 L58.109312,39.3062871 L61.5256821,39.3062871 C62.7100296,39.3062871 63.6134607,39.5947777 64.2360024,40.1717675 Z M59.4910439,44.3928826 L61.5256821,44.3928826 C62.2848792,44.3928826 62.8492073,44.2182698 63.2186833,43.8690391 C63.5881592,43.5198085 63.7728944,43.0313989 63.7728944,42.403796 C63.7728944,41.0777316 63.0238311,40.4147094 61.5256821,40.4147094 L59.4910439,40.4147094 L59.4910439,44.3928826 Z M74.1434757,49.828707 L73.3235469,47.5207592 L68.6469158,47.5207592 L67.826987,49.828707 L66.4148873,49.828707 L70.2412218,39.3062871 L71.7596085,39.3062871 L75.5707592,49.828707 L74.1434757,49.828707 Z M69.0416963,46.4275208 L72.9287663,46.4275208 L70.9852313,40.9916963 L69.0416963,46.4275208 Z M83.5043298,40.1717675 C84.1268714,40.7487573 84.4381376,41.4876981 84.4381376,42.3886121 C84.4381376,43.2895261 84.1369939,44.0309975 83.5346975,44.6130486 C82.9324011,45.1950998 82.0188476,45.486121 80.7940095,45.486121 L78.7593713,45.486121 L78.7593713,49.828707 L77.3776394,49.828707 L77.3776394,39.3062871 L80.7940095,39.3062871 C81.978357,39.3062871 82.8817881,39.5947777 83.5043298,40.1717675 Z M78.7593713,44.3928826 L80.7940095,44.3928826 C81.5532066,44.3928826 82.1175347,44.2182698 82.4870107,43.8690391 C82.8564866,43.5198085 83.0412218,43.0313989 83.0412218,42.403796 C83.0412218,41.0777316 82.2921585,40.4147094 80.7940095,40.4147094 L78.7593713,40.4147094 L78.7593713,44.3928826 Z M91.7263938,39.3062871 L91.7263938,40.3995255 L87.5356465,40.3995255 L87.5356465,43.9829181 L91.2708778,43.9829181 L91.2708778,45.0609727 L87.5356465,45.0609727 L87.5356465,48.7354686 L91.7263938,48.7354686 L91.7263938,49.828707 L86.1539146,49.828707 L86.1539146,39.3062871 L91.7263938,39.3062871 Z M95.2034994,45.486121 L95.2034994,49.828707 L93.8217675,49.828707 L93.8217675,39.3062871 L97.2381376,39.3062871 C98.4224852,39.3062871 99.3259162,39.5947777 99.9484579,40.1717675 C100.571,40.7487573 100.882266,41.4548001 100.882266,42.289917 C100.882266,43.1250338 100.65451,43.8209541 100.198992,44.3776987 C99.7434734,44.9344433 99.0602062,45.2836687 98.1491696,45.4253855 L101.049288,49.828707 L99.3183274,49.828707 L96.5548636,45.486121 L95.2034994,45.486121 Z M95.2034994,40.4147094 L95.2034994,44.3928826 L97.2381376,44.3928826 C97.9973348,44.3928826 98.5616628,44.2182698 98.9311388,43.8690391 C99.3006147,43.5198085 99.4853499,43.0313989 99.4853499,42.403796 C99.4853499,41.0777316 98.7362867,40.4147094 97.2381376,40.4147094 L95.2034994,40.4147094 Z M102.643594,48.8113879 L104.055694,48.8113879 C104.561825,50.9371399 104.106314,52 102.689146,52 L102.689146,51.3319098 C102.942212,51.3319098 103.126947,51.271175 103.243357,51.1497034 C103.359767,51.0282319 103.417972,50.8359048 103.417972,50.5727165 L103.417972,50.2234875 L102.643594,50.2234875 L102.643594,48.8113879 Z M121.304567,39.3062871 L121.304567,49.828707 L119.907651,49.828707 L119.907651,42.1608541 L116.384994,49.828707 L115.489146,49.828707 L111.951305,42.1608541 L111.951305,49.828707 L110.569573,49.828707 L110.569573,39.3062871 L111.981673,39.3062871 L115.944662,47.9307236 L119.892467,39.3062871 L121.304567,39.3062871 Z M130.840036,49.828707 L130.020107,47.5207592 L125.343476,47.5207592 L124.523547,49.828707 L123.111447,49.828707 L126.937782,39.3062871 L128.456168,39.3062871 L132.267319,49.828707 L130.840036,49.828707 Z M125.738256,46.4275208 L129.625326,46.4275208 L127.681791,40.9916963 L125.738256,46.4275208 Z M135.076335,48.4014235 C134.043826,47.3891606 133.52758,46.1061367 133.52758,44.5523132 C133.52758,42.9984897 134.043826,41.7179963 135.076335,40.7107948 C136.108843,39.7035932 137.379213,39.2 138.887485,39.2 C139.980729,39.2 140.955017,39.4581232 141.81038,39.9743772 C142.665742,40.4906313 143.295866,41.2346333 143.700771,42.2064057 L142.030546,42.2064057 C141.402943,41.0220581 140.355266,40.4298932 138.887485,40.4298932 C137.743628,40.4298932 136.799707,40.8069555 136.055694,41.5610913 C135.311681,42.3152272 134.93968,43.3148218 134.93968,44.5599051 C134.93968,45.8049884 135.311681,46.8071136 136.055694,47.5663108 C136.799707,48.3255079 137.725914,48.7051008 138.834342,48.7051008 C139.942769,48.7051008 140.833547,48.391304 141.506702,47.7637011 C142.179857,47.1360981 142.572103,46.28581 142.683452,45.2128114 L138.340866,45.2128114 L138.340866,44.119573 L144.141103,44.119573 L144.141103,45.2128114 C143.999386,46.5692436 143.437589,47.6928386 142.455694,48.5836299 C141.473799,49.4744212 140.256571,49.9198102 138.803974,49.9198102 C137.351377,49.9198102 136.108843,49.4136864 135.076335,48.4014235 Z M153.129953,49.828707 L152.310024,47.5207592 L147.633393,47.5207592 L146.813464,49.828707 L145.401364,49.828707 L149.227699,39.3062871 L150.746085,39.3062871 L154.557236,49.828707 L153.129953,49.828707 Z M148.028173,46.4275208 L151.915243,46.4275208 L149.971708,40.9916963 L148.028173,46.4275208 Z M162.695789,39.3062871 L162.695789,40.4147094 L157.578826,48.7354686 L162.695789,48.7354686 L162.695789,49.828707 L155.98452,49.828707 L155.98452,48.7354686 L161.116667,40.4147094 L155.98452,40.4147094 L155.98452,39.3062871 L162.695789,39.3062871 Z M164.593772,49.828707 L164.593772,39.3062871 L165.975504,39.3062871 L165.975504,49.828707 L164.593772,49.828707 Z M175.192112,39.3062871 L176.573843,39.3062871 L176.573843,49.828707 L175.192112,49.828707 L169.634816,41.4775801 L169.634816,49.828707 L168.253084,49.828707 L168.253084,39.3062871 L169.634816,39.3062871 L175.192112,47.657414 L175.192112,39.3062871 Z M184.423903,39.3062871 L184.423903,40.3995255 L180.233155,40.3995255 L180.233155,43.9829181 L183.968387,43.9829181 L183.968387,45.0609727 L180.233155,45.0609727 L180.233155,48.7354686 L184.423903,48.7354686 L184.423903,49.828707 L178.851423,49.828707 L178.851423,39.3062871 L184.423903,39.3062871 Z" id="Newspaper,-Magazine" fill="#111111" opacity="0.6"></path>
                <circle id="Oval" fill="#105EFB" cx="4.5" cy="21.5" r="4.5"></circle>
            </g>
        </g>
    </g>
</svg>