<?xml version="1.0" encoding="UTF-8"?>
<svg width="270px" height="90px" viewBox="0 0 270 90" version="1.1" xmlns="http://www.w3.org/2000/svg" xmlns:xlink="http://www.w3.org/1999/xlink">
    <!-- Generator: Sketch 48.2 (47327) - http://www.bohemiancoding.com/sketch -->
    <title>logo</title>
    <desc>Created with Sketch.</desc>
    <defs></defs>
    <g id="Page-1" stroke="none" stroke-width="1" fill="none" fill-rule="evenodd">
        <g id="logo">
            <g id="Group" transform="translate(7.000000, 17.000000)">
                <g id="icon">
                    <path d="M78.4511719,17.7246094 C80.0446043,15.4329313 81.499261,13.4008878 82.8151855,11.628418 C84.1311101,9.85594817 85.34407,8.31177416 86.4541016,6.99584961 C87.5641332,5.67992506 88.5980584,4.57438599 89.5559082,3.67919922 C90.513758,2.78401245 91.4447383,2.06339791 92.348877,1.51733398 C93.2530156,0.971270056 94.1526648,0.581869653 95.0478516,0.349121094 C95.9430383,0.116372534 96.8829703,0 97.8676758,0 C100.213065,0 101.385742,0.751945605 101.385742,2.25585938 C101.385742,2.45280046 101.367839,2.68554553 101.332031,2.95410156 C101.296224,3.22265759 101.229086,3.48225786 101.130615,3.73291016 C101.032145,3.98356245 100.893393,4.19840405 100.714355,4.37744141 C100.535318,4.55647876 100.311525,4.64599609 100.042969,4.64599609 C99.8460277,4.64599609 99.6177585,4.54752703 99.3581543,4.35058594 C99.0985501,4.15364485 98.7986671,3.93432738 98.4584961,3.69262695 C98.1183251,3.45092653 97.7244489,3.22713319 97.2768555,3.02124023 C96.8292621,2.81534728 96.327965,2.71240234 95.7729492,2.71240234 C95.1642222,2.71240234 94.4704629,2.96305088 93.6916504,3.46435547 C92.9128379,3.96566006 92.071375,4.6459918 91.1672363,5.50537109 C90.2630977,6.36475039 89.3231657,7.36286866 88.3474121,8.49975586 C87.3716585,9.63664305 86.382492,10.8406512 85.3798828,12.1118164 C88.0654431,18.2348939 90.4331766,23.5432718 92.4831543,28.0371094 C94.533132,32.5309469 96.4040443,36.2503922 98.0959473,39.1955566 C99.7878503,42.1407211 101.349928,44.3294199 102.782227,45.7617188 C104.214525,47.1940176 105.655754,47.9101562 107.105957,47.9101562 C107.356609,47.9101562 107.607258,47.8743493 107.85791,47.8027344 C108.108562,47.7311194 108.332356,47.6505538 108.529297,47.5610352 C108.762045,47.4715165 108.994791,47.3551439 109.227539,47.2119141 L109.791504,48.2592773 C109.48714,48.4383147 109.070885,48.6531563 108.542725,48.9038086 C108.014564,49.1544609 107.387943,49.3916818 106.662842,49.6154785 C105.937741,49.8392752 105.13656,50.0317375 104.259277,50.1928711 C103.381994,50.3540047 102.442062,50.4345703 101.439453,50.4345703 C100.060866,50.4345703 98.7807676,50.2197287 97.5991211,49.7900391 C96.4174746,49.3603494 95.2671768,48.6665901 94.1481934,47.7087402 C93.0292099,46.7508904 91.9281467,45.4976477 90.8449707,43.9489746 C89.7617947,42.4003015 88.6338763,40.5070099 87.4611816,38.269043 C86.288487,36.031076 85.0486719,33.4261216 83.7416992,30.4541016 C82.4347265,27.4820815 81.0114009,24.0804228 79.4716797,20.2490234 L78.4511719,21.7797852 L78.4511719,38.3496094 C78.4511719,39.728197 78.0886267,40.7307911 77.3635254,41.3574219 C76.6384241,41.9840526 75.532885,42.2973633 74.046875,42.2973633 C72.5429612,42.2973633 71.4329463,41.9840526 70.7167969,41.3574219 C70.0006475,40.7307911 69.6425781,39.728197 69.6425781,38.3496094 L69.6425781,6.015625 C69.6425781,5.62174282 69.5978195,5.30843215 69.5083008,5.07568359 C69.4187821,4.84293503 69.2934578,4.6594245 69.1323242,4.52514648 C68.9711906,4.39086847 68.7787283,4.30135114 68.5549316,4.2565918 C68.3311349,4.21183246 68.0849623,4.18945312 67.8164062,4.18945312 C67.4225241,4.18945312 66.9346546,4.25211526 66.3527832,4.37744141 C65.7709118,4.50276755 65.1577181,4.69075396 64.5131836,4.94140625 C63.8686491,5.19205854 63.2196484,5.50089335 62.5661621,5.86791992 C61.9126758,6.2349465 61.3308131,6.6512021 60.8205566,7.11669922 C60.3103002,7.58219634 59.8940446,8.10139688 59.5717773,8.67431641 C59.2495101,9.24723594 59.0883789,9.86490554 59.0883789,10.5273438 C59.0883789,11.1002633 59.1644686,11.5568017 59.3166504,11.8969727 C59.4688321,12.2371436 59.6433909,12.492268 59.840332,12.6623535 C60.0372731,12.832439 60.2386871,12.9398598 60.4445801,12.9846191 C60.650473,13.0293785 60.7981766,13.0517578 60.8876953,13.0517578 C61.3352887,13.0517578 61.7023098,12.9756681 61.9887695,12.8234863 C62.2752293,12.6713046 62.5348296,12.5101734 62.7675781,12.3400879 C63.0003267,12.1700024 63.2196442,12.0088712 63.4255371,11.8566895 C63.6314301,11.7045077 63.868651,11.628418 64.137207,11.628418 C64.3520519,11.628418 64.5803211,11.6776525 64.8220215,11.776123 C65.0637219,11.8745936 65.2875152,12.0312489 65.4934082,12.2460938 C65.6993012,12.4609386 65.87386,12.7429182 66.0170898,13.092041 C66.1603197,13.4411639 66.2319336,13.8663712 66.2319336,14.3676758 C66.2319336,15.0838252 66.0931817,15.7014948 65.8156738,16.2207031 C65.5381659,16.7399115 65.1800966,17.1740705 64.7414551,17.5231934 C64.3028136,17.8723162 63.8015165,18.1319165 63.2375488,18.302002 C62.6735812,18.4720874 62.1140978,18.5571289 61.559082,18.5571289 C60.6997027,18.5571289 59.9253778,18.4094253 59.236084,18.1140137 C58.5467902,17.818602 57.9604516,17.4112982 57.4770508,16.8920898 C56.9936499,16.3728815 56.6266289,15.7641636 56.3759766,15.065918 C56.1253243,14.3676723 56,13.6246784 56,12.8369141 C56,11.6015563 56.2237933,10.469162 56.6713867,9.43969727 C57.1189801,8.41023248 57.7321738,7.48372808 58.5109863,6.66015625 C59.2897988,5.83658442 60.2028756,5.11596989 61.2502441,4.49829102 C62.2976127,3.88061215 63.4300069,3.36588748 64.6474609,2.95410156 C65.8649149,2.54231565 67.1360611,2.23348085 68.4609375,2.02758789 C69.7858139,1.82169493 71.1106705,1.71875 72.4355469,1.71875 C73.9036532,1.71875 75.0449992,1.85750187 75.8596191,2.13500977 C76.6742391,2.41251766 77.2740052,2.74820767 77.6589355,3.14208984 C78.0438659,3.53597202 78.2721351,3.94775176 78.34375,4.37744141 C78.4153649,4.80713105 78.4511719,5.16520039 78.4511719,5.45166016 L78.4511719,17.7246094 Z M96.5839844,28.1176758 C96.5839844,25.7722865 96.9241502,23.7178636 97.6044922,21.9543457 C98.2848341,20.1908278 99.1934351,18.7182676 100.330322,17.5366211 C101.467209,16.3549746 102.78759,15.468753 104.291504,14.8779297 C105.795418,14.2871064 107.370923,13.9916992 109.018066,13.9916992 C110.66521,13.9916992 112.240715,14.2647271 113.744629,14.810791 C115.248543,15.3568549 116.568923,16.193842 117.705811,17.3217773 C118.842698,18.4497127 119.751299,19.8775141 120.431641,21.6052246 C121.111983,23.3329351 121.452148,25.3784062 121.452148,27.7416992 C121.452148,30.0870885 121.111983,32.1638907 120.431641,33.972168 C119.751299,35.7804452 118.842698,37.3022399 117.705811,38.5375977 C116.568923,39.7729554 115.248543,40.7084115 113.744629,41.3439941 C112.240715,41.9795767 110.66521,42.2973633 109.018066,42.2973633 C107.370923,42.2973633 105.795418,41.9974802 104.291504,41.3977051 C102.78759,40.7979299 101.467209,39.9072325 100.330322,38.7255859 C99.1934351,37.5439394 98.2848341,36.0669034 97.6044922,34.2944336 C96.9241502,32.5219638 96.5839844,30.4630651 96.5839844,28.1176758 Z M113.100098,27.8491211 C113.100098,26.4168223 113.050863,25.0337795 112.952393,23.6999512 C112.853922,22.3661229 112.66146,21.1800182 112.375,20.1416016 C112.08854,19.1031849 111.67676,18.2751496 111.139648,17.6574707 C110.602536,17.0397918 109.895349,16.730957 109.018066,16.730957 C108.140783,16.730957 107.433596,17.0576953 106.896484,17.7111816 C106.359372,18.364668 105.947593,19.2240344 105.661133,20.2893066 C105.374673,21.3545789 105.186687,22.5675388 105.097168,23.9282227 C105.007649,25.2889065 104.962891,26.685377 104.962891,28.1176758 C104.962891,29.5499746 105.007649,30.9509209 105.097168,32.3205566 C105.186687,33.6901924 105.374673,34.912104 105.661133,35.9863281 C105.947593,37.0605522 106.359372,37.9243945 106.896484,38.5778809 C107.433596,39.2313672 108.140783,39.5581055 109.018066,39.5581055 C109.895349,39.5581055 110.602536,39.2179396 111.139648,38.5375977 C111.67676,37.8572557 112.08854,36.9620824 112.375,35.8520508 C112.66146,34.7420192 112.853922,33.4887765 112.952393,32.0922852 C113.050863,30.6957938 113.100098,29.2814199 113.100098,27.8491211 Z M130.272461,39.5043945 C130.272461,39.7371431 130.232178,40.0146468 130.151611,40.3369141 C130.071045,40.6591813 129.883058,40.9635402 129.587646,41.25 C129.292235,41.5364598 128.862552,41.7826324 128.298584,41.9885254 C127.734616,42.1944183 126.978195,42.2973633 126.029297,42.2973633 C125.080399,42.2973633 124.337405,42.1854666 123.800293,41.9616699 C123.263181,41.7378732 122.864829,41.4737971 122.605225,41.1694336 C122.34562,40.8650701 122.184489,40.5517594 122.121826,40.2294922 C122.059163,39.907225 122.027832,39.6476247 122.027832,39.4506836 L122.027832,4.80712891 C122.027832,4.28792058 121.906984,3.83585804 121.665283,3.45092773 C121.423583,3.06599742 121.016279,2.87353516 120.443359,2.87353516 C120.138996,2.87353516 119.87492,2.92276969 119.651123,3.02124023 C119.427326,3.11971078 119.190105,3.26741438 118.939453,3.46435547 L118.402344,2.81982422 C118.81413,2.47965325 119.270668,2.14396324 119.771973,1.81274414 C120.273277,1.48152504 120.823809,1.1905937 121.423584,0.939941406 C122.023359,0.689289111 122.663408,0.483399243 123.34375,0.322265625 C124.024092,0.161132007 124.740231,0.0805664062 125.492188,0.0805664062 C126.65593,0.0805664062 127.560055,0.237221741 128.20459,0.550537109 C128.849124,0.863852478 129.323566,1.24877701 129.62793,1.70532227 C129.932293,2.16186752 130.115804,2.64526112 130.178467,3.15551758 C130.24113,3.66577404 130.272461,4.11783657 130.272461,4.51171875 L130.272461,39.5043945 Z M140.575195,54.4091797 C141.882168,54.4091797 143.10408,54.064538 144.240967,53.3752441 C145.377854,52.6859503 146.452062,51.7370666 147.463623,50.5285645 C148.475184,49.3200623 149.43302,47.8833091 150.337158,46.2182617 C151.241297,44.5532143 152.096187,42.7539159 152.901855,40.8203125 C150.950348,34.3749678 148.972015,28.6010997 146.966797,23.4985352 C144.961579,18.3959706 143.010101,14.0722833 141.112305,10.5273438 C140.127599,8.6295478 139.102626,7.20174633 138.037354,6.24389648 C136.972081,5.28604664 135.965011,4.80712891 135.016113,4.80712891 C134.443194,4.80712891 133.932945,4.92797731 133.485352,5.16967773 C133.037758,5.41137816 132.652834,5.6754543 132.330566,5.96191406 L131.65918,5.12939453 C132.035158,4.75341609 132.500648,4.36849155 133.055664,3.97460938 C133.61068,3.5807272 134.255205,3.21370613 134.989258,2.87353516 C135.723311,2.53336418 136.551346,2.25586045 137.473389,2.04101562 C138.395431,1.8261708 139.411453,1.71875 140.521484,1.71875 C141.0765,1.71875 141.69417,1.76798453 142.374512,1.86645508 C143.054854,1.96492562 143.748613,2.16186376 144.455811,2.45727539 C145.163008,2.75268702 145.865719,3.16446676 146.563965,3.69262695 C147.262211,4.22078715 147.924639,4.92349822 148.55127,5.80078125 C149.929857,7.73438467 151.38899,10.4601875 152.928711,13.9782715 C154.468432,17.4963555 156.106599,21.7708082 157.843262,26.8017578 C158.398278,25.1367104 158.944333,23.4761639 159.481445,21.8200684 C160.018557,20.1639728 160.564613,18.5526608 161.119629,16.986084 C161.674645,15.4195071 162.234128,13.9111401 162.798096,12.4609375 C163.362063,11.0107349 163.948402,9.65007146 164.557129,8.37890625 C165.18376,7.0361261 165.823809,5.85002142 166.477295,4.82055664 C167.130781,3.79109186 167.84692,2.92724958 168.625732,2.22900391 C169.404545,1.53075823 170.277339,0.99813009 171.244141,0.631103516 C172.210942,0.264076941 173.320957,0.0805664062 174.574219,0.0805664062 C175.505213,0.0805664062 176.26611,0.281980408 176.856934,0.684814453 C177.447757,1.0876485 177.743164,1.6918905 177.743164,2.49755859 C177.743164,3.21370801 177.626792,3.80452241 177.394043,4.27001953 C177.161294,4.73551665 176.839032,4.96826172 176.427246,4.96826172 C176.087075,4.96826172 175.822999,4.83846158 175.63501,4.57885742 C175.447021,4.31925326 175.259034,4.03727366 175.071045,3.73291016 C174.883056,3.42854666 174.659262,3.14656705 174.399658,2.88696289 C174.140054,2.62735873 173.768557,2.49755859 173.285156,2.49755859 C172.193028,2.49755859 171.185958,2.99885566 170.263916,4.00146484 C169.341874,5.00407402 168.473556,6.3647375 167.658936,8.08349609 C166.844316,9.80225469 166.056563,11.8119188 165.295654,14.1125488 C164.534746,16.4131788 163.769372,18.8525262 162.999512,21.4306641 C162.229651,24.008802 161.423995,26.6629909 160.58252,29.3933105 C159.741044,32.1236302 158.836919,34.7778191 157.870117,37.355957 C156.903315,39.9340949 155.842535,42.3734423 154.687744,44.6740723 C153.532953,46.9747023 152.248379,48.9843664 150.833984,50.703125 C149.419589,52.4218836 147.853036,53.7825471 146.134277,54.7851563 C144.415519,55.7877654 142.5088,56.2890625 140.414062,56.2890625 C139.500972,56.2890625 138.619226,56.2129728 137.768799,56.060791 C136.918371,55.9086093 136.157474,55.6982435 135.486084,55.4296875 C134.814694,55.1611315 134.259686,54.8388691 133.821045,54.4628906 C133.382403,54.0869122 133.136231,53.6840842 133.08252,53.2543945 C133.046712,52.9321273 133.06014,52.605389 133.122803,52.2741699 C133.185466,51.9429508 133.288411,51.6430677 133.431641,51.3745117 C133.574871,51.1059557 133.767333,50.8821624 134.009033,50.703125 C134.250734,50.5240876 134.532713,50.4345703 134.85498,50.4345703 C135.051922,50.4345703 135.235432,50.5330394 135.405518,50.7299805 C135.575603,50.9269216 135.759114,51.1730942 135.956055,51.4685059 C136.152996,51.7639175 136.372313,52.081704 136.614014,52.421875 C136.855714,52.762046 137.155597,53.0798325 137.513672,53.3752441 C137.871747,53.6706558 138.296954,53.9168284 138.789307,54.1137695 C139.281659,54.3107106 139.87695,54.4091797 140.575195,54.4091797 Z M162.360352,28.1176758 C162.360352,25.7722865 162.700517,23.7178636 163.380859,21.9543457 C164.061201,20.1908278 164.969802,18.7182676 166.106689,17.5366211 C167.243577,16.3549746 168.563957,15.468753 170.067871,14.8779297 C171.571785,14.2871064 173.14729,13.9916992 174.794434,13.9916992 C176.441577,13.9916992 178.017082,14.2647271 179.520996,14.810791 C181.02491,15.3568549 182.345291,16.193842 183.482178,17.3217773 C184.619065,18.4497127 185.527666,19.8775141 186.208008,21.6052246 C186.88835,23.3329351 187.228516,25.3784062 187.228516,27.7416992 C187.228516,30.0870885 186.88835,32.1638907 186.208008,33.972168 C185.527666,35.7804452 184.619065,37.3022399 183.482178,38.5375977 C182.345291,39.7729554 181.02491,40.7084115 179.520996,41.3439941 C178.017082,41.9795767 176.441577,42.2973633 174.794434,42.2973633 C173.14729,42.2973633 171.571785,41.9974802 170.067871,41.3977051 C168.563957,40.7979299 167.243577,39.9072325 166.106689,38.7255859 C164.969802,37.5439394 164.061201,36.0669034 163.380859,34.2944336 C162.700517,32.5219638 162.360352,30.4630651 162.360352,28.1176758 Z M178.876465,27.8491211 C178.876465,26.4168223 178.82723,25.0337795 178.72876,23.6999512 C178.630289,22.3661229 178.437827,21.1800182 178.151367,20.1416016 C177.864907,19.1031849 177.453128,18.2751496 176.916016,17.6574707 C176.378904,17.0397918 175.671717,16.730957 174.794434,16.730957 C173.917151,16.730957 173.209964,17.0576953 172.672852,17.7111816 C172.13574,18.364668 171.72396,19.2240344 171.4375,20.2893066 C171.15104,21.3545789 170.963054,22.5675388 170.873535,23.9282227 C170.784016,25.2889065 170.739258,26.685377 170.739258,28.1176758 C170.739258,29.5499746 170.784016,30.9509209 170.873535,32.3205566 C170.963054,33.6901924 171.15104,34.912104 171.4375,35.9863281 C171.72396,37.0605522 172.13574,37.9243945 172.672852,38.5778809 C173.209964,39.2313672 173.917151,39.5581055 174.794434,39.5581055 C175.671717,39.5581055 176.378904,39.2179396 176.916016,38.5375977 C177.453128,37.8572557 177.864907,36.9620824 178.151367,35.8520508 C178.437827,34.7420192 178.630289,33.4887765 178.72876,32.0922852 C178.82723,30.6957938 178.876465,29.2814199 178.876465,27.8491211 Z M211.222168,37.1948242 C211.222168,37.3559578 211.23112,37.5305166 211.249023,37.7185059 C211.266927,37.9064951 211.311686,38.0855297 211.383301,38.2556152 C211.454916,38.4257007 211.562337,38.5644526 211.705566,38.671875 C211.848796,38.7792974 212.054686,38.8330078 212.323242,38.8330078 C212.663413,38.8330078 212.967772,38.7121594 213.236328,38.470459 C213.504884,38.2287586 213.755533,37.9825859 213.988281,37.7319336 L214.632812,38.2958984 C214.364256,38.6718769 214.028566,39.0881325 213.625732,39.5446777 C213.222898,40.001223 212.735029,40.4353821 212.162109,40.847168 C211.58919,41.2589539 210.935713,41.6035956 210.20166,41.8811035 C209.467607,42.1586114 208.635096,42.2973633 207.704102,42.2973633 C206.916337,42.2973633 206.23153,42.1944183 205.649658,41.9885254 C205.067787,41.7826324 204.575441,41.5051287 204.172607,41.1560059 C203.769773,40.806883 203.46989,40.3951033 203.272949,39.9206543 C203.076008,39.4462053 202.977539,38.9404324 202.977539,38.4033203 L202.977539,37.1948242 C202.082352,38.1616259 201.14242,39.0120406 200.157715,39.7460938 C199.728025,40.068361 199.271487,40.3816717 198.788086,40.6860352 C198.304685,40.9903987 197.803388,41.2634265 197.28418,41.505127 C196.764971,41.7468274 196.227867,41.9392896 195.672852,42.0825195 C195.117836,42.2257494 194.562828,42.2973633 194.007812,42.2973633 C192.933588,42.2973633 192.016036,42.104901 191.255127,41.7199707 C190.494218,41.3350404 189.881024,40.8292675 189.415527,40.2026367 C188.95003,39.576006 188.609864,38.868819 188.39502,38.0810547 C188.180175,37.2932903 188.072754,36.5055378 188.072754,35.7177734 L188.072754,19.0942383 C188.072754,18.9331047 188.063802,18.7585459 188.045898,18.5705566 C188.027995,18.3825674 187.983236,18.2035328 187.911621,18.0334473 C187.840006,17.8633618 187.732585,17.7246099 187.589355,17.6171875 C187.446126,17.5097651 187.240236,17.4560547 186.97168,17.4560547 C186.649412,17.4560547 186.349529,17.5769031 186.072021,17.8186035 C185.794514,18.0603039 185.548341,18.3064766 185.333496,18.5571289 L184.662109,17.9931641 C184.930665,17.6171856 185.266355,17.20093 185.669189,16.7443848 C186.072023,16.2878395 186.559893,15.8536804 187.132812,15.4418945 C187.705732,15.0301086 188.363684,14.6854669 189.106689,14.407959 C189.849694,14.1304511 190.67773,13.9916992 191.59082,13.9916992 C192.378585,13.9916992 193.067868,14.0946442 193.658691,14.3005371 C194.249515,14.5064301 194.74186,14.7839338 195.135742,15.1330566 C195.529624,15.4821795 195.825032,15.8939592 196.021973,16.3684082 C196.218914,16.8428572 196.317383,17.3486301 196.317383,17.8857422 L196.317383,35.8251953 C196.317383,36.0758476 196.357666,36.330972 196.438232,36.5905762 C196.518799,36.8501803 196.635172,37.0874013 196.787354,37.3022461 C196.939535,37.5170909 197.131998,37.6916497 197.364746,37.8259277 C197.597495,37.9602057 197.874998,38.0273438 198.197266,38.0273438 C198.716474,38.0273438 199.235674,37.8930677 199.754883,37.6245117 C200.274091,37.3559557 200.748533,37.0381692 201.178223,36.6711426 C201.607912,36.304116 201.979409,35.9415708 202.292725,35.5834961 C202.60604,35.2254214 202.834309,34.9568694 202.977539,34.777832 L202.977539,19.0942383 C202.977539,18.9331047 202.968587,18.7585459 202.950684,18.5705566 C202.93278,18.3825674 202.888021,18.2035328 202.816406,18.0334473 C202.744791,17.8633618 202.637371,17.7246099 202.494141,17.6171875 C202.350911,17.5097651 202.145021,17.4560547 201.876465,17.4560547 C201.554198,17.4560547 201.254315,17.5769031 200.976807,17.8186035 C200.699299,18.0603039 200.453126,18.3064766 200.238281,18.5571289 L199.566895,17.9931641 C199.835451,17.6171856 200.171141,17.20093 200.573975,16.7443848 C200.976809,16.2878395 201.464678,15.8536804 202.037598,15.4418945 C202.610517,15.0301086 203.26847,14.6854669 204.011475,14.407959 C204.75448,14.1304511 205.582515,13.9916992 206.495605,13.9916992 C207.28337,13.9916992 207.972653,14.0946442 208.563477,14.3005371 C209.1543,14.5064301 209.646645,14.7839338 210.040527,15.1330566 C210.43441,15.4821795 210.729817,15.8939592 210.926758,16.3684082 C211.123699,16.8428572 211.222168,17.3486301 211.222168,17.8857422 L211.222168,37.1948242 Z M237.719727,39.5043945 C237.719727,39.7371431 237.68392,40.0146468 237.612305,40.3369141 C237.54069,40.6591813 237.366131,40.9635402 237.088623,41.25 C236.811115,41.5364598 236.39486,41.7826324 235.839844,41.9885254 C235.284828,42.1944183 234.532882,42.2973633 233.583984,42.2973633 C232.635086,42.2973633 231.887617,42.1854666 231.341553,41.9616699 C230.795489,41.7378732 230.383709,41.4737971 230.106201,41.1694336 C229.828693,40.8650701 229.654134,40.5517594 229.58252,40.2294922 C229.510905,39.907225 229.475098,39.6476247 229.475098,39.4506836 L229.475098,20.4638672 C229.475098,20.2132149 229.439291,19.9580905 229.367676,19.6984863 C229.296061,19.4388822 229.18864,19.2016612 229.04541,18.9868164 C228.90218,18.7719716 228.723146,18.5974128 228.508301,18.4631348 C228.293456,18.3288568 228.042807,18.2617188 227.756348,18.2617188 C227.272947,18.2617188 226.798505,18.4004706 226.333008,18.6779785 C225.867511,18.9554864 225.433352,19.2732729 225.030518,19.6313477 C224.627684,19.9894224 224.278566,20.3474917 223.983154,20.7055664 C223.687743,21.0636411 223.477377,21.3321931 223.352051,21.5112305 L223.352051,39.5043945 C223.352051,39.7371431 223.316244,40.0146468 223.244629,40.3369141 C223.173014,40.6591813 222.998455,40.9635402 222.720947,41.25 C222.443439,41.5364598 222.03166,41.7826324 221.485596,41.9885254 C220.939532,42.1944183 220.192062,42.2973633 219.243164,42.2973633 C218.294266,42.2973633 217.546796,42.1854666 217.000732,41.9616699 C216.454668,41.7378732 216.038413,41.4737971 215.751953,41.1694336 C215.465493,40.8650701 215.286459,40.5517594 215.214844,40.2294922 C215.143229,39.907225 215.107422,39.6476247 215.107422,39.4506836 L215.107422,18.7182617 C215.107422,18.1990534 214.986573,17.7469909 214.744873,17.3620605 C214.503173,16.9771302 214.095869,16.784668 213.522949,16.784668 C213.218586,16.784668 212.958985,16.8383784 212.744141,16.9458008 C212.529296,17.0532232 212.296551,17.2054027 212.045898,17.4023438 L211.481934,16.730957 C211.89372,16.3907861 212.354734,16.0550961 212.86499,15.723877 C213.375247,15.3926578 213.925778,15.1017265 214.516602,14.8510742 C215.107425,14.6004219 215.742998,14.3945321 216.42334,14.2333984 C217.103682,14.0722648 217.81982,13.9916992 218.571777,13.9916992 C219.73552,13.9916992 220.639645,14.1841615 221.28418,14.5690918 C221.928714,14.9540221 222.403156,15.4150364 222.70752,15.9521484 C223.011883,16.4892605 223.195394,17.0487438 223.258057,17.6306152 C223.32072,18.2124866 223.352051,18.7003561 223.352051,19.0942383 C224.193526,18.1453403 225.097651,17.2949256 226.064453,16.5429688 C226.458335,16.2207015 226.892494,15.9073908 227.366943,15.6030273 C227.841392,15.2986638 228.329262,15.025636 228.830566,14.7839355 C229.331871,14.5422351 229.851072,14.3497729 230.388184,14.206543 C230.925296,14.0633131 231.4624,13.9916992 231.999512,13.9916992 C233.037928,13.9916992 233.92415,14.1796856 234.658203,14.5556641 C235.392256,14.9316425 235.983071,15.383705 236.430664,15.9118652 C236.878257,16.4400254 237.204996,16.9950329 237.410889,17.5769043 C237.616782,18.1587757 237.719727,18.6645486 237.719727,19.0942383 C238.579106,18.1453403 239.483231,17.2949256 240.432129,16.5429688 C240.826011,16.2207015 241.255694,15.9073908 241.721191,15.6030273 C242.186689,15.2986638 242.674558,15.025636 243.184814,14.7839355 C243.695071,14.5422351 244.214271,14.3497729 244.742432,14.206543 C245.270592,14.0633131 245.80322,13.9916992 246.340332,13.9916992 C247.378749,13.9916992 248.26497,14.1841615 248.999023,14.5690918 C249.733077,14.9540221 250.323891,15.459795 250.771484,16.0864258 C251.219078,16.7130565 251.545816,17.4202435 251.751709,18.2080078 C251.957602,18.9957722 252.060547,19.7835247 252.060547,20.5712891 L252.060547,37.1948242 C252.060547,37.3559578 252.069499,37.5305166 252.087402,37.7185059 C252.105306,37.9064951 252.150065,38.0855297 252.22168,38.2556152 C252.293295,38.4257007 252.405191,38.5644526 252.557373,38.671875 C252.709555,38.7792974 252.910969,38.8330078 253.161621,38.8330078 C253.501792,38.8330078 253.806151,38.7121594 254.074707,38.470459 C254.343263,38.2287586 254.593912,37.9825859 254.82666,37.7319336 L255.471191,38.2958984 C255.220539,38.6718769 254.889325,39.0881325 254.477539,39.5446777 C254.065753,40.001223 253.577884,40.4353821 253.013916,40.847168 C252.449948,41.2589539 251.796472,41.6035956 251.053467,41.8811035 C250.310462,42.1586114 249.473475,42.2973633 248.54248,42.2973633 C247.754716,42.2973633 247.069909,42.1944183 246.488037,41.9885254 C245.906166,41.7826324 245.41382,41.5051287 245.010986,41.1560059 C244.608152,40.806883 244.308269,40.3951033 244.111328,39.9206543 C243.914387,39.4462053 243.815918,38.9404324 243.815918,38.4033203 L243.815918,20.4638672 C243.815918,20.2132149 243.780111,19.9580905 243.708496,19.6984863 C243.636881,19.4388822 243.533936,19.2016612 243.399658,18.9868164 C243.26538,18.7719716 243.090821,18.5974128 242.875977,18.4631348 C242.661132,18.3288568 242.410483,18.2617188 242.124023,18.2617188 C241.640623,18.2617188 241.161705,18.4004706 240.687256,18.6779785 C240.212807,18.9554864 239.774172,19.2732729 239.371338,19.6313477 C238.968504,19.9894224 238.623862,20.3474917 238.337402,20.7055664 C238.050943,21.0636411 237.845053,21.3321931 237.719727,21.5112305 L237.719727,39.5043945 Z" id="Kol-Youm" fill="#111111"></path>
                    <path d="M20.735,50.834 C20.617,50.834 20.499,50.806 20.392,50.751 L9.81,45.311 C9.441,45.122 9.296,44.67 9.486,44.301 C9.676,43.932 10.127,43.788 10.496,43.977 L20.735,49.24 L38.168,40.28 L20.735,31.319 L3.301,40.28 L7.009,42.185 C7.377,42.375 7.522,42.827 7.333,43.195 C7.144,43.564 6.69,43.709 6.323,43.519 L1.318,40.947 C1.068,40.819 0.911,40.561 0.911,40.28 C0.911,39.999 1.068,39.742 1.318,39.613 L20.392,29.808 C20.607,29.697 20.863,29.697 21.078,29.808 L40.151,39.613 C40.401,39.742 40.559,39.999 40.559,40.28 C40.559,40.561 40.401,40.818 40.151,40.947 L21.078,50.751 C20.97,50.806 20.852,50.834 20.735,50.834" id="Fill-590" fill="#111111"></path>
                    <polygon id="Fill-591" fill="#111111" points="1.661 28.28 20.735 38.084 39.809 28.28 20.735 18.476"></polygon>
                    <path d="M3.301,28.28 L20.735,37.24 L38.168,28.28 L20.735,19.319 L3.301,28.28 L3.301,28.28 Z M20.735,38.834 C20.617,38.834 20.499,38.806 20.392,38.751 L1.318,28.947 C1.068,28.818 0.911,28.561 0.911,28.28 C0.911,27.999 1.068,27.742 1.318,27.613 L20.392,17.808 C20.607,17.697 20.863,17.697 21.078,17.808 L40.151,27.613 C40.401,27.742 40.559,27.999 40.559,28.28 C40.559,28.561 40.401,28.818 40.151,28.947 L21.078,38.751 C20.97,38.806 20.852,38.834 20.735,38.834 L20.735,38.834 Z" id="Fill-598" fill="#111111"></path>
                    <polyline id="Fill-600" fill="#FFFFFF" points="20.735 16.476 30.081 21.28 20.735 26.084 11.386 21.279 20.735 16.476"></polyline>
                    <path d="M20.735,26.834 C20.617,26.834 20.499,26.806 20.392,26.751 L1.318,16.947 C1.068,16.818 0.911,16.561 0.911,16.28 C0.911,15.999 1.068,15.742 1.318,15.613 L20.392,5.808 C20.607,5.697 20.863,5.697 21.078,5.808 L33.421,12.153 C33.789,12.342 33.935,12.795 33.745,13.163 C33.556,13.531 33.103,13.678 32.735,13.487 L20.735,7.319 L3.301,16.28 L20.735,25.24 L38.168,16.28 L36.476,15.41 C36.107,15.22 35.962,14.768 36.151,14.4 C36.341,14.032 36.793,13.885 37.161,14.076 L40.151,15.613 C40.401,15.742 40.559,15.999 40.559,16.28 C40.559,16.561 40.401,16.818 40.151,16.947 L21.078,26.751 C20.97,26.806 20.852,26.834 20.735,26.834" id="Fill-606" fill="#111111"></path>
                </g>
            </g>
        </g>
    </g>
</svg>