<?xml version="1.0" encoding="UTF-8"?>
<svg width="270px" height="90px" viewBox="0 0 270 90" version="1.1" xmlns="http://www.w3.org/2000/svg" xmlns:xlink="http://www.w3.org/1999/xlink">
    <!-- Generator: Sketch 48.2 (47327) - http://www.bohemiancoding.com/sketch -->
    <title>logo</title>
    <desc>Created with Sketch.</desc>
    <defs></defs>
    <g id="Page-1" stroke="none" stroke-width="1" fill="none" fill-rule="evenodd">
        <g id="logo">
            <g id="Group-2" transform="translate(26.000000, 23.000000)">
                <path d="M21.0173905,21.5881903 L16.147,21.5881903 L16.147,0.511646744 L21.0173905,0.511646744 L21.0173905,12.3316002 L25.9447446,5.69533719 L32.4955622,5.69533719 L25.6884082,13.8126546 L32.4955622,21.5881903 L26.03019,21.5881903 L21.0173905,15.2367454 L21.0173905,21.5881903 Z M45.2554156,13.6417637 C45.2554156,12.3505816 44.923131,11.3679688 44.258552,10.6938958 C43.593973,10.0198228 42.805984,9.68279137 41.8945613,9.68279137 C40.9831387,9.68279137 40.1998966,10.0198228 39.5448115,10.6938958 C38.8897265,11.3679688 38.5621889,12.3505816 38.5621889,13.6417637 C38.5621889,14.9329458 38.8992203,15.9203056 39.5732933,16.6038726 C40.2473664,17.2874396 41.0401023,17.6292179 41.951525,17.6292179 C42.8629476,17.6292179 43.6414428,17.2874396 44.2870338,16.6038726 C44.9326249,15.9203056 45.2554156,14.9329458 45.2554156,13.6417637 Z M33.606353,13.6132819 C33.606353,11.1638335 34.4038358,9.20335483 35.9988255,7.731787 C37.5938151,6.26021917 39.5685346,5.52444629 41.9230431,5.52444629 C44.2775517,5.52444629 46.2475242,6.26021917 47.8330199,7.731787 C49.4185155,9.20335483 50.2112515,11.1638335 50.2112515,13.6132819 C50.2112515,16.0627303 49.4232625,18.0374498 47.8472608,19.5374996 C46.2712591,21.0375494 44.3060335,21.787563 41.951525,21.787563 C39.5970164,21.787563 37.61755,21.0375494 36.0130664,19.5374996 C34.4085828,18.0374498 33.606353,16.0627303 33.606353,13.6132819 Z M53.3442512,21.5881903 L53.3442512,0.511646744 L58.2146417,0.511646744 L58.2146417,21.5881903 L53.3442512,21.5881903 Z M66.6452591,21.2748903 L60.4647051,5.69533719 L65.9901773,5.69533719 L69.5219225,16.0911999 L73.3954494,5.69533719 L78.4936944,5.69533719 L68.354168,29.1643533 L63.255923,29.1643533 L66.6452591,21.2748903 Z M91.2535478,13.6417637 C91.2535478,12.3505816 90.9212633,11.3679688 90.2566842,10.6938958 C89.5921052,10.0198228 88.8041162,9.68279137 87.8926935,9.68279137 C86.9812709,9.68279137 86.1980288,10.0198228 85.5429438,10.6938958 C84.8878587,11.3679688 84.5603211,12.3505816 84.5603211,13.6417637 C84.5603211,14.9329458 84.8973526,15.9203056 85.5714256,16.6038726 C86.2454986,17.2874396 87.0382345,17.6292179 87.9496572,17.6292179 C88.8610798,17.6292179 89.639575,17.2874396 90.2851661,16.6038726 C90.9307571,15.9203056 91.2535478,14.9329458 91.2535478,13.6417637 Z M79.6044852,13.6132819 C79.6044852,11.1638335 80.4019681,9.20335483 81.9969577,7.731787 C83.5919474,6.26021917 85.5666668,5.52444629 87.9211754,5.52444629 C90.2756839,5.52444629 92.2456564,6.26021917 93.8311521,7.731787 C95.4166478,9.20335483 96.2093837,11.1638335 96.2093837,13.6132819 C96.2093837,16.0627303 95.4213947,18.0374498 93.845393,19.5374996 C92.2693913,21.0375494 90.3041657,21.787563 87.9496572,21.787563 C85.5951486,21.787563 83.6156823,21.0375494 82.0111986,19.5374996 C80.406715,18.0374498 79.6044852,16.0627303 79.6044852,13.6132819 Z M110.136992,5.69533719 L115.007382,5.69533719 L115.007382,21.5881903 L110.136992,21.5881903 L110.136992,19.2526814 C109.130629,20.923623 107.526169,21.7590812 105.323565,21.7590812 C103.500719,21.7590812 102.024427,21.1514752 100.894642,19.936245 C99.764858,18.7210148 99.1999743,17.069086 99.1999743,14.9804091 L99.1999743,5.69533719 L104.041883,5.69533719 L104.041883,14.3253273 C104.041883,15.3506778 104.312458,16.1434137 104.853615,16.7035589 C105.394772,17.2637041 106.140039,17.5437725 107.089437,17.5437725 C108.038836,17.5437725 108.784103,17.2637041 109.32526,16.7035589 C109.866417,16.1434137 110.136992,15.3506778 110.136992,14.3253273 L110.136992,5.69533719 Z M124.150045,5.69533719 L124.150045,8.03084607 C125.156407,6.35990453 126.760867,5.52444629 128.963472,5.52444629 C130.140726,5.52444629 131.189796,5.79027391 132.110712,6.32193713 C133.031629,6.85360035 133.748414,7.61310783 134.261089,8.60048238 C134.849717,7.67007175 135.613971,6.92480503 136.553876,6.36465985 C137.49378,5.80451468 138.54285,5.52444629 139.701116,5.52444629 C141.637889,5.52444629 143.175892,6.12255844 144.31517,7.31880068 C145.454449,8.51504291 146.024079,10.1764655 146.024079,12.3031184 L146.024079,21.5881903 L141.182171,21.5881903 L141.182171,12.9582002 C141.182171,11.9328497 140.911596,11.1401137 140.370439,10.5799686 C139.829282,10.0198234 139.084015,9.739755 138.134616,9.739755 C137.185218,9.739755 136.439951,10.0198234 135.898794,10.5799686 C135.357637,11.1401137 135.087062,11.9328497 135.087062,12.9582002 L135.087062,21.5881903 L130.245153,21.5881903 L130.245153,12.9582002 C130.245153,11.9328497 129.974579,11.1401137 129.433422,10.5799686 C128.892264,10.0198234 128.146998,9.739755 127.197599,9.739755 C126.2482,9.739755 125.502934,10.0198234 124.961777,10.5799686 C124.420619,11.1401137 124.150045,11.9328497 124.150045,12.9582002 L124.150045,21.5881903 L119.279654,21.5881903 L119.279654,5.69533719 L124.150045,5.69533719 Z M152.14767,6.03711897 L152.14767,8.57200056 C153.192008,6.69219133 154.910394,5.75230082 157.302878,5.75230082 C159.030784,5.75230082 160.473848,6.31718451 161.632114,7.44696885 C162.79038,8.57675318 163.369505,10.2049474 163.369505,12.3316002 L163.369505,21.5881903 L161.40426,21.5881903 L161.40426,12.7018638 C161.40426,10.9929463 160.991277,9.69228977 160.165301,8.79985509 C159.339324,7.9074204 158.209557,7.46120975 156.775965,7.46120975 C155.342373,7.46120975 154.212605,7.9074204 153.386629,8.79985509 C152.560652,9.69228977 152.14767,10.9929463 152.14767,12.7018638 L152.14767,21.5881903 L150.153942,21.5881903 L150.153942,6.03711897 L152.14767,6.03711897 Z M173.993222,21.8730085 C171.771629,21.8730085 169.967799,21.1324887 168.581677,19.6514268 C167.195555,18.170365 166.502505,16.2193802 166.502505,13.7984137 C166.502505,11.3774473 167.209796,9.43120936 168.6244,7.95964153 C170.039004,6.4880737 171.871316,5.75230082 174.12139,5.75230082 C176.371465,5.75230082 178.161055,6.4453514 179.490213,7.83147336 C180.819371,9.21759532 181.48394,10.935981 181.48394,12.986682 C181.48394,13.5373332 181.445964,14.0500007 181.370012,14.5247 L168.553195,14.5247 C168.629147,16.3095694 169.170296,17.7146583 170.176659,18.7400087 C171.183021,19.7653592 172.455196,20.2780268 173.993222,20.2780268 C175.189464,20.2780268 176.210053,20.0027053 177.055017,19.4520541 C177.899982,18.9014029 178.483853,18.1798708 178.806649,17.2874361 L180.942785,17.2874361 C180.43011,18.6165942 179.594652,19.7131331 178.436385,20.5770858 C177.278119,21.4410386 175.79708,21.8730085 173.993222,21.8730085 Z M179.433249,12.9582002 C179.433249,11.2492827 178.915834,9.88691613 177.88099,8.87105963 C176.846146,7.85520312 175.564477,7.34728249 174.035945,7.34728249 C172.507413,7.34728249 171.235238,7.84570928 170.219382,8.84257781 C169.203525,9.83944634 168.648135,11.2113067 168.553195,12.9582002 L179.433249,12.9582002 Z M202.645929,6.03711897 L204.753583,6.03711897 L199.797747,21.5881903 L197.775538,21.5881903 L193.902011,8.48655512 L190.028484,21.5881903 L188.006275,21.5881903 L182.993476,6.03711897 L185.10113,6.03711897 L189.003139,19.4520541 L193.019075,6.03711897 L195.012802,6.03711897 L198.772402,19.4235723 L202.645929,6.03711897 Z M206.861237,10.3378731 C206.861237,9.04669103 207.392893,7.95964594 208.456219,7.07670524 C209.519545,6.19376455 210.877165,5.75230082 212.529119,5.75230082 C214.181072,5.75230082 215.467488,6.1842707 216.388405,7.04822343 C217.309321,7.91217616 217.817242,9.10365353 217.912182,10.6226913 L215.861491,10.6226913 C215.823515,9.67329269 215.500724,8.89005059 214.893109,8.2729415 C214.285494,7.65583241 213.440542,7.34728249 212.358228,7.34728249 C211.275913,7.34728249 210.426214,7.61311011 209.809105,8.14477333 C209.191996,8.67643655 208.883446,9.31727099 208.883446,10.0672959 C208.883446,10.8173208 209.111299,11.410686 209.56701,11.8474094 C210.022721,12.2841327 210.597099,12.5784419 211.29016,12.7303456 C211.983221,12.8822494 212.733234,13.0626324 213.540223,13.2715001 C214.347212,13.4803678 215.097226,13.7034732 215.790287,13.9408228 C216.483348,14.1781725 217.057725,14.6053954 217.513436,15.2225045 C217.969148,15.8396136 218.197,16.6323495 218.197,17.6007361 C218.197,18.8539423 217.674839,19.8792774 216.6305,20.6767722 C215.586162,21.474267 214.214301,21.8730085 212.514878,21.8730085 C210.815454,21.8730085 209.472075,21.4362917 208.484701,20.5628449 C207.497326,19.6893982 206.956177,18.5026678 206.861237,17.002618 L208.911928,17.002618 C208.949904,17.9710046 209.291682,18.7589936 209.937273,19.3666087 C210.582865,19.9742238 211.470539,20.2780268 212.600323,20.2780268 C213.730108,20.2780268 214.608288,20.0359338 215.234891,19.5517405 C215.861494,19.0675472 216.174791,18.4457004 216.174791,17.6861816 C216.174791,16.9266627 215.946939,16.3285505 215.491228,15.8918272 C215.035516,15.4551038 214.461139,15.1560477 213.768078,14.99465 C213.075017,14.8332522 212.325003,14.6481223 211.518014,14.4392546 C210.711025,14.2303869 209.961012,14.0120285 209.267951,13.7841728 C208.57489,13.5563172 208.000512,13.1480819 207.544801,12.5594548 C207.08909,11.9708276 206.861237,11.2303078 206.861237,10.3378731 Z" id="kolyoumnews" fill="#111111"></path>
                <path d="M7.448,31.298 L8.722,31.298 L8.722,41 L7.448,41 L2.324,33.3 L2.324,41 L1.05,41 L1.05,31.298 L2.324,31.298 L7.448,38.998 L7.448,31.298 Z M15.96,31.298 L15.96,32.306 L12.096,32.306 L12.096,35.61 L15.54,35.61 L15.54,36.604 L12.096,36.604 L12.096,39.992 L15.96,39.992 L15.96,41 L10.822,41 L10.822,31.298 L15.96,31.298 Z M28.882,31.298 L30.226,31.298 L27.286,41 L25.858,41 L23.674,33.16 L21.336,41 L19.922,41.014 L17.178,31.298 L18.522,31.298 L20.678,39.544 L23.03,31.298 L24.43,31.298 L26.6,39.516 L28.882,31.298 Z M32.648,33.888 C32.648,34.2426684 32.745999,34.5366655 32.942,34.77 C33.138001,35.0033345 33.3899985,35.1759994 33.698,35.288 C34.0060015,35.4000006 34.3489981,35.4979996 34.727,35.582 C35.1050019,35.6660004 35.4829981,35.7616661 35.861,35.869 C36.2390019,35.9763339 36.5819985,36.1139992 36.89,36.282 C37.1980015,36.4500008 37.449999,36.7019983 37.646,37.038 C37.842001,37.3740017 37.94,37.7893309 37.94,38.284 C37.94,39.0400038 37.6506696,39.6979972 37.072,40.258 C36.4933304,40.8180028 35.7116716,41.098 34.727,41.098 C33.7423284,41.098 32.9420031,40.8716689 32.326,40.419 C31.7099969,39.9663311 31.402,39.3526705 31.402,38.578 L32.76,38.578 C32.7973335,39.0166689 32.9723318,39.371332 33.285,39.642 C33.5976682,39.912668 34.0619969,40.048 34.678,40.048 C35.2940031,40.048 35.7839982,39.8893349 36.148,39.572 C36.5120018,39.2546651 36.694,38.8836688 36.694,38.459 C36.694,38.0343312 36.596001,37.7076678 36.4,37.479 C36.203999,37.2503322 35.9520015,37.0800006 35.644,36.968 C35.3359985,36.8559994 34.9930019,36.7603337 34.615,36.681 C34.2369981,36.6016663 33.8590019,36.5060006 33.481,36.394 C33.1029981,36.2819994 32.7600015,36.1396675 32.452,35.967 C32.1439985,35.7943325 31.892001,35.5376684 31.696,35.197 C31.499999,34.8563316 31.402,34.4340025 31.402,33.93 C31.402,33.1086626 31.6936638,32.4483358 32.277,31.949 C32.8603363,31.4496642 33.6209953,31.2 34.559,31.2 C35.4970047,31.2 36.2436639,31.4169978 36.799,31.851 C37.3543361,32.2850022 37.6739996,32.8846628 37.758,33.65 L36.344,33.65 C36.3066665,33.2673314 36.1270016,32.940668 35.805,32.67 C35.4829984,32.399332 35.0490027,32.264 34.503,32.264 C33.9569973,32.264 33.5113351,32.4016653 33.166,32.677 C32.8206649,32.9523347 32.648,33.3559973 32.648,33.888 Z M45.479,32.096 C46.0530029,32.6280027 46.34,33.3093292 46.34,34.14 C46.34,34.9706708 46.0623361,35.6543306 45.507,36.191 C44.9516639,36.7276693 44.109339,36.996 42.98,36.996 L41.104,36.996 L41.104,41 L39.83,41 L39.83,31.298 L42.98,31.298 C44.0720055,31.298 44.9049971,31.5639973 45.479,32.096 Z M41.104,35.988 L42.98,35.988 C43.6800035,35.988 44.2003316,35.8270016 44.541,35.505 C44.8816684,35.1829984 45.052,34.7326696 45.052,34.154 C45.052,32.9313272 44.3613402,32.32 42.98,32.32 L41.104,32.32 L41.104,35.988 Z M54.614,41 L53.858,38.872 L49.546,38.872 L48.79,41 L47.488,41 L51.016,31.298 L52.416,31.298 L55.93,41 L54.614,41 Z M49.91,37.864 L53.494,37.864 L51.702,32.852 L49.91,37.864 Z M63.245,32.096 C63.8190029,32.6280027 64.106,33.3093292 64.106,34.14 C64.106,34.9706708 63.8283361,35.6543306 63.273,36.191 C62.7176639,36.7276693 61.875339,36.996 60.746,36.996 L58.87,36.996 L58.87,41 L57.596,41 L57.596,31.298 L60.746,31.298 C61.8380055,31.298 62.6709971,31.5639973 63.245,32.096 Z M58.87,35.988 L60.746,35.988 C61.4460035,35.988 61.9663316,35.8270016 62.307,35.505 C62.6476684,35.1829984 62.818,34.7326696 62.818,34.154 C62.818,32.9313272 62.1273402,32.32 60.746,32.32 L58.87,32.32 L58.87,35.988 Z M70.826,31.298 L70.826,32.306 L66.962,32.306 L66.962,35.61 L70.406,35.61 L70.406,36.604 L66.962,36.604 L66.962,39.992 L70.826,39.992 L70.826,41 L65.688,41 L65.688,31.298 L70.826,31.298 Z M74.032,36.996 L74.032,41 L72.758,41 L72.758,31.298 L75.908,31.298 C77.0000055,31.298 77.8329971,31.5639973 78.407,32.096 C78.9810029,32.6280027 79.268,33.2789961 79.268,34.049 C79.268,34.8190038 79.0580021,35.4606641 78.638,35.974 C78.2179979,36.4873359 77.5880042,36.8093327 76.748,36.94 L79.422,41 L77.826,41 L75.278,36.996 L74.032,36.996 Z M74.032,32.32 L74.032,35.988 L75.908,35.988 C76.6080035,35.988 77.1283316,35.8270016 77.469,35.505 C77.8096684,35.1829984 77.98,34.7326696 77.98,34.154 C77.98,32.9313272 77.2893402,32.32 75.908,32.32 L74.032,32.32 Z M80.892,40.062 L82.194,40.062 C82.660669,42.0220098 82.2406732,43.002 80.934,43.002 L80.934,42.386 C81.1673345,42.386 81.3376661,42.3300006 81.445,42.218 C81.5523339,42.1059994 81.606,41.9286679 81.606,41.686 L81.606,41.364 L80.892,41.364 L80.892,40.062 Z M98.098,31.298 L98.098,41 L96.81,41 L96.81,33.93 L93.562,41 L92.736,41 L89.474,33.93 L89.474,41 L88.2,41 L88.2,31.298 L89.502,31.298 L93.156,39.25 L96.796,31.298 L98.098,31.298 Z M106.89,41 L106.134,38.872 L101.822,38.872 L101.066,41 L99.764,41 L103.292,31.298 L104.692,31.298 L108.206,41 L106.89,41 Z M102.186,37.864 L105.77,37.864 L103.978,32.852 L102.186,37.864 Z M110.796,39.684 C109.843995,38.750662 109.368,37.5676738 109.368,36.135 C109.368,34.7023262 109.843995,33.5216713 110.796,32.593 C111.748005,31.6643287 112.919326,31.2 114.31,31.2 C115.318005,31.2 116.216329,31.4379976 117.005,31.914 C117.793671,32.3900024 118.374665,33.0759955 118.748,33.972 L117.208,33.972 C116.62933,32.8799945 115.66334,32.334 114.31,32.334 C113.255328,32.334 112.385003,32.6816632 111.699,33.377 C111.012997,34.0723368 110.67,34.9939943 110.67,36.142 C110.67,37.2900057 111.012997,38.2139965 111.699,38.914 C112.385003,39.6140035 113.238995,39.964 114.261,39.964 C115.283005,39.964 116.10433,39.6746696 116.725,39.096 C117.34567,38.5173304 117.707333,37.7333383 117.81,36.744 L113.806,36.744 L113.806,35.736 L119.154,35.736 L119.154,36.744 C119.023333,37.9946729 118.505338,39.0306626 117.6,39.852 C116.694662,40.6733374 115.57234,41.084 114.233,41.084 C112.89366,41.084 111.748005,40.617338 110.796,39.684 Z M127.442,41 L126.686,38.872 L122.374,38.872 L121.618,41 L120.316,41 L123.844,31.298 L125.244,31.298 L128.758,41 L127.442,41 Z M122.738,37.864 L126.322,37.864 L124.53,32.852 L122.738,37.864 Z M136.262,31.298 L136.262,32.32 L131.544,39.992 L136.262,39.992 L136.262,41 L130.074,41 L130.074,39.992 L134.806,32.32 L130.074,32.32 L130.074,31.298 L136.262,31.298 Z M138.012,41 L138.012,31.298 L139.286,31.298 L139.286,41 L138.012,41 Z M147.784,31.298 L149.058,31.298 L149.058,41 L147.784,41 L142.66,33.3 L142.66,41 L141.386,41 L141.386,31.298 L142.66,31.298 L147.784,38.998 L147.784,31.298 Z M156.296,31.298 L156.296,32.306 L152.432,32.306 L152.432,35.61 L155.876,35.61 L155.876,36.604 L152.432,36.604 L152.432,39.992 L156.296,39.992 L156.296,41 L151.158,41 L151.158,31.298 L156.296,31.298 Z" id="Newspaper,-Magazine" fill="#111111"></path>
                <circle id="Oval" fill="#105EFB" cx="4.5" cy="16.5" r="4.5"></circle>
            </g>
        </g>
    </g>
</svg>