<?xml version="1.0" encoding="UTF-8"?>
<svg width="270px" height="90px" viewBox="0 0 270 90" version="1.1" xmlns="http://www.w3.org/2000/svg" xmlns:xlink="http://www.w3.org/1999/xlink">
    <!-- Generator: Sketch 48.2 (47327) - http://www.bohemiancoding.com/sketch -->
    <title>logo</title>
    <desc>Created with Sketch.</desc>
    <defs></defs>
    <g id="Page-1" stroke="none" stroke-width="1" fill="none" fill-rule="evenodd">
        <g id="logo">
            <g id="Group" transform="translate(16.000000, 17.000000)">
                <path d="M61.4511719,17.7246094 C63.0446043,15.4329313 64.499261,13.4008878 65.8151855,11.628418 C67.1311101,9.85594817 68.34407,8.31177416 69.4541016,6.99584961 C70.5641332,5.67992506 71.5980584,4.57438599 72.5559082,3.67919922 C73.513758,2.78401245 74.4447383,2.06339791 75.348877,1.51733398 C76.2530156,0.971270056 77.1526648,0.581869653 78.0478516,0.349121094 C78.9430383,0.116372534 79.8829703,0 80.8676758,0 C83.2130651,0 84.3857422,0.751945605 84.3857422,2.25585938 C84.3857422,2.45280046 84.3678387,2.68554553 84.3320312,2.95410156 C84.2962238,3.22265759 84.2290858,3.48225786 84.1306152,3.73291016 C84.0321447,3.98356245 83.8933928,4.19840405 83.7143555,4.37744141 C83.5353181,4.55647876 83.3115248,4.64599609 83.0429688,4.64599609 C82.8460277,4.64599609 82.6177585,4.54752703 82.3581543,4.35058594 C82.0985501,4.15364485 81.7986671,3.93432738 81.4584961,3.69262695 C81.1183251,3.45092653 80.7244489,3.22713319 80.2768555,3.02124023 C79.8292621,2.81534728 79.327965,2.71240234 78.7729492,2.71240234 C78.1642222,2.71240234 77.4704629,2.96305088 76.6916504,3.46435547 C75.9128379,3.96566006 75.071375,4.6459918 74.1672363,5.50537109 C73.2630977,6.36475039 72.3231657,7.36286866 71.3474121,8.49975586 C70.3716585,9.63664305 69.382492,10.8406512 68.3798828,12.1118164 C71.0654431,18.2348939 73.4331766,23.5432718 75.4831543,28.0371094 C77.533132,32.5309469 79.4040443,36.2503922 81.0959473,39.1955566 C82.7878503,42.1407211 84.3499277,44.3294199 85.7822266,45.7617188 C87.2145254,47.1940176 88.6557545,47.9101562 90.105957,47.9101562 C90.3566093,47.9101562 90.6072579,47.8743493 90.8579102,47.8027344 C91.1085625,47.7311194 91.3323558,47.6505538 91.5292969,47.5610352 C91.7620454,47.4715165 91.9947905,47.3551439 92.2275391,47.2119141 L92.7915039,48.2592773 C92.4871404,48.4383147 92.0708848,48.6531563 91.5427246,48.9038086 C91.0145644,49.1544609 90.3879431,49.3916818 89.6628418,49.6154785 C88.9377405,49.8392752 88.1365604,50.0317375 87.2592773,50.1928711 C86.3819943,50.3540047 85.4420623,50.4345703 84.4394531,50.4345703 C83.0608655,50.4345703 81.7807676,50.2197287 80.5991211,49.7900391 C79.4174746,49.3603494 78.2671768,48.6665901 77.1481934,47.7087402 C76.0292099,46.7508904 74.9281467,45.4976477 73.8449707,43.9489746 C72.7617947,42.4003015 71.6338763,40.5070099 70.4611816,38.269043 C69.288487,36.031076 68.0486719,33.4261216 66.7416992,30.4541016 C65.4347265,27.4820815 64.0114009,24.0804228 62.4716797,20.2490234 L61.4511719,21.7797852 L61.4511719,38.3496094 C61.4511719,39.728197 61.0886267,40.7307911 60.3635254,41.3574219 C59.6384241,41.9840526 58.532885,42.2973633 57.046875,42.2973633 C55.5429612,42.2973633 54.4329463,41.9840526 53.7167969,41.3574219 C53.0006475,40.7307911 52.6425781,39.728197 52.6425781,38.3496094 L52.6425781,6.015625 C52.6425781,5.62174282 52.5978195,5.30843215 52.5083008,5.07568359 C52.4187821,4.84293503 52.2934578,4.6594245 52.1323242,4.52514648 C51.9711906,4.39086847 51.7787283,4.30135114 51.5549316,4.2565918 C51.3311349,4.21183246 51.0849623,4.18945312 50.8164062,4.18945312 C50.4225241,4.18945312 49.9346546,4.25211526 49.3527832,4.37744141 C48.7709118,4.50276755 48.1577181,4.69075396 47.5131836,4.94140625 C46.8686491,5.19205854 46.2196484,5.50089335 45.5661621,5.86791992 C44.9126758,6.2349465 44.3308131,6.6512021 43.8205566,7.11669922 C43.3103002,7.58219634 42.8940446,8.10139688 42.5717773,8.67431641 C42.2495101,9.24723594 42.0883789,9.86490554 42.0883789,10.5273438 C42.0883789,11.1002633 42.1644686,11.5568017 42.3166504,11.8969727 C42.4688321,12.2371436 42.6433909,12.492268 42.840332,12.6623535 C43.0372731,12.832439 43.2386871,12.9398598 43.4445801,12.9846191 C43.650473,13.0293785 43.7981766,13.0517578 43.8876953,13.0517578 C44.3352887,13.0517578 44.7023098,12.9756681 44.9887695,12.8234863 C45.2752293,12.6713046 45.5348296,12.5101734 45.7675781,12.3400879 C46.0003267,12.1700024 46.2196442,12.0088712 46.4255371,11.8566895 C46.6314301,11.7045077 46.868651,11.628418 47.137207,11.628418 C47.3520519,11.628418 47.5803211,11.6776525 47.8220215,11.776123 C48.0637219,11.8745936 48.2875152,12.0312489 48.4934082,12.2460938 C48.6993012,12.4609386 48.87386,12.7429182 49.0170898,13.092041 C49.1603197,13.4411639 49.2319336,13.8663712 49.2319336,14.3676758 C49.2319336,15.0838252 49.0931817,15.7014948 48.8156738,16.2207031 C48.5381659,16.7399115 48.1800966,17.1740705 47.7414551,17.5231934 C47.3028136,17.8723162 46.8015165,18.1319165 46.2375488,18.302002 C45.6735812,18.4720874 45.1140978,18.5571289 44.559082,18.5571289 C43.6997027,18.5571289 42.9253778,18.4094253 42.236084,18.1140137 C41.5467902,17.818602 40.9604516,17.4112982 40.4770508,16.8920898 C39.9936499,16.3728815 39.6266289,15.7641636 39.3759766,15.065918 C39.1253243,14.3676723 39,13.6246784 39,12.8369141 C39,11.6015563 39.2237933,10.469162 39.6713867,9.43969727 C40.1189801,8.41023248 40.7321738,7.48372808 41.5109863,6.66015625 C42.2897988,5.83658442 43.2028756,5.11596989 44.2502441,4.49829102 C45.2976127,3.88061215 46.4300069,3.36588748 47.6474609,2.95410156 C48.8649149,2.54231565 50.1360611,2.23348085 51.4609375,2.02758789 C52.7858139,1.82169493 54.1106705,1.71875 55.4355469,1.71875 C56.9036532,1.71875 58.0449992,1.85750187 58.8596191,2.13500977 C59.6742391,2.41251766 60.2740052,2.74820767 60.6589355,3.14208984 C61.0438659,3.53597202 61.2721351,3.94775176 61.34375,4.37744141 C61.4153649,4.80713105 61.4511719,5.16520039 61.4511719,5.45166016 L61.4511719,17.7246094 Z M79.5839844,28.1176758 C79.5839844,25.7722865 79.9241502,23.7178636 80.6044922,21.9543457 C81.2848341,20.1908278 82.1934351,18.7182676 83.3303223,17.5366211 C84.4672095,16.3549746 85.7875901,15.468753 87.2915039,14.8779297 C88.7954177,14.2871064 90.3709228,13.9916992 92.0180664,13.9916992 C93.6652101,13.9916992 95.2407151,14.2647271 96.7446289,14.810791 C98.2485427,15.3568549 99.5689234,16.193842 100.705811,17.3217773 C101.842698,18.4497127 102.751299,19.8775141 103.431641,21.6052246 C104.111983,23.3329351 104.452148,25.3784062 104.452148,27.7416992 C104.452148,30.0870885 104.111983,32.1638907 103.431641,33.972168 C102.751299,35.7804452 101.842698,37.3022399 100.705811,38.5375977 C99.5689234,39.7729554 98.2485427,40.7084115 96.7446289,41.3439941 C95.2407151,41.9795767 93.6652101,42.2973633 92.0180664,42.2973633 C90.3709228,42.2973633 88.7954177,41.9974802 87.2915039,41.3977051 C85.7875901,40.7979299 84.4672095,39.9072325 83.3303223,38.7255859 C82.1934351,37.5439394 81.2848341,36.0669034 80.6044922,34.2944336 C79.9241502,32.5219638 79.5839844,30.4630651 79.5839844,28.1176758 Z M96.1000977,27.8491211 C96.1000977,26.4168223 96.0508631,25.0337795 95.9523926,23.6999512 C95.853922,22.3661229 95.6614598,21.1800182 95.375,20.1416016 C95.0885402,19.1031849 94.6767605,18.2751496 94.1396484,17.6574707 C93.6025364,17.0397918 92.8953494,16.730957 92.0180664,16.730957 C91.1407834,16.730957 90.4335964,17.0576953 89.8964844,17.7111816 C89.3593723,18.364668 88.9475926,19.2240344 88.6611328,20.2893066 C88.374673,21.3545789 88.1866866,22.5675388 88.097168,23.9282227 C88.0076493,25.2889065 87.9628906,26.685377 87.9628906,28.1176758 C87.9628906,29.5499746 88.0076493,30.9509209 88.097168,32.3205566 C88.1866866,33.6901924 88.374673,34.912104 88.6611328,35.9863281 C88.9475926,37.0605522 89.3593723,37.9243945 89.8964844,38.5778809 C90.4335964,39.2313672 91.1407834,39.5581055 92.0180664,39.5581055 C92.8953494,39.5581055 93.6025364,39.2179396 94.1396484,38.5375977 C94.6767605,37.8572557 95.0885402,36.9620824 95.375,35.8520508 C95.6614598,34.7420192 95.853922,33.4887765 95.9523926,32.0922852 C96.0508631,30.6957938 96.1000977,29.2814199 96.1000977,27.8491211 Z M113.272461,39.5043945 C113.272461,39.7371431 113.232178,40.0146468 113.151611,40.3369141 C113.071045,40.6591813 112.883058,40.9635402 112.587646,41.25 C112.292235,41.5364598 111.862552,41.7826324 111.298584,41.9885254 C110.734616,42.1944183 109.978195,42.2973633 109.029297,42.2973633 C108.080399,42.2973633 107.337405,42.1854666 106.800293,41.9616699 C106.263181,41.7378732 105.864829,41.4737971 105.605225,41.1694336 C105.34562,40.8650701 105.184489,40.5517594 105.121826,40.2294922 C105.059163,39.907225 105.027832,39.6476247 105.027832,39.4506836 L105.027832,4.80712891 C105.027832,4.28792058 104.906984,3.83585804 104.665283,3.45092773 C104.423583,3.06599742 104.016279,2.87353516 103.443359,2.87353516 C103.138996,2.87353516 102.87492,2.92276969 102.651123,3.02124023 C102.427326,3.11971078 102.190105,3.26741438 101.939453,3.46435547 L101.402344,2.81982422 C101.81413,2.47965325 102.270668,2.14396324 102.771973,1.81274414 C103.273277,1.48152504 103.823809,1.1905937 104.423584,0.939941406 C105.023359,0.689289111 105.663408,0.483399243 106.34375,0.322265625 C107.024092,0.161132007 107.740231,0.0805664062 108.492188,0.0805664062 C109.65593,0.0805664062 110.560055,0.237221741 111.20459,0.550537109 C111.849124,0.863852478 112.323566,1.24877701 112.62793,1.70532227 C112.932293,2.16186752 113.115804,2.64526112 113.178467,3.15551758 C113.24113,3.66577404 113.272461,4.11783657 113.272461,4.51171875 L113.272461,39.5043945 Z M123.575195,54.4091797 C124.882168,54.4091797 126.10408,54.064538 127.240967,53.3752441 C128.377854,52.6859503 129.452062,51.7370666 130.463623,50.5285645 C131.475184,49.3200623 132.43302,47.8833091 133.337158,46.2182617 C134.241297,44.5532143 135.096187,42.7539159 135.901855,40.8203125 C133.950348,34.3749678 131.972015,28.6010997 129.966797,23.4985352 C127.961579,18.3959706 126.010101,14.0722833 124.112305,10.5273438 C123.127599,8.6295478 122.102626,7.20174633 121.037354,6.24389648 C119.972081,5.28604664 118.965011,4.80712891 118.016113,4.80712891 C117.443194,4.80712891 116.932945,4.92797731 116.485352,5.16967773 C116.037758,5.41137816 115.652834,5.6754543 115.330566,5.96191406 L114.65918,5.12939453 C115.035158,4.75341609 115.500648,4.36849155 116.055664,3.97460938 C116.61068,3.5807272 117.255205,3.21370613 117.989258,2.87353516 C118.723311,2.53336418 119.551346,2.25586045 120.473389,2.04101562 C121.395431,1.8261708 122.411453,1.71875 123.521484,1.71875 C124.0765,1.71875 124.69417,1.76798453 125.374512,1.86645508 C126.054854,1.96492562 126.748613,2.16186376 127.455811,2.45727539 C128.163008,2.75268702 128.865719,3.16446676 129.563965,3.69262695 C130.262211,4.22078715 130.924639,4.92349822 131.55127,5.80078125 C132.929857,7.73438467 134.38899,10.4601875 135.928711,13.9782715 C137.468432,17.4963555 139.106599,21.7708082 140.843262,26.8017578 C141.398278,25.1367104 141.944333,23.4761639 142.481445,21.8200684 C143.018557,20.1639728 143.564613,18.5526608 144.119629,16.986084 C144.674645,15.4195071 145.234128,13.9111401 145.798096,12.4609375 C146.362063,11.0107349 146.948402,9.65007146 147.557129,8.37890625 C148.18376,7.0361261 148.823809,5.85002142 149.477295,4.82055664 C150.130781,3.79109186 150.84692,2.92724958 151.625732,2.22900391 C152.404545,1.53075823 153.277339,0.99813009 154.244141,0.631103516 C155.210942,0.264076941 156.320957,0.0805664062 157.574219,0.0805664062 C158.505213,0.0805664062 159.26611,0.281980408 159.856934,0.684814453 C160.447757,1.0876485 160.743164,1.6918905 160.743164,2.49755859 C160.743164,3.21370801 160.626792,3.80452241 160.394043,4.27001953 C160.161294,4.73551665 159.839032,4.96826172 159.427246,4.96826172 C159.087075,4.96826172 158.822999,4.83846158 158.63501,4.57885742 C158.447021,4.31925326 158.259034,4.03727366 158.071045,3.73291016 C157.883056,3.42854666 157.659262,3.14656705 157.399658,2.88696289 C157.140054,2.62735873 156.768557,2.49755859 156.285156,2.49755859 C155.193028,2.49755859 154.185958,2.99885566 153.263916,4.00146484 C152.341874,5.00407402 151.473556,6.3647375 150.658936,8.08349609 C149.844316,9.80225469 149.056563,11.8119188 148.295654,14.1125488 C147.534746,16.4131788 146.769372,18.8525262 145.999512,21.4306641 C145.229651,24.008802 144.423995,26.6629909 143.58252,29.3933105 C142.741044,32.1236302 141.836919,34.7778191 140.870117,37.355957 C139.903315,39.9340949 138.842535,42.3734423 137.687744,44.6740723 C136.532953,46.9747023 135.248379,48.9843664 133.833984,50.703125 C132.419589,52.4218836 130.853036,53.7825471 129.134277,54.7851563 C127.415519,55.7877654 125.5088,56.2890625 123.414062,56.2890625 C122.500972,56.2890625 121.619226,56.2129728 120.768799,56.060791 C119.918371,55.9086093 119.157474,55.6982435 118.486084,55.4296875 C117.814694,55.1611315 117.259686,54.8388691 116.821045,54.4628906 C116.382403,54.0869122 116.136231,53.6840842 116.08252,53.2543945 C116.046712,52.9321273 116.06014,52.605389 116.122803,52.2741699 C116.185466,51.9429508 116.288411,51.6430677 116.431641,51.3745117 C116.574871,51.1059557 116.767333,50.8821624 117.009033,50.703125 C117.250734,50.5240876 117.532713,50.4345703 117.85498,50.4345703 C118.051922,50.4345703 118.235432,50.5330394 118.405518,50.7299805 C118.575603,50.9269216 118.759114,51.1730942 118.956055,51.4685059 C119.152996,51.7639175 119.372313,52.081704 119.614014,52.421875 C119.855714,52.762046 120.155597,53.0798325 120.513672,53.3752441 C120.871747,53.6706558 121.296954,53.9168284 121.789307,54.1137695 C122.281659,54.3107106 122.87695,54.4091797 123.575195,54.4091797 Z M145.360352,28.1176758 C145.360352,25.7722865 145.700517,23.7178636 146.380859,21.9543457 C147.061201,20.1908278 147.969802,18.7182676 149.106689,17.5366211 C150.243577,16.3549746 151.563957,15.468753 153.067871,14.8779297 C154.571785,14.2871064 156.14729,13.9916992 157.794434,13.9916992 C159.441577,13.9916992 161.017082,14.2647271 162.520996,14.810791 C164.02491,15.3568549 165.345291,16.193842 166.482178,17.3217773 C167.619065,18.4497127 168.527666,19.8775141 169.208008,21.6052246 C169.88835,23.3329351 170.228516,25.3784062 170.228516,27.7416992 C170.228516,30.0870885 169.88835,32.1638907 169.208008,33.972168 C168.527666,35.7804452 167.619065,37.3022399 166.482178,38.5375977 C165.345291,39.7729554 164.02491,40.7084115 162.520996,41.3439941 C161.017082,41.9795767 159.441577,42.2973633 157.794434,42.2973633 C156.14729,42.2973633 154.571785,41.9974802 153.067871,41.3977051 C151.563957,40.7979299 150.243577,39.9072325 149.106689,38.7255859 C147.969802,37.5439394 147.061201,36.0669034 146.380859,34.2944336 C145.700517,32.5219638 145.360352,30.4630651 145.360352,28.1176758 Z M161.876465,27.8491211 C161.876465,26.4168223 161.82723,25.0337795 161.72876,23.6999512 C161.630289,22.3661229 161.437827,21.1800182 161.151367,20.1416016 C160.864907,19.1031849 160.453128,18.2751496 159.916016,17.6574707 C159.378904,17.0397918 158.671717,16.730957 157.794434,16.730957 C156.917151,16.730957 156.209964,17.0576953 155.672852,17.7111816 C155.13574,18.364668 154.72396,19.2240344 154.4375,20.2893066 C154.15104,21.3545789 153.963054,22.5675388 153.873535,23.9282227 C153.784016,25.2889065 153.739258,26.685377 153.739258,28.1176758 C153.739258,29.5499746 153.784016,30.9509209 153.873535,32.3205566 C153.963054,33.6901924 154.15104,34.912104 154.4375,35.9863281 C154.72396,37.0605522 155.13574,37.9243945 155.672852,38.5778809 C156.209964,39.2313672 156.917151,39.5581055 157.794434,39.5581055 C158.671717,39.5581055 159.378904,39.2179396 159.916016,38.5375977 C160.453128,37.8572557 160.864907,36.9620824 161.151367,35.8520508 C161.437827,34.7420192 161.630289,33.4887765 161.72876,32.0922852 C161.82723,30.6957938 161.876465,29.2814199 161.876465,27.8491211 Z M194.222168,37.1948242 C194.222168,37.3559578 194.23112,37.5305166 194.249023,37.7185059 C194.266927,37.9064951 194.311686,38.0855297 194.383301,38.2556152 C194.454916,38.4257007 194.562337,38.5644526 194.705566,38.671875 C194.848796,38.7792974 195.054686,38.8330078 195.323242,38.8330078 C195.663413,38.8330078 195.967772,38.7121594 196.236328,38.470459 C196.504884,38.2287586 196.755533,37.9825859 196.988281,37.7319336 L197.632812,38.2958984 C197.364256,38.6718769 197.028566,39.0881325 196.625732,39.5446777 C196.222898,40.001223 195.735029,40.4353821 195.162109,40.847168 C194.58919,41.2589539 193.935713,41.6035956 193.20166,41.8811035 C192.467607,42.1586114 191.635096,42.2973633 190.704102,42.2973633 C189.916337,42.2973633 189.23153,42.1944183 188.649658,41.9885254 C188.067787,41.7826324 187.575441,41.5051287 187.172607,41.1560059 C186.769773,40.806883 186.46989,40.3951033 186.272949,39.9206543 C186.076008,39.4462053 185.977539,38.9404324 185.977539,38.4033203 L185.977539,37.1948242 C185.082352,38.1616259 184.14242,39.0120406 183.157715,39.7460938 C182.728025,40.068361 182.271487,40.3816717 181.788086,40.6860352 C181.304685,40.9903987 180.803388,41.2634265 180.28418,41.505127 C179.764971,41.7468274 179.227867,41.9392896 178.672852,42.0825195 C178.117836,42.2257494 177.562828,42.2973633 177.007812,42.2973633 C175.933588,42.2973633 175.016036,42.104901 174.255127,41.7199707 C173.494218,41.3350404 172.881024,40.8292675 172.415527,40.2026367 C171.95003,39.576006 171.609864,38.868819 171.39502,38.0810547 C171.180175,37.2932903 171.072754,36.5055378 171.072754,35.7177734 L171.072754,19.0942383 C171.072754,18.9331047 171.063802,18.7585459 171.045898,18.5705566 C171.027995,18.3825674 170.983236,18.2035328 170.911621,18.0334473 C170.840006,17.8633618 170.732585,17.7246099 170.589355,17.6171875 C170.446126,17.5097651 170.240236,17.4560547 169.97168,17.4560547 C169.649412,17.4560547 169.349529,17.5769031 169.072021,17.8186035 C168.794514,18.0603039 168.548341,18.3064766 168.333496,18.5571289 L167.662109,17.9931641 C167.930665,17.6171856 168.266355,17.20093 168.669189,16.7443848 C169.072023,16.2878395 169.559893,15.8536804 170.132812,15.4418945 C170.705732,15.0301086 171.363684,14.6854669 172.106689,14.407959 C172.849694,14.1304511 173.67773,13.9916992 174.59082,13.9916992 C175.378585,13.9916992 176.067868,14.0946442 176.658691,14.3005371 C177.249515,14.5064301 177.74186,14.7839338 178.135742,15.1330566 C178.529624,15.4821795 178.825032,15.8939592 179.021973,16.3684082 C179.218914,16.8428572 179.317383,17.3486301 179.317383,17.8857422 L179.317383,35.8251953 C179.317383,36.0758476 179.357666,36.330972 179.438232,36.5905762 C179.518799,36.8501803 179.635172,37.0874013 179.787354,37.3022461 C179.939535,37.5170909 180.131998,37.6916497 180.364746,37.8259277 C180.597495,37.9602057 180.874998,38.0273438 181.197266,38.0273438 C181.716474,38.0273438 182.235674,37.8930677 182.754883,37.6245117 C183.274091,37.3559557 183.748533,37.0381692 184.178223,36.6711426 C184.607912,36.304116 184.979409,35.9415708 185.292725,35.5834961 C185.60604,35.2254214 185.834309,34.9568694 185.977539,34.777832 L185.977539,19.0942383 C185.977539,18.9331047 185.968587,18.7585459 185.950684,18.5705566 C185.93278,18.3825674 185.888021,18.2035328 185.816406,18.0334473 C185.744791,17.8633618 185.637371,17.7246099 185.494141,17.6171875 C185.350911,17.5097651 185.145021,17.4560547 184.876465,17.4560547 C184.554198,17.4560547 184.254315,17.5769031 183.976807,17.8186035 C183.699299,18.0603039 183.453126,18.3064766 183.238281,18.5571289 L182.566895,17.9931641 C182.835451,17.6171856 183.171141,17.20093 183.573975,16.7443848 C183.976809,16.2878395 184.464678,15.8536804 185.037598,15.4418945 C185.610517,15.0301086 186.26847,14.6854669 187.011475,14.407959 C187.75448,14.1304511 188.582515,13.9916992 189.495605,13.9916992 C190.28337,13.9916992 190.972653,14.0946442 191.563477,14.3005371 C192.1543,14.5064301 192.646645,14.7839338 193.040527,15.1330566 C193.43441,15.4821795 193.729817,15.8939592 193.926758,16.3684082 C194.123699,16.8428572 194.222168,17.3486301 194.222168,17.8857422 L194.222168,37.1948242 Z M220.719727,39.5043945 C220.719727,39.7371431 220.68392,40.0146468 220.612305,40.3369141 C220.54069,40.6591813 220.366131,40.9635402 220.088623,41.25 C219.811115,41.5364598 219.39486,41.7826324 218.839844,41.9885254 C218.284828,42.1944183 217.532882,42.2973633 216.583984,42.2973633 C215.635086,42.2973633 214.887617,42.1854666 214.341553,41.9616699 C213.795489,41.7378732 213.383709,41.4737971 213.106201,41.1694336 C212.828693,40.8650701 212.654134,40.5517594 212.58252,40.2294922 C212.510905,39.907225 212.475098,39.6476247 212.475098,39.4506836 L212.475098,20.4638672 C212.475098,20.2132149 212.439291,19.9580905 212.367676,19.6984863 C212.296061,19.4388822 212.18864,19.2016612 212.04541,18.9868164 C211.90218,18.7719716 211.723146,18.5974128 211.508301,18.4631348 C211.293456,18.3288568 211.042807,18.2617188 210.756348,18.2617188 C210.272947,18.2617188 209.798505,18.4004706 209.333008,18.6779785 C208.867511,18.9554864 208.433352,19.2732729 208.030518,19.6313477 C207.627684,19.9894224 207.278566,20.3474917 206.983154,20.7055664 C206.687743,21.0636411 206.477377,21.3321931 206.352051,21.5112305 L206.352051,39.5043945 C206.352051,39.7371431 206.316244,40.0146468 206.244629,40.3369141 C206.173014,40.6591813 205.998455,40.9635402 205.720947,41.25 C205.443439,41.5364598 205.03166,41.7826324 204.485596,41.9885254 C203.939532,42.1944183 203.192062,42.2973633 202.243164,42.2973633 C201.294266,42.2973633 200.546796,42.1854666 200.000732,41.9616699 C199.454668,41.7378732 199.038413,41.4737971 198.751953,41.1694336 C198.465493,40.8650701 198.286459,40.5517594 198.214844,40.2294922 C198.143229,39.907225 198.107422,39.6476247 198.107422,39.4506836 L198.107422,18.7182617 C198.107422,18.1990534 197.986573,17.7469909 197.744873,17.3620605 C197.503173,16.9771302 197.095869,16.784668 196.522949,16.784668 C196.218586,16.784668 195.958985,16.8383784 195.744141,16.9458008 C195.529296,17.0532232 195.296551,17.2054027 195.045898,17.4023438 L194.481934,16.730957 C194.89372,16.3907861 195.354734,16.0550961 195.86499,15.723877 C196.375247,15.3926578 196.925778,15.1017265 197.516602,14.8510742 C198.107425,14.6004219 198.742998,14.3945321 199.42334,14.2333984 C200.103682,14.0722648 200.81982,13.9916992 201.571777,13.9916992 C202.73552,13.9916992 203.639645,14.1841615 204.28418,14.5690918 C204.928714,14.9540221 205.403156,15.4150364 205.70752,15.9521484 C206.011883,16.4892605 206.195394,17.0487438 206.258057,17.6306152 C206.32072,18.2124866 206.352051,18.7003561 206.352051,19.0942383 C207.193526,18.1453403 208.097651,17.2949256 209.064453,16.5429688 C209.458335,16.2207015 209.892494,15.9073908 210.366943,15.6030273 C210.841392,15.2986638 211.329262,15.025636 211.830566,14.7839355 C212.331871,14.5422351 212.851072,14.3497729 213.388184,14.206543 C213.925296,14.0633131 214.4624,13.9916992 214.999512,13.9916992 C216.037928,13.9916992 216.92415,14.1796856 217.658203,14.5556641 C218.392256,14.9316425 218.983071,15.383705 219.430664,15.9118652 C219.878257,16.4400254 220.204996,16.9950329 220.410889,17.5769043 C220.616782,18.1587757 220.719727,18.6645486 220.719727,19.0942383 C221.579106,18.1453403 222.483231,17.2949256 223.432129,16.5429688 C223.826011,16.2207015 224.255694,15.9073908 224.721191,15.6030273 C225.186689,15.2986638 225.674558,15.025636 226.184814,14.7839355 C226.695071,14.5422351 227.214271,14.3497729 227.742432,14.206543 C228.270592,14.0633131 228.80322,13.9916992 229.340332,13.9916992 C230.378749,13.9916992 231.26497,14.1841615 231.999023,14.5690918 C232.733077,14.9540221 233.323891,15.459795 233.771484,16.0864258 C234.219078,16.7130565 234.545816,17.4202435 234.751709,18.2080078 C234.957602,18.9957722 235.060547,19.7835247 235.060547,20.5712891 L235.060547,37.1948242 C235.060547,37.3559578 235.069499,37.5305166 235.087402,37.7185059 C235.105306,37.9064951 235.150065,38.0855297 235.22168,38.2556152 C235.293295,38.4257007 235.405191,38.5644526 235.557373,38.671875 C235.709555,38.7792974 235.910969,38.8330078 236.161621,38.8330078 C236.501792,38.8330078 236.806151,38.7121594 237.074707,38.470459 C237.343263,38.2287586 237.593912,37.9825859 237.82666,37.7319336 L238.471191,38.2958984 C238.220539,38.6718769 237.889325,39.0881325 237.477539,39.5446777 C237.065753,40.001223 236.577884,40.4353821 236.013916,40.847168 C235.449948,41.2589539 234.796472,41.6035956 234.053467,41.8811035 C233.310462,42.1586114 232.473475,42.2973633 231.54248,42.2973633 C230.754716,42.2973633 230.069909,42.1944183 229.488037,41.9885254 C228.906166,41.7826324 228.41382,41.5051287 228.010986,41.1560059 C227.608152,40.806883 227.308269,40.3951033 227.111328,39.9206543 C226.914387,39.4462053 226.815918,38.9404324 226.815918,38.4033203 L226.815918,20.4638672 C226.815918,20.2132149 226.780111,19.9580905 226.708496,19.6984863 C226.636881,19.4388822 226.533936,19.2016612 226.399658,18.9868164 C226.26538,18.7719716 226.090821,18.5974128 225.875977,18.4631348 C225.661132,18.3288568 225.410483,18.2617188 225.124023,18.2617188 C224.640623,18.2617188 224.161705,18.4004706 223.687256,18.6779785 C223.212807,18.9554864 222.774172,19.2732729 222.371338,19.6313477 C221.968504,19.9894224 221.623862,20.3474917 221.337402,20.7055664 C221.050943,21.0636411 220.845053,21.3321931 220.719727,21.5112305 L220.719727,39.5043945 Z" id="Kol-Youm" fill="#111111"></path>
                <path d="M28.5,17.5 L0,17.5" id="Line" stroke="#111111" stroke-width="2" stroke-linecap="square"></path>
            </g>
        </g>
    </g>
</svg>