<?xml version="1.0" encoding="UTF-8"?>
<svg width="270px" height="90px" viewBox="0 0 270 90" version="1.1" xmlns="http://www.w3.org/2000/svg" xmlns:xlink="http://www.w3.org/1999/xlink">
    <!-- Generator: Sketch 48.2 (47327) - http://www.bohemiancoding.com/sketch -->
    <title>logo</title>
    <desc>Created with Sketch.</desc>
    <defs></defs>
    <g id="Page-1" stroke="none" stroke-width="1" fill="none" fill-rule="evenodd">
        <g id="logo">
            <g id="Group" transform="translate(9.000000, 22.000000)">
                <path d="M67.5996094,40 L54.5625,40 L54.5625,38.7304688 L58.46875,38.7304688 L58.46875,11.9726562 L54.5625,11.9726562 L54.5625,10.703125 L67.5996094,10.703125 L67.5996094,11.9726562 L63.6933594,11.9726562 L63.6933594,24.9609375 L77.9023438,11.9726562 L73.9960938,11.9726562 L73.9960938,10.703125 L82.8828125,10.703125 C82.8828125,10.8658862 82.8665366,11.028645 82.8339844,11.1914062 C82.7688799,11.7122422 82.3619829,11.9726562 81.6132812,11.9726562 C81.320311,11.9726562 81.0273452,12.005208 80.734375,12.0703125 C80.1809868,12.2330737 79.22071,12.9166606 77.8535156,14.1210938 L69.6992188,21.6894531 L82.1015625,38.7304688 L83.078125,38.7304688 C83.2408862,38.7304688 83.403645,38.7467446 83.5664062,38.7792969 C84.0872422,38.8769536 84.3476562,39.2838506 84.3476562,40 L76.5351562,40 L65.890625,25.2050781 L63.6933594,27.2070312 L63.6933594,38.7304688 L66.3300781,38.7304688 C66.4928394,38.7304688 66.6555981,38.7467446 66.8183594,38.7792969 C67.3391953,38.8769536 67.5996094,39.2838506 67.5996094,40 Z M91.28125,29.5019531 C91.28125,30.5761772 91.3300776,31.55273 91.4277344,32.4316406 C91.8834658,36.9889551 93.738916,39.2675781 96.9941406,39.2675781 C100.672544,39.2024736 102.544271,35.8821943 102.609375,29.3066406 C102.609375,28.037103 102.544271,26.8815156 102.414062,25.8398438 C101.860674,21.8033652 100.037776,19.7851562 96.9453125,19.7851562 C93.4947744,20.0455742 91.6067725,23.2844741 91.28125,29.5019531 Z M97.0917969,18.5644531 C99.5006631,18.5644531 101.632803,19.1992124 103.488281,20.46875 C106.352879,22.4869893 107.785156,25.4654751 107.785156,29.4042969 C107.785156,32.333999 106.889983,34.8242085 105.099609,36.875 C102.983713,39.2838662 100.23309,40.4882812 96.8476562,40.4882812 C94.3736855,40.4882812 92.1927178,39.7721426 90.3046875,38.3398438 C87.5051943,36.2565 86.1054688,33.2454624 86.1054688,29.3066406 C86.1054688,26.4745952 86.9680903,24.082041 88.6933594,22.1289062 C90.8092554,19.7525923 93.6087065,18.5644531 97.0917969,18.5644531 Z M121.798828,38.7792969 C121.994142,38.7792969 122.173176,38.7955728 122.335938,38.828125 C122.759117,38.9257817 122.970703,39.3164028 122.970703,40 L110.8125,40 L110.8125,38.7792969 C111.854172,38.7792969 112.635414,38.6979175 113.15625,38.5351562 C114.067713,38.242186 114.523438,37.3795645 114.523438,35.9472656 L114.523438,9.48242188 L110.8125,9.48242188 L110.8125,8.26171875 L119.210938,8.26171875 L119.210938,38.7792969 L121.798828,38.7792969 Z M154.269531,40 L140.988281,40 L140.988281,38.7304688 L144.992188,38.7304688 L144.992188,28.0371094 L135.958984,11.9726562 L133.419922,11.9726562 L133.419922,10.703125 L145.529297,10.703125 L145.529297,11.9726562 L141.818359,11.9726562 L149.337891,25.9375 L156.417969,11.9726562 L152.511719,11.9726562 L152.511719,10.703125 L161.154297,10.703125 C161.154297,10.8658862 161.138021,11.028645 161.105469,11.1914062 C161.007812,11.7122422 160.600915,11.9726562 159.884766,11.9726562 C158.810542,12.0052085 157.94792,12.4609331 157.296875,13.3398438 L150.265625,27.5976562 L150.265625,38.7304688 L152.951172,38.7304688 C153.569665,38.7955732 154.009113,39.2187461 154.269531,40 Z M168.087891,29.5019531 C168.087891,30.5761772 168.136718,31.55273 168.234375,32.4316406 C168.690106,36.9889551 170.545557,39.2675781 173.800781,39.2675781 C177.479185,39.2024736 179.350911,35.8821943 179.416016,29.3066406 C179.416016,28.037103 179.350912,26.8815156 179.220703,25.8398438 C178.667315,21.8033652 176.844417,19.7851562 173.751953,19.7851562 C170.301415,20.0455742 168.413413,23.2844741 168.087891,29.5019531 Z M173.898438,18.5644531 C176.307304,18.5644531 178.439444,19.1992124 180.294922,20.46875 C183.15952,22.4869893 184.591797,25.4654751 184.591797,29.4042969 C184.591797,32.333999 183.696624,34.8242085 181.90625,36.875 C179.790354,39.2838662 177.03973,40.4882812 173.654297,40.4882812 C171.180326,40.4882812 168.999358,39.7721426 167.111328,38.3398438 C164.311835,36.2565 162.912109,33.2454624 162.912109,29.3066406 C162.912109,26.4745952 163.774731,24.082041 165.5,22.1289062 C167.615896,19.7525923 170.415347,18.5644531 173.898438,18.5644531 Z M211.544922,38.7792969 C211.772788,38.7792969 211.968098,38.7955728 212.130859,38.828125 C212.554039,38.8932295 212.765625,39.2838506 212.765625,40 L205.148438,40 L204.806641,35.4101562 C204.51367,36.0937534 204.139325,36.7447886 203.683594,37.3632812 C202.153638,39.446625 200.119153,40.4882812 197.580078,40.4882812 C192.957659,40.455729 190.630208,37.7213813 190.597656,32.2851562 L190.597656,20.3710938 L187.228516,20.3710938 L187.228516,19.1503906 L195.285156,19.1503906 L195.285156,33.0664062 C195.285156,33.5221377 195.317708,33.9778623 195.382812,34.4335938 C195.773439,36.9401167 197.140613,38.1933594 199.484375,38.1933594 C200.265629,38.1933594 201.030595,37.9654971 201.779297,37.5097656 C203.634775,36.370437 204.611328,34.4173315 204.708984,31.6503906 L204.708984,20.3710938 L201.388672,20.3710938 L201.388672,19.1503906 L209.445312,19.1503906 L209.445312,38.7792969 L211.544922,38.7792969 Z M224.875,38.7792969 C225.070313,38.7792969 225.233072,38.7955728 225.363281,38.828125 C225.851565,38.8932295 226.095703,39.2838506 226.095703,40 L215.207031,40 L215.207031,38.7792969 C216.020837,38.7792969 216.655597,38.7141934 217.111328,38.5839844 C218.055343,38.3235664 218.527344,37.4609448 218.527344,35.9960938 L218.527344,20.3710938 L215.207031,20.3710938 L215.207031,19.1503906 L222.921875,19.1503906 L223.166016,23.4960938 C223.393881,23.0078101 223.654295,22.5195337 223.947266,22.03125 C225.444669,19.7200405 227.511706,18.5644531 230.148438,18.5644531 C230.701826,18.5644531 231.271481,18.6621084 231.857422,18.8574219 C233.843109,19.5084668 235.177731,21.0709512 235.861328,23.5449219 C236.056642,23.0891904 236.284504,22.6497417 236.544922,22.2265625 C238.042325,19.785144 240.141914,18.5644531 242.84375,18.5644531 C243.950526,18.5644531 244.992183,18.8411431 245.96875,19.3945312 C248.14975,20.7291733 249.240234,23.056624 249.240234,26.3769531 L249.240234,38.7792969 L251.388672,38.7792969 C251.616538,38.7792969 251.811848,38.7955728 251.974609,38.828125 C252.397789,38.8932295 252.609375,39.2838506 252.609375,40 L241.671875,40 L241.671875,38.7792969 C242.550786,38.7792969 243.185545,38.6979175 243.576172,38.5351562 C244.227217,38.242186 244.552734,37.3958403 244.552734,35.9960938 L244.552734,25.8398438 C244.552734,24.8958286 244.406251,24.033207 244.113281,23.2519531 C243.494789,21.5917886 242.420581,20.7617188 240.890625,20.7617188 C240.369789,20.7617188 239.848961,20.8919258 239.328125,21.1523438 C237.66796,22.0312544 236.626304,23.691394 236.203125,26.1328125 L236.203125,38.7792969 L237.863281,38.7792969 C238.091147,38.7792969 238.286458,38.7955728 238.449219,38.828125 C238.872398,38.8932295 239.083984,39.2838506 239.083984,40 L228.634766,40 L228.634766,38.7792969 C229.481124,38.7792969 230.115883,38.6979175 230.539062,38.5351562 C231.22266,38.242186 231.564453,37.3958403 231.564453,35.9960938 L231.564453,25.8398438 C231.564453,24.8632764 231.434246,24.0006548 231.173828,23.2519531 C230.555335,21.6243408 229.529955,20.8105469 228.097656,20.8105469 C227.479164,20.8105469 226.844404,21.0058574 226.193359,21.3964844 C224.46809,22.5032607 223.491538,24.3749868 223.263672,27.0117188 L223.214844,38.7792969 L224.875,38.7792969 Z" id="Kol-Youm" fill="#111111"></path>
                <g id="icon">
                    <path d="M20.735,45.834 C20.617,45.834 20.499,45.806 20.392,45.751 L9.81,40.311 C9.441,40.122 9.296,39.67 9.486,39.301 C9.676,38.932 10.127,38.788 10.496,38.977 L20.735,44.24 L38.168,35.28 L20.735,26.319 L3.301,35.28 L7.009,37.185 C7.377,37.375 7.522,37.827 7.333,38.195 C7.144,38.564 6.69,38.709 6.323,38.519 L1.318,35.947 C1.068,35.819 0.911,35.561 0.911,35.28 C0.911,34.999 1.068,34.742 1.318,34.613 L20.392,24.808 C20.607,24.697 20.863,24.697 21.078,24.808 L40.151,34.613 C40.401,34.742 40.559,34.999 40.559,35.28 C40.559,35.561 40.401,35.818 40.151,35.947 L21.078,45.751 C20.97,45.806 20.852,45.834 20.735,45.834" id="Fill-590" fill="#111111"></path>
                    <polyline id="Fill-592" fill="#FFFFFF" points="20.735 23.476 30.081 28.28 20.735 33.084 11.386 28.279 20.735 23.476"></polyline>
                    <path d="M3.301,23.28 L20.735,32.24 L38.168,23.28 L20.735,14.319 L3.301,23.28 L3.301,23.28 Z M20.735,33.834 C20.617,33.834 20.499,33.806 20.392,33.751 L1.318,23.947 C1.068,23.818 0.911,23.561 0.911,23.28 C0.911,22.999 1.068,22.742 1.318,22.613 L20.392,12.808 C20.607,12.697 20.863,12.697 21.078,12.808 L40.151,22.613 C40.401,22.742 40.559,22.999 40.559,23.28 C40.559,23.561 40.401,23.818 40.151,23.947 L21.078,33.751 C20.97,33.806 20.852,33.834 20.735,33.834 L20.735,33.834 Z" id="Fill-598" fill="#111111"></path>
                    <polyline id="Fill-600" fill="#FFFFFF" points="20.735 11.476 30.081 16.28 20.735 21.084 11.386 16.279 20.735 11.476"></polyline>
                    <path d="M20.735,21.834 C20.617,21.834 20.499,21.806 20.392,21.751 L1.318,11.947 C1.068,11.818 0.911,11.561 0.911,11.28 C0.911,10.999 1.068,10.742 1.318,10.613 L20.392,0.808 C20.607,0.697 20.863,0.697 21.078,0.808 L33.421,7.153 C33.789,7.342 33.935,7.795 33.745,8.163 C33.556,8.531 33.103,8.678 32.735,8.487 L20.735,2.319 L3.301,11.28 L20.735,20.24 L38.168,11.28 L36.476,10.41 C36.107,10.22 35.962,9.768 36.151,9.4 C36.341,9.032 36.793,8.885 37.161,9.076 L40.151,10.613 C40.401,10.742 40.559,10.999 40.559,11.28 C40.559,11.561 40.401,11.818 40.151,11.947 L21.078,21.751 C20.97,21.806 20.852,21.834 20.735,21.834" id="Fill-606" fill="#111111"></path>
                </g>
            </g>
        </g>
    </g>
</svg>