<?xml version="1.0" encoding="UTF-8"?>
<svg width="270px" height="90px" viewBox="0 0 270 90" version="1.1" xmlns="http://www.w3.org/2000/svg" xmlns:xlink="http://www.w3.org/1999/xlink">
    <!-- Generator: Sketch 48.2 (47327) - http://www.bohemiancoding.com/sketch -->
    <title>logo</title>
    <desc>Created with Sketch.</desc>
    <defs></defs>
    <g id="Page-1" stroke="none" stroke-width="1" fill="none" fill-rule="evenodd">
        <g id="logo">
            <g id="Group-2" transform="translate(26.000000, 23.000000)">
                <path d="M21.0173905,21.5881903 L16.147,21.5881903 L16.147,0.511646744 L21.0173905,0.511646744 L21.0173905,12.3316002 L25.9447446,5.69533719 L32.4955622,5.69533719 L25.6884082,13.8126546 L32.4955622,21.5881903 L26.03019,21.5881903 L21.0173905,15.2367454 L21.0173905,21.5881903 Z M45.2554156,13.6417637 C45.2554156,12.3505816 44.923131,11.3679688 44.258552,10.6938958 C43.593973,10.0198228 42.805984,9.68279137 41.8945613,9.68279137 C40.9831387,9.68279137 40.1998966,10.0198228 39.5448115,10.6938958 C38.8897265,11.3679688 38.5621889,12.3505816 38.5621889,13.6417637 C38.5621889,14.9329458 38.8992203,15.9203056 39.5732933,16.6038726 C40.2473664,17.2874396 41.0401023,17.6292179 41.951525,17.6292179 C42.8629476,17.6292179 43.6414428,17.2874396 44.2870338,16.6038726 C44.9326249,15.9203056 45.2554156,14.9329458 45.2554156,13.6417637 Z M33.606353,13.6132819 C33.606353,11.1638335 34.4038358,9.20335483 35.9988255,7.731787 C37.5938151,6.26021917 39.5685346,5.52444629 41.9230431,5.52444629 C44.2775517,5.52444629 46.2475242,6.26021917 47.8330199,7.731787 C49.4185155,9.20335483 50.2112515,11.1638335 50.2112515,13.6132819 C50.2112515,16.0627303 49.4232625,18.0374498 47.8472608,19.5374996 C46.2712591,21.0375494 44.3060335,21.787563 41.951525,21.787563 C39.5970164,21.787563 37.61755,21.0375494 36.0130664,19.5374996 C34.4085828,18.0374498 33.606353,16.0627303 33.606353,13.6132819 Z M53.3442512,21.5881903 L53.3442512,0.511646744 L58.2146417,0.511646744 L58.2146417,21.5881903 L53.3442512,21.5881903 Z M66.6452591,21.2748903 L60.4647051,5.69533719 L65.9901773,5.69533719 L69.5219225,16.0911999 L73.3954494,5.69533719 L78.4936944,5.69533719 L68.354168,29.1643533 L63.255923,29.1643533 L66.6452591,21.2748903 Z M91.2535478,13.6417637 C91.2535478,12.3505816 90.9212633,11.3679688 90.2566842,10.6938958 C89.5921052,10.0198228 88.8041162,9.68279137 87.8926935,9.68279137 C86.9812709,9.68279137 86.1980288,10.0198228 85.5429438,10.6938958 C84.8878587,11.3679688 84.5603211,12.3505816 84.5603211,13.6417637 C84.5603211,14.9329458 84.8973526,15.9203056 85.5714256,16.6038726 C86.2454986,17.2874396 87.0382345,17.6292179 87.9496572,17.6292179 C88.8610798,17.6292179 89.639575,17.2874396 90.2851661,16.6038726 C90.9307571,15.9203056 91.2535478,14.9329458 91.2535478,13.6417637 Z M79.6044852,13.6132819 C79.6044852,11.1638335 80.4019681,9.20335483 81.9969577,7.731787 C83.5919474,6.26021917 85.5666668,5.52444629 87.9211754,5.52444629 C90.2756839,5.52444629 92.2456564,6.26021917 93.8311521,7.731787 C95.4166478,9.20335483 96.2093837,11.1638335 96.2093837,13.6132819 C96.2093837,16.0627303 95.4213947,18.0374498 93.845393,19.5374996 C92.2693913,21.0375494 90.3041657,21.787563 87.9496572,21.787563 C85.5951486,21.787563 83.6156823,21.0375494 82.0111986,19.5374996 C80.406715,18.0374498 79.6044852,16.0627303 79.6044852,13.6132819 Z M110.136992,5.69533719 L115.007382,5.69533719 L115.007382,21.5881903 L110.136992,21.5881903 L110.136992,19.2526814 C109.130629,20.923623 107.526169,21.7590812 105.323565,21.7590812 C103.500719,21.7590812 102.024427,21.1514752 100.894642,19.936245 C99.764858,18.7210148 99.1999743,17.069086 99.1999743,14.9804091 L99.1999743,5.69533719 L104.041883,5.69533719 L104.041883,14.3253273 C104.041883,15.3506778 104.312458,16.1434137 104.853615,16.7035589 C105.394772,17.2637041 106.140039,17.5437725 107.089437,17.5437725 C108.038836,17.5437725 108.784103,17.2637041 109.32526,16.7035589 C109.866417,16.1434137 110.136992,15.3506778 110.136992,14.3253273 L110.136992,5.69533719 Z M124.150045,5.69533719 L124.150045,8.03084607 C125.156407,6.35990453 126.760867,5.52444629 128.963472,5.52444629 C130.140726,5.52444629 131.189796,5.79027391 132.110712,6.32193713 C133.031629,6.85360035 133.748414,7.61310783 134.261089,8.60048238 C134.849717,7.67007175 135.613971,6.92480503 136.553876,6.36465985 C137.49378,5.80451468 138.54285,5.52444629 139.701116,5.52444629 C141.637889,5.52444629 143.175892,6.12255844 144.31517,7.31880068 C145.454449,8.51504291 146.024079,10.1764655 146.024079,12.3031184 L146.024079,21.5881903 L141.182171,21.5881903 L141.182171,12.9582002 C141.182171,11.9328497 140.911596,11.1401137 140.370439,10.5799686 C139.829282,10.0198234 139.084015,9.739755 138.134616,9.739755 C137.185218,9.739755 136.439951,10.0198234 135.898794,10.5799686 C135.357637,11.1401137 135.087062,11.9328497 135.087062,12.9582002 L135.087062,21.5881903 L130.245153,21.5881903 L130.245153,12.9582002 C130.245153,11.9328497 129.974579,11.1401137 129.433422,10.5799686 C128.892264,10.0198234 128.146998,9.739755 127.197599,9.739755 C126.2482,9.739755 125.502934,10.0198234 124.961777,10.5799686 C124.420619,11.1401137 124.150045,11.9328497 124.150045,12.9582002 L124.150045,21.5881903 L119.279654,21.5881903 L119.279654,5.69533719 L124.150045,5.69533719 Z M152.14767,6.03711897 L152.14767,8.57200056 C153.192008,6.69219133 154.910394,5.75230082 157.302878,5.75230082 C159.030784,5.75230082 160.473848,6.31718451 161.632114,7.44696885 C162.79038,8.57675318 163.369505,10.2049474 163.369505,12.3316002 L163.369505,21.5881903 L161.40426,21.5881903 L161.40426,12.7018638 C161.40426,10.9929463 160.991277,9.69228977 160.165301,8.79985509 C159.339324,7.9074204 158.209557,7.46120975 156.775965,7.46120975 C155.342373,7.46120975 154.212605,7.9074204 153.386629,8.79985509 C152.560652,9.69228977 152.14767,10.9929463 152.14767,12.7018638 L152.14767,21.5881903 L150.153942,21.5881903 L150.153942,6.03711897 L152.14767,6.03711897 Z M173.993222,21.8730085 C171.771629,21.8730085 169.967799,21.1324887 168.581677,19.6514268 C167.195555,18.170365 166.502505,16.2193802 166.502505,13.7984137 C166.502505,11.3774473 167.209796,9.43120936 168.6244,7.95964153 C170.039004,6.4880737 171.871316,5.75230082 174.12139,5.75230082 C176.371465,5.75230082 178.161055,6.4453514 179.490213,7.83147336 C180.819371,9.21759532 181.48394,10.935981 181.48394,12.986682 C181.48394,13.5373332 181.445964,14.0500007 181.370012,14.5247 L168.553195,14.5247 C168.629147,16.3095694 169.170296,17.7146583 170.176659,18.7400087 C171.183021,19.7653592 172.455196,20.2780268 173.993222,20.2780268 C175.189464,20.2780268 176.210053,20.0027053 177.055017,19.4520541 C177.899982,18.9014029 178.483853,18.1798708 178.806649,17.2874361 L180.942785,17.2874361 C180.43011,18.6165942 179.594652,19.7131331 178.436385,20.5770858 C177.278119,21.4410386 175.79708,21.8730085 173.993222,21.8730085 Z M179.433249,12.9582002 C179.433249,11.2492827 178.915834,9.88691613 177.88099,8.87105963 C176.846146,7.85520312 175.564477,7.34728249 174.035945,7.34728249 C172.507413,7.34728249 171.235238,7.84570928 170.219382,8.84257781 C169.203525,9.83944634 168.648135,11.2113067 168.553195,12.9582002 L179.433249,12.9582002 Z M202.645929,6.03711897 L204.753583,6.03711897 L199.797747,21.5881903 L197.775538,21.5881903 L193.902011,8.48655512 L190.028484,21.5881903 L188.006275,21.5881903 L182.993476,6.03711897 L185.10113,6.03711897 L189.003139,19.4520541 L193.019075,6.03711897 L195.012802,6.03711897 L198.772402,19.4235723 L202.645929,6.03711897 Z M206.861237,10.3378731 C206.861237,9.04669103 207.392893,7.95964594 208.456219,7.07670524 C209.519545,6.19376455 210.877165,5.75230082 212.529119,5.75230082 C214.181072,5.75230082 215.467488,6.1842707 216.388405,7.04822343 C217.309321,7.91217616 217.817242,9.10365353 217.912182,10.6226913 L215.861491,10.6226913 C215.823515,9.67329269 215.500724,8.89005059 214.893109,8.2729415 C214.285494,7.65583241 213.440542,7.34728249 212.358228,7.34728249 C211.275913,7.34728249 210.426214,7.61311011 209.809105,8.14477333 C209.191996,8.67643655 208.883446,9.31727099 208.883446,10.0672959 C208.883446,10.8173208 209.111299,11.410686 209.56701,11.8474094 C210.022721,12.2841327 210.597099,12.5784419 211.29016,12.7303456 C211.983221,12.8822494 212.733234,13.0626324 213.540223,13.2715001 C214.347212,13.4803678 215.097226,13.7034732 215.790287,13.9408228 C216.483348,14.1781725 217.057725,14.6053954 217.513436,15.2225045 C217.969148,15.8396136 218.197,16.6323495 218.197,17.6007361 C218.197,18.8539423 217.674839,19.8792774 216.6305,20.6767722 C215.586162,21.474267 214.214301,21.8730085 212.514878,21.8730085 C210.815454,21.8730085 209.472075,21.4362917 208.484701,20.5628449 C207.497326,19.6893982 206.956177,18.5026678 206.861237,17.002618 L208.911928,17.002618 C208.949904,17.9710046 209.291682,18.7589936 209.937273,19.3666087 C210.582865,19.9742238 211.470539,20.2780268 212.600323,20.2780268 C213.730108,20.2780268 214.608288,20.0359338 215.234891,19.5517405 C215.861494,19.0675472 216.174791,18.4457004 216.174791,17.6861816 C216.174791,16.9266627 215.946939,16.3285505 215.491228,15.8918272 C215.035516,15.4551038 214.461139,15.1560477 213.768078,14.99465 C213.075017,14.8332522 212.325003,14.6481223 211.518014,14.4392546 C210.711025,14.2303869 209.961012,14.0120285 209.267951,13.7841728 C208.57489,13.5563172 208.000512,13.1480819 207.544801,12.5594548 C207.08909,11.9708276 206.861237,11.2303078 206.861237,10.3378731 Z" id="kolyoumnews" fill="#111111"></path>
                <path d="M22.9890273,34.3062871 L24.3707592,34.3062871 L24.3707592,44.828707 L22.9890273,44.828707 L17.4317319,36.4775801 L17.4317319,44.828707 L16.05,44.828707 L16.05,34.3062871 L17.4317319,34.3062871 L22.9890273,42.657414 L22.9890273,34.3062871 Z M32.2208185,34.3062871 L32.2208185,35.3995255 L28.0300712,35.3995255 L28.0300712,38.9829181 L31.7653025,38.9829181 L31.7653025,40.0609727 L28.0300712,40.0609727 L28.0300712,43.7354686 L32.2208185,43.7354686 L32.2208185,44.828707 L26.6483393,44.828707 L26.6483393,34.3062871 L32.2208185,34.3062871 Z M46.2355279,34.3062871 L47.6931791,34.3062871 L44.504567,44.828707 L42.9558126,44.828707 L40.5871293,36.3257414 L38.0514235,44.828707 L36.5178529,44.8438909 L33.5418149,34.3062871 L34.9994662,34.3062871 L37.3377817,43.2495848 L39.8886714,34.3062871 L41.4070581,34.3062871 L43.7605575,43.2192171 L46.2355279,34.3062871 Z M50.3199881,37.1153025 C50.3199881,37.4999624 50.4262741,37.8188204 50.6388493,38.0718861 C50.8514246,38.3249518 51.1247314,38.5122177 51.4587782,38.6336892 C51.7928249,38.7551607 52.1648259,38.8614468 52.5747924,38.9525504 C52.9847589,39.0436541 53.3947192,39.1474095 53.8046856,39.2638197 C54.2146521,39.3802299 54.5866531,39.5295365 54.9206999,39.7117438 C55.2547466,39.8939511 55.5280535,40.167258 55.7406287,40.5316726 C55.9532039,40.8960872 56.0594899,41.3465375 56.0594899,41.8830368 C56.0594899,42.7029697 55.7456931,43.4166043 55.1180902,44.023962 C54.4904872,44.6313198 53.6427297,44.9349941 52.5747924,44.9349941 C51.5068551,44.9349941 50.6388527,44.689524 49.9707592,44.1985765 C49.3026657,43.707629 48.968624,43.0420762 48.968624,42.201898 L50.4414591,42.201898 C50.4819496,42.6776615 50.671746,43.0623157 51.0108541,43.3558719 C51.3499622,43.6494281 51.8535554,43.796204 52.5216489,43.796204 C53.1897424,43.796204 53.7211724,43.6241219 54.1159549,43.2799526 C54.5107374,42.9357832 54.7081257,42.5334147 54.7081257,42.0728351 C54.7081257,41.6122555 54.6018397,41.2579688 54.3892645,41.0099644 C54.1766893,40.76196 53.9033825,40.5772248 53.5693357,40.4557533 C53.235289,40.3342817 52.8632879,40.2305263 52.4533215,40.144484 C52.043355,40.0584416 51.6333947,39.9546863 51.2234282,39.8332147 C50.8134618,39.7117432 50.4414607,39.5573754 50.107414,39.3701068 C49.7733673,39.1828381 49.5000604,38.90447 49.2874852,38.5349941 C49.07491,38.1655181 48.968624,37.707476 48.968624,37.1608541 C48.968624,36.2700628 49.2849514,35.5538975 49.9176157,35.0123369 C50.55028,34.4707763 51.3752618,34.2 52.392586,34.2 C53.4099102,34.2 54.2197083,34.4353476 54.8220047,34.9060498 C55.4243012,35.3767521 55.770996,36.0271212 55.8620996,36.8571767 L54.3285291,36.8571767 C54.2880385,36.442149 54.0931809,36.0878623 53.7439502,35.794306 C53.3947195,35.5007498 52.9240243,35.3539739 52.3318505,35.3539739 C51.7396768,35.3539739 51.2563285,35.5032804 50.8817912,35.801898 C50.507254,36.1005155 50.3199881,36.5383127 50.3199881,37.1153025 Z M64.2360024,35.1717675 C64.858544,35.7487573 65.1698102,36.4876981 65.1698102,37.3886121 C65.1698102,38.2895261 64.8686665,39.0309975 64.2663701,39.6130486 C63.6640737,40.1950998 62.7505202,40.486121 61.5256821,40.486121 L59.4910439,40.486121 L59.4910439,44.828707 L58.109312,44.828707 L58.109312,34.3062871 L61.5256821,34.3062871 C62.7100296,34.3062871 63.6134607,34.5947777 64.2360024,35.1717675 Z M59.4910439,39.3928826 L61.5256821,39.3928826 C62.2848792,39.3928826 62.8492073,39.2182698 63.2186833,38.8690391 C63.5881592,38.5198085 63.7728944,38.0313989 63.7728944,37.403796 C63.7728944,36.0777316 63.0238311,35.4147094 61.5256821,35.4147094 L59.4910439,35.4147094 L59.4910439,39.3928826 Z M74.1434757,44.828707 L73.3235469,42.5207592 L68.6469158,42.5207592 L67.826987,44.828707 L66.4148873,44.828707 L70.2412218,34.3062871 L71.7596085,34.3062871 L75.5707592,44.828707 L74.1434757,44.828707 Z M69.0416963,41.4275208 L72.9287663,41.4275208 L70.9852313,35.9916963 L69.0416963,41.4275208 Z M83.5043298,35.1717675 C84.1268714,35.7487573 84.4381376,36.4876981 84.4381376,37.3886121 C84.4381376,38.2895261 84.1369939,39.0309975 83.5346975,39.6130486 C82.9324011,40.1950998 82.0188476,40.486121 80.7940095,40.486121 L78.7593713,40.486121 L78.7593713,44.828707 L77.3776394,44.828707 L77.3776394,34.3062871 L80.7940095,34.3062871 C81.978357,34.3062871 82.8817881,34.5947777 83.5043298,35.1717675 Z M78.7593713,39.3928826 L80.7940095,39.3928826 C81.5532066,39.3928826 82.1175347,39.2182698 82.4870107,38.8690391 C82.8564866,38.5198085 83.0412218,38.0313989 83.0412218,37.403796 C83.0412218,36.0777316 82.2921585,35.4147094 80.7940095,35.4147094 L78.7593713,35.4147094 L78.7593713,39.3928826 Z M91.7263938,34.3062871 L91.7263938,35.3995255 L87.5356465,35.3995255 L87.5356465,38.9829181 L91.2708778,38.9829181 L91.2708778,40.0609727 L87.5356465,40.0609727 L87.5356465,43.7354686 L91.7263938,43.7354686 L91.7263938,44.828707 L86.1539146,44.828707 L86.1539146,34.3062871 L91.7263938,34.3062871 Z M95.2034994,40.486121 L95.2034994,44.828707 L93.8217675,44.828707 L93.8217675,34.3062871 L97.2381376,34.3062871 C98.4224852,34.3062871 99.3259162,34.5947777 99.9484579,35.1717675 C100.571,35.7487573 100.882266,36.4548001 100.882266,37.289917 C100.882266,38.1250338 100.65451,38.8209541 100.198992,39.3776987 C99.7434734,39.9344433 99.0602062,40.2836687 98.1491696,40.4253855 L101.049288,44.828707 L99.3183274,44.828707 L96.5548636,40.486121 L95.2034994,40.486121 Z M95.2034994,35.4147094 L95.2034994,39.3928826 L97.2381376,39.3928826 C97.9973348,39.3928826 98.5616628,39.2182698 98.9311388,38.8690391 C99.3006147,38.5198085 99.4853499,38.0313989 99.4853499,37.403796 C99.4853499,36.0777316 98.7362867,35.4147094 97.2381376,35.4147094 L95.2034994,35.4147094 Z M102.643594,43.8113879 L104.055694,43.8113879 C104.561825,45.9371399 104.106314,47 102.689146,47 L102.689146,46.3319098 C102.942212,46.3319098 103.126947,46.271175 103.243357,46.1497034 C103.359767,46.0282319 103.417972,45.8359048 103.417972,45.5727165 L103.417972,45.2234875 L102.643594,45.2234875 L102.643594,43.8113879 Z M121.304567,34.3062871 L121.304567,44.828707 L119.907651,44.828707 L119.907651,37.1608541 L116.384994,44.828707 L115.489146,44.828707 L111.951305,37.1608541 L111.951305,44.828707 L110.569573,44.828707 L110.569573,34.3062871 L111.981673,34.3062871 L115.944662,42.9307236 L119.892467,34.3062871 L121.304567,34.3062871 Z M130.840036,44.828707 L130.020107,42.5207592 L125.343476,42.5207592 L124.523547,44.828707 L123.111447,44.828707 L126.937782,34.3062871 L128.456168,34.3062871 L132.267319,44.828707 L130.840036,44.828707 Z M125.738256,41.4275208 L129.625326,41.4275208 L127.681791,35.9916963 L125.738256,41.4275208 Z M135.076335,43.4014235 C134.043826,42.3891606 133.52758,41.1061367 133.52758,39.5523132 C133.52758,37.9984897 134.043826,36.7179963 135.076335,35.7107948 C136.108843,34.7035932 137.379213,34.2 138.887485,34.2 C139.980729,34.2 140.955017,34.4581232 141.81038,34.9743772 C142.665742,35.4906313 143.295866,36.2346333 143.700771,37.2064057 L142.030546,37.2064057 C141.402943,36.0220581 140.355266,35.4298932 138.887485,35.4298932 C137.743628,35.4298932 136.799707,35.8069555 136.055694,36.5610913 C135.311681,37.3152272 134.93968,38.3148218 134.93968,39.5599051 C134.93968,40.8049884 135.311681,41.8071136 136.055694,42.5663108 C136.799707,43.3255079 137.725914,43.7051008 138.834342,43.7051008 C139.942769,43.7051008 140.833547,43.391304 141.506702,42.7637011 C142.179857,42.1360981 142.572103,41.28581 142.683452,40.2128114 L138.340866,40.2128114 L138.340866,39.119573 L144.141103,39.119573 L144.141103,40.2128114 C143.999386,41.5692436 143.437589,42.6928386 142.455694,43.5836299 C141.473799,44.4744212 140.256571,44.9198102 138.803974,44.9198102 C137.351377,44.9198102 136.108843,44.4136864 135.076335,43.4014235 Z M153.129953,44.828707 L152.310024,42.5207592 L147.633393,42.5207592 L146.813464,44.828707 L145.401364,44.828707 L149.227699,34.3062871 L150.746085,34.3062871 L154.557236,44.828707 L153.129953,44.828707 Z M148.028173,41.4275208 L151.915243,41.4275208 L149.971708,35.9916963 L148.028173,41.4275208 Z M162.695789,34.3062871 L162.695789,35.4147094 L157.578826,43.7354686 L162.695789,43.7354686 L162.695789,44.828707 L155.98452,44.828707 L155.98452,43.7354686 L161.116667,35.4147094 L155.98452,35.4147094 L155.98452,34.3062871 L162.695789,34.3062871 Z M164.593772,44.828707 L164.593772,34.3062871 L165.975504,34.3062871 L165.975504,44.828707 L164.593772,44.828707 Z M175.192112,34.3062871 L176.573843,34.3062871 L176.573843,44.828707 L175.192112,44.828707 L169.634816,36.4775801 L169.634816,44.828707 L168.253084,44.828707 L168.253084,34.3062871 L169.634816,34.3062871 L175.192112,42.657414 L175.192112,34.3062871 Z M184.423903,34.3062871 L184.423903,35.3995255 L180.233155,35.3995255 L180.233155,38.9829181 L183.968387,38.9829181 L183.968387,40.0609727 L180.233155,40.0609727 L180.233155,43.7354686 L184.423903,43.7354686 L184.423903,44.828707 L178.851423,44.828707 L178.851423,34.3062871 L184.423903,34.3062871 Z" id="Newspaper,-Magazine" fill="#111111" opacity="0.6"></path>
                <circle id="Oval" fill="#105EFB" cx="4.5" cy="17.5" r="4.5"></circle>
            </g>
        </g>
    </g>
</svg>