<?xml version="1.0" encoding="UTF-8"?>
<svg width="270px" height="90px" viewBox="0 0 270 90" version="1.1" xmlns="http://www.w3.org/2000/svg" xmlns:xlink="http://www.w3.org/1999/xlink">
    <!-- Generator: Sketch 48.2 (47327) - http://www.bohemiancoding.com/sketch -->
    <title>logo</title>
    <desc>Created with Sketch.</desc>
    <defs></defs>
    <g id="Page-1" stroke="none" stroke-width="1" fill="none" fill-rule="evenodd">
        <g id="logo">
            <g id="Group-2" transform="translate(35.000000, 24.000000)">
                <path d="M19.396,29 L14.95,29 L14.95,9.76 L19.396,9.76 L19.396,20.55 L23.894,14.492 L29.874,14.492 L23.66,21.902 L29.874,29 L23.972,29 L19.396,23.202 L19.396,29 Z M41.522,21.746 C41.522,20.5673274 41.2186697,19.6703364 40.612,19.055 C40.0053303,18.4396636 39.2860042,18.132 38.454,18.132 C37.6219958,18.132 36.907003,18.4396636 36.309,19.055 C35.710997,19.6703364 35.412,20.5673274 35.412,21.746 C35.412,22.9246726 35.7196636,23.8259969 36.335,24.45 C36.9503364,25.0740031 37.6739958,25.386 38.506,25.386 C39.3380042,25.386 40.0486637,25.0740031 40.638,24.45 C41.2273363,23.8259969 41.522,22.9246726 41.522,21.746 Z M30.888,21.72 C30.888,19.4839888 31.6159927,17.6943401 33.072,16.351 C34.5280073,15.00766 36.3306559,14.336 38.48,14.336 C40.6293441,14.336 42.4276594,15.00766 43.875,16.351 C45.3223406,17.6943401 46.046,19.4839888 46.046,21.72 C46.046,23.9560112 45.3266739,25.7586598 43.888,27.128 C42.4493261,28.4973402 40.6553441,29.182 38.506,29.182 C36.3566559,29.182 34.549674,28.4973402 33.085,27.128 C31.620326,25.7586598 30.888,23.9560112 30.888,21.72 Z M48.906,29 L48.906,9.76 L53.352,9.76 L53.352,29 L48.906,29 Z M61.048,28.714 L55.406,14.492 L60.45,14.492 L63.674,23.982 L67.21,14.492 L71.864,14.492 L62.608,35.916 L57.954,35.916 L61.048,28.714 Z M83.512,21.746 C83.512,20.5673274 83.2086697,19.6703364 82.602,19.055 C81.9953303,18.4396636 81.2760042,18.132 80.444,18.132 C79.6119958,18.132 78.897003,18.4396636 78.299,19.055 C77.700997,19.6703364 77.402,20.5673274 77.402,21.746 C77.402,22.9246726 77.7096636,23.8259969 78.325,24.45 C78.9403364,25.0740031 79.6639958,25.386 80.496,25.386 C81.3280042,25.386 82.0386637,25.0740031 82.628,24.45 C83.2173363,23.8259969 83.512,22.9246726 83.512,21.746 Z M72.878,21.72 C72.878,19.4839888 73.6059927,17.6943401 75.062,16.351 C76.5180073,15.00766 78.3206559,14.336 80.47,14.336 C82.6193441,14.336 84.4176594,15.00766 85.865,16.351 C87.3123406,17.6943401 88.036,19.4839888 88.036,21.72 C88.036,23.9560112 87.3166739,25.7586598 85.878,27.128 C84.4393261,28.4973402 82.6453441,29.182 80.496,29.182 C78.3466559,29.182 76.539674,28.4973402 75.075,27.128 C73.610326,25.7586598 72.878,23.9560112 72.878,21.72 Z M100.75,14.492 L105.196,14.492 L105.196,29 L100.75,29 L100.75,26.868 C99.8313287,28.393341 98.3666767,29.156 96.356,29.156 C94.6919917,29.156 93.3443385,28.6013389 92.313,27.492 C91.2816615,26.3826611 90.766,24.8746762 90.766,22.968 L90.766,14.492 L95.186,14.492 L95.186,22.37 C95.186,23.3060047 95.4329975,24.0296641 95.927,24.541 C96.4210025,25.0523359 97.101329,25.308 97.968,25.308 C98.834671,25.308 99.5149975,25.0523359 100.009,24.541 C100.503002,24.0296641 100.75,23.3060047 100.75,22.37 L100.75,14.492 Z M113.542,14.492 L113.542,16.624 C114.460671,15.098659 115.925323,14.336 117.936,14.336 C119.010672,14.336 119.968329,14.5786642 120.809,15.064 C121.649671,15.5493358 122.303998,16.2426622 122.772,17.144 C123.309336,16.2946624 124.006996,15.6143359 124.865,15.103 C125.723004,14.5916641 126.680661,14.336 127.738,14.336 C129.506009,14.336 130.909995,14.8819945 131.95,15.974 C132.990005,17.0660055 133.51,18.582657 133.51,20.524 L133.51,29 L129.09,29 L129.09,21.122 C129.09,20.1859953 128.843002,19.4623359 128.349,18.951 C127.854998,18.4396641 127.174671,18.184 126.308,18.184 C125.441329,18.184 124.761002,18.4396641 124.267,18.951 C123.772998,19.4623359 123.526,20.1859953 123.526,21.122 L123.526,29 L119.106,29 L119.106,21.122 C119.106,20.1859953 118.859002,19.4623359 118.365,18.951 C117.870998,18.4396641 117.190671,18.184 116.324,18.184 C115.457329,18.184 114.777002,18.4396641 114.283,18.951 C113.788998,19.4623359 113.542,20.1859953 113.542,21.122 L113.542,29 L109.096,29 L109.096,14.492 L113.542,14.492 Z M139.1,14.804 L139.1,17.118 C140.053338,15.4019914 141.621989,14.544 143.806,14.544 C145.383341,14.544 146.700661,15.0596615 147.758,16.091 C148.815339,17.1223385 149.344,18.608657 149.344,20.55 L149.344,29 L147.55,29 L147.55,20.888 C147.55,19.3279922 147.173004,18.1406707 146.419,17.326 C145.664996,16.5113293 144.633673,16.104 143.325,16.104 C142.016327,16.104 140.985004,16.5113293 140.231,17.326 C139.476996,18.1406707 139.1,19.3279922 139.1,20.888 L139.1,29 L137.28,29 L137.28,14.804 L139.1,14.804 Z M159.042,29.26 C157.01399,29.26 155.36734,28.5840068 154.102,27.232 C152.83666,25.8799932 152.204,24.0990111 152.204,21.889 C152.204,19.678989 152.84966,17.90234 154.141,16.559 C155.43234,15.2156599 157.10499,14.544 159.159,14.544 C161.21301,14.544 162.846661,15.1766603 164.06,16.442 C165.273339,17.7073397 165.88,19.2759906 165.88,21.148 C165.88,21.6506692 165.845334,22.1186645 165.776,22.552 L154.076,22.552 C154.145334,24.1813415 154.639329,25.4639953 155.558,26.4 C156.476671,27.3360047 157.637993,27.804 159.042,27.804 C160.134005,27.804 161.065663,27.5526692 161.837,27.05 C162.608337,26.5473308 163.141332,25.8886707 163.436,25.074 L165.386,25.074 C164.917998,26.2873394 164.155339,27.2883294 163.098,28.077 C162.040661,28.8656706 160.688675,29.26 159.042,29.26 Z M164.008,21.122 C164.008,19.5619922 163.535671,18.318338 162.591,17.391 C161.646329,16.463662 160.47634,16 159.081,16 C157.68566,16 156.524338,16.4549954 155.597,17.365 C154.669662,18.2750045 154.162667,19.5273254 154.076,21.122 L164.008,21.122 Z M185.198,14.804 L187.122,14.804 L182.598,29 L180.752,29 L177.216,17.04 L173.68,29 L171.834,29 L167.258,14.804 L169.182,14.804 L172.744,27.05 L176.41,14.804 L178.23,14.804 L181.662,27.024 L185.198,14.804 Z M189.046,18.73 C189.046,17.5513274 189.531328,16.559004 190.502,15.753 C191.472672,14.946996 192.711992,14.544 194.22,14.544 C195.728008,14.544 196.902329,14.9383294 197.743,15.727 C198.583671,16.5156706 199.047333,17.6033264 199.134,18.99 L197.262,18.99 C197.227333,18.123329 196.932669,17.4083361 196.378,16.845 C195.823331,16.2816639 195.052005,16 194.064,16 C193.075995,16 192.300336,16.2426642 191.737,16.728 C191.173664,17.2133358 190.892,17.7983299 190.892,18.483 C190.892,19.1676701 191.099998,19.7093313 191.516,20.108 C191.932002,20.5066687 192.45633,20.7753326 193.089,20.914 C193.72167,21.0526674 194.40633,21.2173324 195.143,21.408 C195.87967,21.5986676 196.56433,21.8023322 197.197,22.019 C197.82967,22.2356678 198.353998,22.6256639 198.77,23.189 C199.186002,23.7523362 199.394,24.4759956 199.394,25.36 C199.394,26.5040057 198.917338,27.4399964 197.964,28.168 C197.010662,28.8960036 195.758341,29.26 194.207,29.26 C192.655659,29.26 191.429338,28.8613373 190.528,28.064 C189.626662,27.2666627 189.132667,26.1833402 189.046,24.814 L190.918,24.814 C190.952667,25.6980044 191.264664,26.4173306 191.854,26.972 C192.443336,27.5266694 193.253662,27.804 194.285,27.804 C195.316338,27.804 196.117997,27.5830022 196.69,27.141 C197.262003,26.6989978 197.548,26.1313368 197.548,25.438 C197.548,24.7446632 197.340002,24.1986687 196.924,23.8 C196.507998,23.4013313 195.98367,23.1283341 195.351,22.981 C194.71833,22.8336659 194.03367,22.6646676 193.297,22.474 C192.56033,22.2833324 191.87567,22.084001 191.243,21.876 C190.61033,21.667999 190.086002,21.295336 189.67,20.758 C189.253998,20.220664 189.046,19.5446707 189.046,18.73 Z" id="kolyoumnews" fill="#111111"></path>
                <circle id="Oval" fill="#105EFB" cx="4.5" cy="24.5" r="4.5"></circle>
            </g>
        </g>
    </g>
</svg>