<?xml version="1.0" encoding="UTF-8"?>
<svg width="270px" height="90px" viewBox="0 0 270 90" version="1.1" xmlns="http://www.w3.org/2000/svg" xmlns:xlink="http://www.w3.org/1999/xlink">
    <!-- Generator: Sketch 48.2 (47327) - http://www.bohemiancoding.com/sketch -->
    <title>default</title>
    <desc>Created with Sketch.</desc>
    <defs>
        <linearGradient x1="10.9066545%" y1="89.3722717%" x2="94.8279841%" y2="7.59714156%" id="linearGradient-1">
            <stop stop-color="#105EFB" offset="0%"></stop>
            <stop stop-color="#5216D6" offset="70.4759247%"></stop>
            <stop stop-color="#8000AB" offset="100%"></stop>
        </linearGradient>
    </defs>
    <g id="Page-1" stroke="none" stroke-width="1" fill="none" fill-rule="evenodd">
        <g id="default">
            <g id="Group-3" transform="translate(5.000000, 16.000000)">
                <path d="M45.8893251,22.9999962 C46.9651279,26.6521489 47.9135691,30.8232493 48.632,35.308 C48.1800593,38.853996 46.3773505,42.5421781 44.7231452,46 L0,46 L0,23 L45.889328,23 Z" id="Combined-Shape" fill="url(#linearGradient-1)"></path>
                <path d="M10.7399347,41.1198047 L7.74692307,41.1198047 L7.74692307,28.8327043 L10.7399347,28.8327043 L10.7399347,34.2236258 L14.8006288,28.8327043 L18.721299,28.8327043 L13.6629344,34.9762545 L18.721299,41.1198047 L14.8706408,41.1198047 L10.7399347,35.6938772 L10.7399347,41.1198047 Z M27.4876052,34.9412485 C27.4876052,33.8677263 27.1929745,33.0100883 26.6037041,32.3683087 C26.0144338,31.7265291 25.226807,31.4056441 24.2408002,31.4056441 C23.2547934,31.4056441 22.4671667,31.7265291 21.8778963,32.3683087 C21.288626,33.0100883 20.9939952,33.8677263 20.9939952,34.9412485 C20.9939952,36.0147707 21.288626,36.8724087 21.8778963,37.5141883 C22.4671667,38.1559679 23.2547934,38.4768529 24.2408002,38.4768529 C25.226807,38.4768529 26.0144338,38.1559679 26.6037041,37.5141883 C27.1929745,36.8724087 27.4876052,36.0147707 27.4876052,34.9412485 Z M17.9484746,34.9412485 C17.9484746,33.1209282 18.5581561,31.6186031 19.7775373,30.4342281 C20.9969185,29.249853 22.4904922,28.6576744 24.2583032,28.6576744 C26.0261143,28.6576744 27.5138537,29.249853 28.7215662,30.4342281 C29.9292787,31.6186031 30.5331258,33.1209282 30.5331258,34.9412485 C30.5331258,36.7615688 29.9263615,38.266811 28.7128147,39.4570204 C27.4992678,40.6472298 26.0115284,41.2423256 24.2495517,41.2423256 C22.4875751,41.2423256 20.9969185,40.6472298 19.7775373,39.4570204 C18.5581561,38.266811 17.9484746,36.7615688 17.9484746,34.9412485 Z M32.5257742,28.8327043 L35.5187858,28.8327043 L35.5187858,38.8444157 L39.2469231,38.8444157 L39.2469231,41.1198047 L32.5257742,41.1198047 L32.5257742,28.8327043 Z" id="KOL" fill="#FFFFFF"></path>
                <path d="M65.484,31.296 C60.792,37.62 56.372,48.16 56.372,52.716 C56.372,53.804 56.712,55.3 57.12,56.388 C55.216,57.34 52.564,58.088 49.98,58.088 C47.396,58.088 45.696,57.136 45.696,54.96 C45.696,49.724 51.748,42.244 52.632,35.308 C50.388,21.3 45.9,10.352 42.296,8.72 C41.616,8.448 41.14,8.108 40.596,7.904 C43.588,5.048 46.58,3.62 49.504,3.62 C52.088,3.62 54.06,4.912 55.216,7.7 C57.188,12.256 58.888,19.736 60.52,27.624 C69.224,13.548 69.972,12.596 71.876,8.448 C72.488,7.156 72.692,5.728 72.692,4.3 C72.692,3.552 72.624,2.736 72.488,1.988 C73.168,1.852 73.78,1.852 74.46,1.852 C79.288,1.852 81.736,3.62 81.736,6.272 C81.736,13.208 69.904,25.516 65.484,31.296 Z M71.9335384,27.488 C76.1495384,22.796 81.4535384,19.872 87.3695384,19.872 C94.7815384,19.872 99.8135384,24.428 99.8135384,31.976 C99.8135384,44.76 89.8855384,57.68 77.7815384,57.68 C70.3015384,57.68 65.3375384,52.92 65.3375384,45.032 C65.3375384,38.436 67.6495384,32.52 71.9335384,27.488 Z M89.6815384,31.976 C89.6815384,27.964 88.5935384,24.904 85.3295384,24.904 C79.2775384,24.904 75.3335384,37.96 75.3335384,45.78 C75.3335384,49.792 76.5575384,52.716 79.8215384,52.716 C85.8055384,52.716 89.6815384,39.796 89.6815384,31.976 Z M131.355077,20.076 C133.531077,20.212 135.503077,20.96 135.503077,23.748 C135.503077,25.176 135.163077,26.876 134.619077,28.848 C132.783077,35.512 130.607077,42.176 130.607077,47.004 C130.607077,48.364 131.015077,49.316 131.355077,49.928 C133.259077,49.52 138.019077,44.08 138.767077,44.08 C139.039077,44.08 139.175077,44.284 139.175077,44.692 C139.175077,49.588 131.967077,57.068 127.071077,57.068 C123.263077,57.068 121.019077,54.688 121.019077,49.792 C121.019077,47.956 121.291077,46.392 121.631077,44.556 C116.395077,53.124 111.295077,57.68 105.787077,57.68 C100.755077,57.68 99.8710768,54.144 99.8710768,50.676 C99.8710768,45.372 104.767077,30.072 104.767077,24.972 C104.767077,23.816 104.631077,22.524 104.087077,21.504 C106.535077,20.552 108.983077,20.076 110.751077,20.076 C113.879077,20.076 114.695077,21.776 114.695077,23.816 C114.695077,25.176 114.287077,26.74 114.015077,27.964 C111.839077,37.484 109.595077,45.304 109.595077,48.636 C109.595077,49.52 109.867077,50.404 110.887077,50.404 C112.791077,50.404 117.007077,45.712 120.747077,38.98 C124.215077,32.656 125.983077,27.012 125.983077,23.34 C125.983077,22.592 125.847077,21.708 125.507077,21.028 C127.275077,20.416 129.655077,20.076 131.355077,20.076 Z M179.176615,51.356 C179.244615,48.568 180.196615,45.236 180.808615,42.244 C182.508615,34.628 183.392615,30.276 183.392615,29.528 C183.392615,28.644 183.052615,28.372 182.372615,28.372 C179.312615,28.372 168.772615,45.44 167.140615,54.28 C167.140615,54.756 167.208615,55.232 167.412615,55.844 C166.732615,56.388 164.352615,57.272 162.652615,57.272 C160.680615,57.272 159.184615,56.592 157.892615,55.232 C161.020615,42.04 163.604615,31.976 163.604615,29.528 C163.604615,28.576 163.196615,28.304 162.516615,28.304 C160.680615,28.372 157.144615,33.404 153.744615,38.436 C151.500615,41.768 150.072615,45.508 146.740615,53.532 C145.720615,55.98 144.632615,57.272 141.164615,57.272 C139.804615,57.272 138.104615,57.068 135.860615,56.66 C141.232615,43.4 143.544615,30.888 143.544615,26.4 C143.544615,24.768 143.272615,23.204 142.728615,21.912 C145.720615,20.62 148.100615,20.008 149.868615,20.008 C151.908615,20.008 153.540615,21.232 153.540615,23.34 C153.540615,25.924 152.520615,29.868 151.296615,34.628 C157.552615,24.904 164.148615,19.804 168.364615,19.804 C170.948615,19.804 173.056615,21.232 173.056615,24.224 C173.056615,27.692 172.512615,31.5 171.492615,34.492 C177.748615,24.496 184.412615,19.804 188.356615,19.804 C191.076615,19.804 192.980615,22.048 192.980615,24.7 C192.980615,32.18 188.696615,42.856 188.696615,47.412 C188.696615,48.772 189.036615,49.724 189.376615,50.336 C191.280615,49.928 196.040615,44.488 196.788615,44.488 C197.060615,44.488 197.196615,44.692 197.196615,45.1 C197.196615,49.996 189.988615,57.476 185.092615,57.476 C181.420615,57.476 179.176615,55.572 179.176615,51.356 Z" id="Youm" fill="#111111"></path>
                <path d="M221.704,2.395 C221.426665,2.62033446 221.288,2.94749786 221.288,3.3765 C221.288,3.80550215 221.452665,4.13266554 221.782,4.358 C222.111335,4.58333446 222.509998,4.74799948 222.978,4.852 C223.446002,4.95600052 223.913998,5.075166 224.382,5.2095 C224.850002,5.34383401 225.248665,5.59299818 225.578,5.957 C225.907335,6.32100182 226.072,6.83666333 226.072,7.504 C226.072,8.17133667 225.790336,8.76933069 225.227,9.298 C224.663664,9.82666931 223.909671,10.091 222.965,10.091 C222.020329,10.091 221.253336,9.87000221 220.664,9.428 C220.074664,8.98599779 219.78,8.3750039 219.78,7.595 L221.366,7.595 C221.400667,7.99366866 221.547999,8.30999883 221.808,8.544 C222.068001,8.77800117 222.449331,8.895 222.952,8.895 C223.454669,8.895 223.851165,8.7650013 224.1415,8.505 C224.431835,8.2449987 224.577,7.93733511 224.577,7.582 C224.577,7.22666489 224.488168,6.94933433 224.3105,6.75 C224.132832,6.55066567 223.903168,6.40116717 223.6215,6.3015 C223.339832,6.20183284 223.030002,6.11300039 222.692,6.035 C222.353998,5.95699961 222.013835,5.86600052 221.6715,5.762 C221.329165,5.65799948 221.017168,5.52366749 220.7355,5.359 C220.453832,5.19433251 220.224168,4.95383492 220.0465,4.6375 C219.868832,4.32116509 219.78,3.93333563 219.78,3.474 C219.78,2.68532939 220.06383,2.05050241 220.6315,1.5695 C221.19917,1.0884976 221.935829,0.848 222.8415,0.848 C223.747171,0.848 224.470831,1.05599792 225.0125,1.472 C225.554169,1.88800208 225.855333,2.49032939 225.916,3.279 L224.278,3.279 C224.243333,2.9323316 224.096001,2.64200117 223.836,2.408 C223.575999,2.17399883 223.225002,2.057 222.783,2.057 C222.340998,2.057 221.981335,2.16966554 221.704,2.395 Z M227.359,2.122 L227.359,0.965 L233.664,0.965 L233.664,2.122 L231.259,2.122 L231.259,10 L229.777,10 L229.777,2.122 L227.359,2.122 Z M241.5095,7.8485 C242.085836,7.24616366 242.374,6.45317159 242.374,5.4695 C242.374,4.48582842 242.085836,3.69500299 241.5095,3.097 C240.933164,2.49899701 240.190005,2.2 239.28,2.2 C238.369995,2.2 237.626836,2.49899701 237.0505,3.097 C236.474164,3.69500299 236.186,4.48582842 236.186,5.4695 C236.186,6.45317159 236.474164,7.24616366 237.0505,7.8485 C237.626836,8.45083635 238.369995,8.752 239.28,8.752 C240.190005,8.752 240.933164,8.45083635 241.5095,7.8485 Z M236.004,8.7845 C235.111329,7.91349565 234.665,6.8085067 234.665,5.4695 C234.665,4.13049331 235.111329,3.02550436 236.004,2.1545 C236.896671,1.28349565 237.990827,0.848 239.2865,0.848 C240.582173,0.848 241.674162,1.28349565 242.5625,2.1545 C243.450838,3.02550436 243.895,4.13049331 243.895,5.4695 C243.895,6.8085067 243.450838,7.91349565 242.5625,8.7845 C241.674162,9.65550436 240.582173,10.091 239.2865,10.091 C237.990827,10.091 236.896671,9.65550436 236.004,8.7845 Z M246.833,6.334 L246.833,10 L245.351,10 L245.351,0.965 L248.471,0.965 C249.493672,0.965 250.282331,1.21849747 250.837,1.7255 C251.391669,2.23250254 251.669,2.8759961 251.669,3.656 C251.669,4.2626697 251.484835,4.80866424 251.1165,5.294 C250.748165,5.77933576 250.18267,6.09566593 249.42,6.243 L251.812,10 L250.005,10 L247.743,6.334 L246.833,6.334 Z M246.833,2.122 L246.833,5.177 L248.471,5.177 C249.034336,5.177 249.454665,5.04266801 249.732,4.774 C250.009335,4.50533199 250.148,4.13050241 250.148,3.6495 C250.148,3.1684976 250.009335,2.79366801 249.732,2.525 C249.454665,2.25633199 249.034336,2.122 248.471,2.122 L246.833,2.122 Z M257.272,10 L255.79,10 L255.79,6.724 L252.787,0.965 L254.438,0.965 L256.518,5.372 L258.598,0.965 L260.262,0.965 L257.272,6.724 L257.272,10 Z M226.3255,22.8485 C226.901836,22.2461637 227.19,21.4531716 227.19,20.4695 C227.19,19.4858284 226.901836,18.695003 226.3255,18.097 C225.749164,17.498997 225.006005,17.2 224.096,17.2 C223.185995,17.2 222.442836,17.498997 221.8665,18.097 C221.290164,18.695003 221.002,19.4858284 221.002,20.4695 C221.002,21.4531716 221.290164,22.2461637 221.8665,22.8485 C222.442836,23.4508363 223.185995,23.752 224.096,23.752 C225.006005,23.752 225.749164,23.4508363 226.3255,22.8485 Z M220.82,23.7845 C219.927329,22.9134956 219.481,21.8085067 219.481,20.4695 C219.481,19.1304933 219.927329,18.0255044 220.82,17.1545 C221.712671,16.2834956 222.806827,15.848 224.1025,15.848 C225.398173,15.848 226.490162,16.2834956 227.3785,17.1545 C228.266838,18.0255044 228.711,19.1304933 228.711,20.4695 C228.711,21.8085067 228.266838,22.9134956 227.3785,23.7845 C226.490162,24.6555044 225.398173,25.091 224.1025,25.091 C222.806827,25.091 221.712671,24.6555044 220.82,23.7845 Z M230.167,25 L230.167,15.965 L235.484,15.965 L235.484,17.122 L231.649,17.122 L231.649,19.865 L234.639,19.865 L234.639,21.009 L231.649,21.009 L231.649,25 L230.167,25 Z M219.507,32.122 L219.507,30.965 L225.812,30.965 L225.812,32.122 L223.407,32.122 L223.407,40 L221.925,40 L221.925,32.122 L219.507,32.122 Z M233.04,30.965 L234.522,30.965 L234.522,40 L233.04,40 L233.04,36.009 L228.789,36.009 L228.789,40 L227.307,40 L227.307,30.965 L228.789,30.965 L228.789,34.865 L233.04,34.865 L233.04,30.965 Z M241.464,30.952 L241.464,32.109 L237.954,32.109 L237.954,34.852 L241.074,34.852 L241.074,35.996 L237.954,35.996 L237.954,38.843 L241.464,38.843 L241.464,40 L236.472,40 L236.472,30.952 L241.464,30.952 Z M225.916,45.952 L227.398,45.952 L227.398,55 L225.916,55 L221.457,48.253 L221.457,55 L219.975,55 L219.975,45.952 L221.457,45.952 L225.916,52.686 L225.916,45.952 Z M234.34,45.952 L234.34,47.109 L230.83,47.109 L230.83,49.852 L233.95,49.852 L233.95,50.996 L230.83,50.996 L230.83,53.843 L234.34,53.843 L234.34,55 L229.348,55 L229.348,45.952 L234.34,45.952 Z M246.339,45.965 L247.925,45.965 L245.247,55 L243.57,55 L241.672,48.162 L239.657,55 L237.993,55.013 L235.432,45.965 L237.005,45.965 L238.877,53.323 L240.905,45.965 L242.569,45.965 L244.454,53.284 L246.339,45.965 Z M250.876,47.395 C250.598665,47.6203345 250.46,47.9474979 250.46,48.3765 C250.46,48.8055021 250.624665,49.1326655 250.954,49.358 C251.283335,49.5833345 251.681998,49.7479995 252.15,49.852 C252.618002,49.9560005 253.085998,50.075166 253.554,50.2095 C254.022002,50.343834 254.420665,50.5929982 254.75,50.957 C255.079335,51.3210018 255.244,51.8366633 255.244,52.504 C255.244,53.1713367 254.962336,53.7693307 254.399,54.298 C253.835664,54.8266693 253.081671,55.091 252.137,55.091 C251.192329,55.091 250.425336,54.8700022 249.836,54.428 C249.246664,53.9859978 248.952,53.3750039 248.952,52.595 L250.538,52.595 C250.572667,52.9936687 250.719999,53.3099988 250.98,53.544 C251.240001,53.7780012 251.621331,53.895 252.124,53.895 C252.626669,53.895 253.023165,53.7650013 253.3135,53.505 C253.603835,53.2449987 253.749,52.9373351 253.749,52.582 C253.749,52.2266649 253.660168,51.9493343 253.4825,51.75 C253.304832,51.5506657 253.075168,51.4011672 252.7935,51.3015 C252.511832,51.2018328 252.202002,51.1130004 251.864,51.035 C251.525998,50.9569996 251.185835,50.8660005 250.8435,50.762 C250.501165,50.6579995 250.189168,50.5236675 249.9075,50.359 C249.625832,50.1943325 249.396168,49.9538349 249.2185,49.6375 C249.040832,49.3211651 248.952,48.9333356 248.952,48.474 C248.952,47.6853294 249.23583,47.0505024 249.8035,46.5695 C250.37117,46.0884976 251.107829,45.848 252.0135,45.848 C252.919171,45.848 253.642831,46.0559979 254.1845,46.472 C254.726169,46.8880021 255.027333,47.4903294 255.088,48.279 L253.45,48.279 C253.415333,47.9323316 253.268001,47.6420012 253.008,47.408 C252.747999,47.1739988 252.397002,47.057 251.955,47.057 C251.512998,47.057 251.153335,47.1696655 250.876,47.395 Z" id="story-of-the-news" stroke="#111111" stroke-width="0.3" fill="#111111"></path>
                <path d="M208.5,3.5 L182,3.5" id="Line-2" stroke="#111111" stroke-width="2" stroke-linecap="square"></path>
            </g>
        </g>
    </g>
</svg>