<?xml version="1.0" encoding="UTF-8"?>
<svg width="270px" height="90px" viewBox="0 0 270 90" version="1.1" xmlns="http://www.w3.org/2000/svg" xmlns:xlink="http://www.w3.org/1999/xlink">
    <!-- Generator: Sketch 48.2 (47327) - http://www.bohemiancoding.com/sketch -->
    <title>logo</title>
    <desc>Created with Sketch.</desc>
    <defs></defs>
    <g id="Page-1" stroke="none" stroke-width="1" fill="none" fill-rule="evenodd">
        <g id="logo">
            <g id="Group-2" transform="translate(26.000000, 23.000000)">
                <path d="M21.0173905,21.5881903 L16.147,21.5881903 L16.147,0.511646744 L21.0173905,0.511646744 L21.0173905,12.3316002 L25.9447446,5.69533719 L32.4955622,5.69533719 L25.6884082,13.8126546 L32.4955622,21.5881903 L26.03019,21.5881903 L21.0173905,15.2367454 L21.0173905,21.5881903 Z M45.2554156,13.6417637 C45.2554156,12.3505816 44.923131,11.3679688 44.258552,10.6938958 C43.593973,10.0198228 42.805984,9.68279137 41.8945613,9.68279137 C40.9831387,9.68279137 40.1998966,10.0198228 39.5448115,10.6938958 C38.8897265,11.3679688 38.5621889,12.3505816 38.5621889,13.6417637 C38.5621889,14.9329458 38.8992203,15.9203056 39.5732933,16.6038726 C40.2473664,17.2874396 41.0401023,17.6292179 41.951525,17.6292179 C42.8629476,17.6292179 43.6414428,17.2874396 44.2870338,16.6038726 C44.9326249,15.9203056 45.2554156,14.9329458 45.2554156,13.6417637 Z M33.606353,13.6132819 C33.606353,11.1638335 34.4038358,9.20335483 35.9988255,7.731787 C37.5938151,6.26021917 39.5685346,5.52444629 41.9230431,5.52444629 C44.2775517,5.52444629 46.2475242,6.26021917 47.8330199,7.731787 C49.4185155,9.20335483 50.2112515,11.1638335 50.2112515,13.6132819 C50.2112515,16.0627303 49.4232625,18.0374498 47.8472608,19.5374996 C46.2712591,21.0375494 44.3060335,21.787563 41.951525,21.787563 C39.5970164,21.787563 37.61755,21.0375494 36.0130664,19.5374996 C34.4085828,18.0374498 33.606353,16.0627303 33.606353,13.6132819 Z M53.3442512,21.5881903 L53.3442512,0.511646744 L58.2146417,0.511646744 L58.2146417,21.5881903 L53.3442512,21.5881903 Z M66.6452591,21.2748903 L60.4647051,5.69533719 L65.9901773,5.69533719 L69.5219225,16.0911999 L73.3954494,5.69533719 L78.4936944,5.69533719 L68.354168,29.1643533 L63.255923,29.1643533 L66.6452591,21.2748903 Z M91.2535478,13.6417637 C91.2535478,12.3505816 90.9212633,11.3679688 90.2566842,10.6938958 C89.5921052,10.0198228 88.8041162,9.68279137 87.8926935,9.68279137 C86.9812709,9.68279137 86.1980288,10.0198228 85.5429438,10.6938958 C84.8878587,11.3679688 84.5603211,12.3505816 84.5603211,13.6417637 C84.5603211,14.9329458 84.8973526,15.9203056 85.5714256,16.6038726 C86.2454986,17.2874396 87.0382345,17.6292179 87.9496572,17.6292179 C88.8610798,17.6292179 89.639575,17.2874396 90.2851661,16.6038726 C90.9307571,15.9203056 91.2535478,14.9329458 91.2535478,13.6417637 Z M79.6044852,13.6132819 C79.6044852,11.1638335 80.4019681,9.20335483 81.9969577,7.731787 C83.5919474,6.26021917 85.5666668,5.52444629 87.9211754,5.52444629 C90.2756839,5.52444629 92.2456564,6.26021917 93.8311521,7.731787 C95.4166478,9.20335483 96.2093837,11.1638335 96.2093837,13.6132819 C96.2093837,16.0627303 95.4213947,18.0374498 93.845393,19.5374996 C92.2693913,21.0375494 90.3041657,21.787563 87.9496572,21.787563 C85.5951486,21.787563 83.6156823,21.0375494 82.0111986,19.5374996 C80.406715,18.0374498 79.6044852,16.0627303 79.6044852,13.6132819 Z M110.136992,5.69533719 L115.007382,5.69533719 L115.007382,21.5881903 L110.136992,21.5881903 L110.136992,19.2526814 C109.130629,20.923623 107.526169,21.7590812 105.323565,21.7590812 C103.500719,21.7590812 102.024427,21.1514752 100.894642,19.936245 C99.764858,18.7210148 99.1999743,17.069086 99.1999743,14.9804091 L99.1999743,5.69533719 L104.041883,5.69533719 L104.041883,14.3253273 C104.041883,15.3506778 104.312458,16.1434137 104.853615,16.7035589 C105.394772,17.2637041 106.140039,17.5437725 107.089437,17.5437725 C108.038836,17.5437725 108.784103,17.2637041 109.32526,16.7035589 C109.866417,16.1434137 110.136992,15.3506778 110.136992,14.3253273 L110.136992,5.69533719 Z M124.150045,5.69533719 L124.150045,8.03084607 C125.156407,6.35990453 126.760867,5.52444629 128.963472,5.52444629 C130.140726,5.52444629 131.189796,5.79027391 132.110712,6.32193713 C133.031629,6.85360035 133.748414,7.61310783 134.261089,8.60048238 C134.849717,7.67007175 135.613971,6.92480503 136.553876,6.36465985 C137.49378,5.80451468 138.54285,5.52444629 139.701116,5.52444629 C141.637889,5.52444629 143.175892,6.12255844 144.31517,7.31880068 C145.454449,8.51504291 146.024079,10.1764655 146.024079,12.3031184 L146.024079,21.5881903 L141.182171,21.5881903 L141.182171,12.9582002 C141.182171,11.9328497 140.911596,11.1401137 140.370439,10.5799686 C139.829282,10.0198234 139.084015,9.739755 138.134616,9.739755 C137.185218,9.739755 136.439951,10.0198234 135.898794,10.5799686 C135.357637,11.1401137 135.087062,11.9328497 135.087062,12.9582002 L135.087062,21.5881903 L130.245153,21.5881903 L130.245153,12.9582002 C130.245153,11.9328497 129.974579,11.1401137 129.433422,10.5799686 C128.892264,10.0198234 128.146998,9.739755 127.197599,9.739755 C126.2482,9.739755 125.502934,10.0198234 124.961777,10.5799686 C124.420619,11.1401137 124.150045,11.9328497 124.150045,12.9582002 L124.150045,21.5881903 L119.279654,21.5881903 L119.279654,5.69533719 L124.150045,5.69533719 Z M152.14767,6.03711897 L152.14767,8.57200056 C153.192008,6.69219133 154.910394,5.75230082 157.302878,5.75230082 C159.030784,5.75230082 160.473848,6.31718451 161.632114,7.44696885 C162.79038,8.57675318 163.369505,10.2049474 163.369505,12.3316002 L163.369505,21.5881903 L161.40426,21.5881903 L161.40426,12.7018638 C161.40426,10.9929463 160.991277,9.69228977 160.165301,8.79985509 C159.339324,7.9074204 158.209557,7.46120975 156.775965,7.46120975 C155.342373,7.46120975 154.212605,7.9074204 153.386629,8.79985509 C152.560652,9.69228977 152.14767,10.9929463 152.14767,12.7018638 L152.14767,21.5881903 L150.153942,21.5881903 L150.153942,6.03711897 L152.14767,6.03711897 Z M173.993222,21.8730085 C171.771629,21.8730085 169.967799,21.1324887 168.581677,19.6514268 C167.195555,18.170365 166.502505,16.2193802 166.502505,13.7984137 C166.502505,11.3774473 167.209796,9.43120936 168.6244,7.95964153 C170.039004,6.4880737 171.871316,5.75230082 174.12139,5.75230082 C176.371465,5.75230082 178.161055,6.4453514 179.490213,7.83147336 C180.819371,9.21759532 181.48394,10.935981 181.48394,12.986682 C181.48394,13.5373332 181.445964,14.0500007 181.370012,14.5247 L168.553195,14.5247 C168.629147,16.3095694 169.170296,17.7146583 170.176659,18.7400087 C171.183021,19.7653592 172.455196,20.2780268 173.993222,20.2780268 C175.189464,20.2780268 176.210053,20.0027053 177.055017,19.4520541 C177.899982,18.9014029 178.483853,18.1798708 178.806649,17.2874361 L180.942785,17.2874361 C180.43011,18.6165942 179.594652,19.7131331 178.436385,20.5770858 C177.278119,21.4410386 175.79708,21.8730085 173.993222,21.8730085 Z M179.433249,12.9582002 C179.433249,11.2492827 178.915834,9.88691613 177.88099,8.87105963 C176.846146,7.85520312 175.564477,7.34728249 174.035945,7.34728249 C172.507413,7.34728249 171.235238,7.84570928 170.219382,8.84257781 C169.203525,9.83944634 168.648135,11.2113067 168.553195,12.9582002 L179.433249,12.9582002 Z M202.645929,6.03711897 L204.753583,6.03711897 L199.797747,21.5881903 L197.775538,21.5881903 L193.902011,8.48655512 L190.028484,21.5881903 L188.006275,21.5881903 L182.993476,6.03711897 L185.10113,6.03711897 L189.003139,19.4520541 L193.019075,6.03711897 L195.012802,6.03711897 L198.772402,19.4235723 L202.645929,6.03711897 Z M206.861237,10.3378731 C206.861237,9.04669103 207.392893,7.95964594 208.456219,7.07670524 C209.519545,6.19376455 210.877165,5.75230082 212.529119,5.75230082 C214.181072,5.75230082 215.467488,6.1842707 216.388405,7.04822343 C217.309321,7.91217616 217.817242,9.10365353 217.912182,10.6226913 L215.861491,10.6226913 C215.823515,9.67329269 215.500724,8.89005059 214.893109,8.2729415 C214.285494,7.65583241 213.440542,7.34728249 212.358228,7.34728249 C211.275913,7.34728249 210.426214,7.61311011 209.809105,8.14477333 C209.191996,8.67643655 208.883446,9.31727099 208.883446,10.0672959 C208.883446,10.8173208 209.111299,11.410686 209.56701,11.8474094 C210.022721,12.2841327 210.597099,12.5784419 211.29016,12.7303456 C211.983221,12.8822494 212.733234,13.0626324 213.540223,13.2715001 C214.347212,13.4803678 215.097226,13.7034732 215.790287,13.9408228 C216.483348,14.1781725 217.057725,14.6053954 217.513436,15.2225045 C217.969148,15.8396136 218.197,16.6323495 218.197,17.6007361 C218.197,18.8539423 217.674839,19.8792774 216.6305,20.6767722 C215.586162,21.474267 214.214301,21.8730085 212.514878,21.8730085 C210.815454,21.8730085 209.472075,21.4362917 208.484701,20.5628449 C207.497326,19.6893982 206.956177,18.5026678 206.861237,17.002618 L208.911928,17.002618 C208.949904,17.9710046 209.291682,18.7589936 209.937273,19.3666087 C210.582865,19.9742238 211.470539,20.2780268 212.600323,20.2780268 C213.730108,20.2780268 214.608288,20.0359338 215.234891,19.5517405 C215.861494,19.0675472 216.174791,18.4457004 216.174791,17.6861816 C216.174791,16.9266627 215.946939,16.3285505 215.491228,15.8918272 C215.035516,15.4551038 214.461139,15.1560477 213.768078,14.99465 C213.075017,14.8332522 212.325003,14.6481223 211.518014,14.4392546 C210.711025,14.2303869 209.961012,14.0120285 209.267951,13.7841728 C208.57489,13.5563172 208.000512,13.1480819 207.544801,12.5594548 C207.08909,11.9708276 206.861237,11.2303078 206.861237,10.3378731 Z" id="kolyoumnews" fill="#111111"></path>
                <path d="M23.7133736,34.3173821 L25.2393408,34.3173821 L25.2393408,45.938209 L23.7133736,45.938209 L17.5759672,36.7153305 L17.5759672,45.938209 L16.05,45.938209 L16.05,34.3173821 L17.5759672,34.3173821 L23.7133736,43.5402606 L23.7133736,34.3173821 Z M33.9088466,34.3173821 L33.9088466,35.5247407 L29.2806385,35.5247407 L29.2806385,39.4821941 L33.4057805,39.4821941 L33.4057805,40.6727838 L29.2806385,40.6727838 L29.2806385,44.7308504 L33.9088466,44.7308504 L33.9088466,45.938209 L27.7546713,45.938209 L27.7546713,34.3173821 L33.9088466,34.3173821 Z M49.3865137,34.3173821 L50.9963252,34.3173821 L47.4748625,45.938209 L45.7644377,45.938209 L43.148494,36.5476418 L40.3480927,45.938209 L38.6544368,45.9549779 L35.3677383,34.3173821 L36.9775498,34.3173821 L39.5599558,44.1942466 L42.377126,34.3173821 L44.054013,34.3173821 L46.6531878,44.1607088 L49.3865137,34.3173821 Z M53.8973397,37.419623 C53.8973397,37.8444365 54.0147206,38.1965793 54.249486,38.4760619 C54.4842513,38.7555444 54.786088,38.9623584 55.155005,39.0965101 C55.5239219,39.2306617 55.9347552,39.3480426 56.3875169,39.4486563 C56.8402787,39.54927 57.2930336,39.6638562 57.7457954,39.7924182 C58.1985571,39.9209801 58.6093903,40.0858724 58.9783073,40.2870998 C59.3472243,40.4883273 59.649061,40.7901639 59.8838263,41.1926188 C60.1185917,41.5950737 60.2359726,42.0925452 60.2359726,42.6850482 C60.2359726,43.5905718 59.8894194,44.3787008 59.1963026,45.0494589 C58.5031859,45.7202171 57.5669333,46.0555911 56.3875169,46.0555911 C55.2081005,46.0555911 54.2494897,45.7844971 53.5116557,45.2423009 C52.7738217,44.7001048 52.4049103,43.9650766 52.4049103,43.0371945 L54.0314907,43.0371945 C54.0762079,43.5626217 54.2858167,43.9874289 54.6603233,44.3116286 C55.0348299,44.6358284 55.5909919,44.7979259 56.3288259,44.7979259 C57.0666598,44.7979259 57.6535644,44.6078806 58.0895572,44.2277843 C58.52555,43.847688 58.7435432,43.4033174 58.7435432,42.8946591 C58.7435432,42.3860009 58.6261622,41.9947311 58.3913969,41.7208382 C58.1566315,41.4469453 57.8547949,41.2429261 57.4858779,41.1087745 C57.1169609,40.9746228 56.7061277,40.8600367 56.2533659,40.7650126 C55.8006042,40.6699886 55.3478492,40.5554024 54.8950875,40.4212508 C54.4423257,40.2870992 54.0314925,40.1166174 53.6625755,39.9098003 C53.2936585,39.7029832 52.9918219,39.3955569 52.7570565,38.9875124 C52.5222912,38.5794679 52.4049103,38.073612 52.4049103,37.4699297 C52.4049103,36.486151 52.7542582,35.6952272 53.4529646,35.0971345 C54.1516711,34.4990419 55.0627706,34.2 56.1862905,34.2 C57.3098104,34.2 58.2041412,34.4599149 58.8693097,34.9797525 C59.5344782,35.49959 59.9173636,36.2178494 60.0179773,37.1345523 L58.3243214,37.1345523 C58.2796042,36.6762009 58.0644058,36.2849311 57.6787199,35.9607314 C57.293034,35.6365316 56.7732042,35.4744341 56.119215,35.4744341 C55.4652258,35.4744341 54.9314221,35.6393264 54.5177879,35.9691158 C54.1041537,36.2989052 53.8973397,36.7824028 53.8973397,37.419623 Z M69.2660091,35.2732077 C69.9535362,35.9104279 70.2972946,36.7265048 70.2972946,37.7214627 C70.2972946,38.7164206 69.9647154,39.5352923 69.2995468,40.1781022 C68.6343783,40.8209121 67.6254614,41.1423122 66.2727658,41.1423122 L64.0257372,41.1423122 L64.0257372,45.938209 L62.49977,45.938209 L62.49977,34.3173821 L66.2727658,34.3173821 C67.5807442,34.3173821 68.578482,34.6359874 69.2660091,35.2732077 Z M64.0257372,39.9349536 L66.2727658,39.9349536 C67.1112135,39.9349536 67.7344503,39.7421135 68.1424948,39.3564275 C68.5505394,38.9707416 68.7545586,38.4313483 68.7545586,37.7382316 C68.7545586,36.2737429 67.9273026,35.5415096 66.2727658,35.5415096 L64.0257372,35.5415096 L64.0257372,39.9349536 Z M80.2076968,45.938209 L79.3021778,43.3893408 L74.1373659,43.3893408 L73.2318469,45.938209 L71.672342,45.938209 L75.8980972,34.3173821 L77.5749842,34.3173821 L81.7839706,45.938209 L80.2076968,45.938209 Z M74.5733565,42.1819821 L78.8661872,42.1819821 L76.7197718,36.1787267 L74.5733565,42.1819821 Z M90.5457052,35.2732077 C91.2332323,35.9104279 91.5769907,36.7265048 91.5769907,37.7214627 C91.5769907,38.7164206 91.2444114,39.5352923 90.5792429,40.1781022 C89.9140744,40.8209121 88.9051575,41.1423122 87.5524619,41.1423122 L85.3054333,41.1423122 L85.3054333,45.938209 L83.7794661,45.938209 L83.7794661,34.3173821 L87.5524619,34.3173821 C88.8604403,34.3173821 89.8581781,34.6359874 90.5457052,35.2732077 Z M85.3054333,39.9349536 L87.5524619,39.9349536 C88.3909096,39.9349536 89.0141464,39.7421135 89.4221909,39.3564275 C89.8302355,38.9707416 90.0342547,38.4313483 90.0342547,37.7382316 C90.0342547,36.2737429 89.2069987,35.5415096 87.5524619,35.5415096 L85.3054333,35.5415096 L85.3054333,39.9349536 Z M99.6260483,34.3173821 L99.6260483,35.5247407 L94.9978402,35.5247407 L94.9978402,39.4821941 L99.1229822,39.4821941 L99.1229822,40.6727838 L94.9978402,40.6727838 L94.9978402,44.7308504 L99.6260483,44.7308504 L99.6260483,45.938209 L93.471873,45.938209 L93.471873,34.3173821 L99.6260483,34.3173821 Z M103.46612,41.1423122 L103.46612,45.938209 L101.940152,45.938209 L101.940152,34.3173821 L105.713148,34.3173821 C107.021127,34.3173821 108.018864,34.6359874 108.706391,35.2732077 C109.393919,35.9104279 109.737677,36.6901726 109.737677,37.6124651 C109.737677,38.5347575 109.486146,39.303323 108.983078,39.9181847 C108.480009,40.5330463 107.725418,40.9187265 106.71928,41.0752367 L109.922135,45.938209 L108.010483,45.938209 L104.958549,41.1423122 L103.46612,41.1423122 Z M103.46612,35.5415096 L103.46612,39.9349536 L105.713148,39.9349536 C106.551596,39.9349536 107.174833,39.7421135 107.582877,39.3564275 C107.990922,38.9707416 108.194941,38.4313483 108.194941,37.7382316 C108.194941,36.2737429 107.367685,35.5415096 105.713148,35.5415096 L103.46612,35.5415096 Z M111.682866,44.8146947 L113.242371,44.8146947 C113.801336,47.1623483 113.298275,48.3361575 111.733173,48.3361575 L111.733173,47.5983272 C112.012655,47.5983272 112.216674,47.5312524 112.345236,47.3971007 C112.473798,47.2629491 112.538078,47.0505455 112.538078,46.7598837 L112.538078,46.3741997 L111.682866,46.3741997 L111.682866,44.8146947 Z M132.291807,34.3173821 L132.291807,45.938209 L130.749071,45.938209 L130.749071,37.4699297 L126.858693,45.938209 L125.86933,45.938209 L121.962183,37.4699297 L121.962183,45.938209 L120.436216,45.938209 L120.436216,34.3173821 L121.995721,34.3173821 L126.372396,43.8421003 L130.732302,34.3173821 L132.291807,34.3173821 Z M142.822658,45.938209 L141.917139,43.3893408 L136.752327,43.3893408 L135.846808,45.938209 L134.287303,45.938209 L138.513058,34.3173821 L140.189945,34.3173821 L144.398931,45.938209 L142.822658,45.938209 Z M137.188317,42.1819821 L141.481148,42.1819821 L139.334733,36.1787267 L137.188317,42.1819821 Z M147.501172,44.3619353 C146.360883,43.244005 145.790748,41.8270496 145.790748,40.1110267 C145.790748,38.3950037 146.360883,36.9808432 147.501172,35.8685026 C148.641461,34.756162 150.044443,34.2 151.710159,34.2 C152.917523,34.2 153.993515,34.4850679 154.938166,35.0552124 C155.882817,35.6253568 156.578718,36.4470232 157.025891,37.5202363 L155.181315,37.5202363 C154.488198,36.2122579 153.331158,35.5582785 151.710159,35.5582785 C150.446898,35.5582785 149.404443,35.9747012 148.582764,36.8075593 C147.761086,37.6404173 147.350253,38.7443569 147.350253,40.1194111 C147.350253,41.4944653 147.761086,42.6011997 148.582764,43.4396474 C149.404443,44.2780951 150.427334,44.6973127 151.651468,44.6973127 C152.875601,44.6973127 153.859365,44.3507595 154.602789,43.6576427 C155.346212,42.9645259 155.779404,42.0254786 155.902376,40.8404725 L151.106479,40.8404725 L151.106479,39.6331139 L157.512188,39.6331139 L157.512188,40.8404725 C157.355678,42.3384991 156.735236,43.5793831 155.650843,44.5631617 C154.566451,45.5469403 153.22216,46.0388223 151.61793,46.0388223 C150.0137,46.0388223 148.641461,45.4798655 147.501172,44.3619353 Z M167.439359,45.938209 L166.53384,43.3893408 L161.369028,43.3893408 L160.463509,45.938209 L158.904004,45.938209 L163.129759,34.3173821 L164.806646,34.3173821 L169.015633,45.938209 L167.439359,45.938209 Z M161.805018,42.1819821 L166.097849,42.1819821 L163.951434,36.1787267 L161.805018,42.1819821 Z M178.003747,34.3173821 L178.003747,35.5415096 L172.352638,44.7308504 L178.003747,44.7308504 L178.003747,45.938209 L170.591906,45.938209 L170.591906,44.7308504 L176.259784,35.5415096 L170.591906,35.5415096 L170.591906,34.3173821 L178.003747,34.3173821 Z M180.099856,45.938209 L180.099856,34.3173821 L181.625823,34.3173821 L181.625823,45.938209 L180.099856,45.938209 Z M191.804527,34.3173821 L193.330494,34.3173821 L193.330494,45.938209 L191.804527,45.938209 L185.667121,36.7153305 L185.667121,45.938209 L184.141153,45.938209 L184.141153,34.3173821 L185.667121,34.3173821 L191.804527,43.5402606 L191.804527,34.3173821 Z M202,34.3173821 L202,35.5247407 L197.371792,35.5247407 L197.371792,39.4821941 L201.496934,39.4821941 L201.496934,40.6727838 L197.371792,40.6727838 L197.371792,44.7308504 L202,44.7308504 L202,45.938209 L195.845825,45.938209 L195.845825,34.3173821 L202,34.3173821 Z" id="Newspaper,-Magazine" fill="#111111" opacity="0.7"></path>
                <circle id="Oval" fill="#105EFB" cx="4.5" cy="16.5" r="4.5"></circle>
            </g>
        </g>
    </g>
</svg>