<svg data-v-423bf9ae="" xmlns="http://www.w3.org/2000/svg" viewBox="0 0 441 90" class="iconLeft"><!----><!----><!----><g data-v-423bf9ae="" id="fc3cf397-b072-4d6e-938b-de54e8d4530a" fill="white" transform="matrix(6.0229020261369834,0,0,6.0229020261369834,151.88349089301363,-17.102069247147796)"><path d="M9.21 12.87C8.79 12.64 8.34 12.45 7.98 12.25C7.62 13.13 6.15 13.69 5.40 13.69C4.02 13.69 1.88 12.43 1.88 10.65C1.88 10.16 2.11 9.11 2.21 8.99C3.42 7.41 4.07 7.10 5.24 7.10C5.35 7.10 6.27 7.13 6.62 7.25C7.11 7.42 7.60 8.08 7.70 8.08C8.01 8.08 8.86 7.42 9.17 7.46C9.07 7.36 8.97 7.27 8.95 7.15C8.65 6.19 7.18 5.33 6.31 5.33C6.19 5.33 4.86 5.45 4.17 5.59C3.93 5.63 3.70 5.85 3.47 5.92C2.94 6.09 2.37 6.29 1.79 6.71C0.66 7.50 0.63 8.48 0.56 9.25C0.52 9.67 0.34 10.40 0.34 10.51C0.34 10.86 0.88 12.61 1.23 13.26C1.44 13.64 2.41 14.43 2.63 14.52C4.23 15.08 4.59 15.04 5.43 15.04C5.56 15.04 6.16 15.06 6.27 15.02C7.11 14.71 8.97 14.24 9.21 12.87ZM14.76 12.36C14.15 12.39 13.34 12.29 12.81 12.32C13.26 11.52 13.31 10.61 13.71 9.72C13.92 10.14 14.13 10.67 14.25 11.09C14.38 11.48 14.57 11.94 14.76 12.36ZM17.65 15.12C16.65 12.84 15.96 10.79 15.26 8.89C15.05 8.34 14.63 7.60 14.49 7.21C14.34 6.80 14.25 6.27 14.08 5.91C14.01 5.75 13.82 5.53 13.71 5.47C13.47 6.03 13.22 6.71 13.02 7.11C12.70 7.78 12.14 8.65 12.03 9.03C11.48 10.77 10.74 13.38 9.87 15.12L11.68 15.12C11.86 14.76 11.82 14.22 12.14 14.03C12.59 13.75 13.64 14 15.43 13.96C15.55 14.34 15.72 14.80 15.93 15.12L17.65 15.12ZM23.30 8.67C23.30 8.93 23.32 9.20 22.97 9.55C22.79 9.73 22.36 9.73 22.02 9.76C21.76 9.79 21.32 9.88 21.21 9.88C21.11 9.88 20.45 9.83 20.13 9.69C19.98 9.62 19.94 8.85 19.94 8.54C19.94 8.43 20.03 7.64 20.03 7.24C20.17 7.28 20.41 7.38 20.52 7.38C20.64 7.38 21.46 7.28 21.57 7.28C22.33 7.28 23.30 7.62 23.30 8.67ZM24.86 15.19C24.72 14.53 24.21 14.13 23.84 13.20C23.51 12.36 23.58 11.84 23.03 11.12C24.19 11.05 24.77 9.02 24.77 8.09C24.77 7.97 24.77 7.73 24.75 7.62C24.68 7.04 23.28 5.89 22.65 5.82C21.76 5.71 20.03 5.59 19.94 5.59C19.94 5.59 18.79 5.60 18.61 5.87C18.65 6.17 18.62 6.62 18.61 6.86C18.58 7.45 18.51 8.19 18.51 8.29L18.51 14.69C18.51 14.80 18.61 15.02 18.65 15.16C18.83 15.11 18.90 15.12 19.00 15.12C19.12 15.12 19.66 15.20 20.06 15.25C20.06 14.70 20.16 14.15 20.08 12.14C20.06 11.90 19.96 11.42 20.10 11.31C20.55 11.35 21.11 11.06 21.38 11.37C22.04 12.10 22.97 13.87 23.10 15.05C23.00 15.33 23.81 15.29 23.98 15.29C24.09 15.29 24.68 15.27 24.86 15.19ZM34.44 11.34C34.44 10.78 34.37 9.66 34.12 9.52C32.90 9.58 31.68 9.58 30.46 9.63C30.38 9.87 30.24 10.84 30.24 10.93C30.24 11.05 30.28 11.05 30.28 11.09C31.44 11.05 32.37 10.96 32.45 10.96C32.91 10.96 32.97 11.58 32.97 11.87C32.97 11.97 32.96 12.15 32.91 12.22C32.61 12.67 31.75 13.13 31.46 13.23C31.04 13.37 30.18 13.37 30.09 13.37C29.97 13.37 29.41 13.34 29.33 13.27C27.66 11.96 27.41 11.47 27.41 10.19C27.41 9.49 27.59 9.23 27.66 9.06C28.39 7.38 29.81 7.29 31.15 7.29C32.28 7.29 32.63 7.91 32.76 7.91C33.10 7.91 33.42 7.43 33.80 7.10C33.80 6.99 33.78 6.90 33.91 6.82L33.60 6.58C32.52 5.45 31.68 5.36 30.86 5.36C29.93 5.36 27.78 5.75 27.05 7.35C26.85 7.77 26.33 8.13 26.18 8.47C25.94 8.96 25.90 8.92 25.90 9.51C25.90 9.62 25.89 11.02 26.08 11.70C26.25 12.25 26.74 12.71 27.05 13.23C27.15 13.38 27.19 13.64 27.30 13.76C27.48 13.97 27.78 14.07 27.92 14.20C28.32 14.53 28.80 15.05 29.09 15.06C29.39 15.08 29.92 15.08 30.02 15.08C31.61 15.08 32.14 14.84 33.92 13.59C34.08 13.48 34.20 13.22 34.24 13.09C34.34 12.78 34.44 12.36 34.44 11.34ZM43.37 10.49C43.37 11.68 42.14 13.61 40.60 13.61C39.72 13.61 38.12 13.03 37.35 11.66C37.31 11.59 36.86 10.74 36.86 10.53C36.86 9.74 38.02 7.48 38.99 7.45C39.14 7.38 39.45 7.32 39.59 7.32C39.69 7.32 40.80 7.38 41.29 7.43C41.44 7.45 41.72 7.60 41.89 7.67C42.28 7.83 42.60 8.36 42.70 8.67C42.77 8.93 43.04 9.20 43.16 9.49C43.30 9.80 43.37 10.37 43.37 10.49ZM44.97 9.94C44.97 9.27 44.93 9.14 44.55 8.22C44.03 7 42.45 6.02 41.61 5.70C41.27 5.56 40.33 5.49 40.24 5.49C39.40 5.49 38.35 6.09 37.70 6.43C36.95 6.83 36.36 7.80 36.08 8.34C35.63 9.18 35.49 9.67 35.49 10.21C35.49 10.81 35.85 12.36 36.01 12.71C36.26 13.29 36.75 13.52 37.24 14C37.37 14.11 37.56 14.15 37.65 14.25C38.43 15.09 39.02 15.16 39.68 15.16C42.80 15.16 44.97 13.29 44.97 9.94ZM47.89 14.97C47.95 14 47.89 13.24 46.94 13.24C46.24 13.24 45.99 13.65 45.99 14.21C45.99 15.11 46.44 15.19 47.05 15.19C47.29 15.19 47.73 15.19 47.89 14.97Z"></path></g><!----><g data-v-423bf9ae="" id="3a4d833e-c636-4e04-bb74-6bb7038c2e1a" transform="matrix(1.650044501551155,0,0,1.650044501551155,-11.775415760492322,-33.42916298734825)" stroke="none" fill="white"><path d="M51.09 33.052c3.149-.085 6.25-.521 9.372.142 3.43.729 6.201 4.458 8.295 7.039 2.754 3.395 4.799 6.578 9.271 7.604 3.935.904 7.597.139 8.968 5.148.885 3.235.328 6.587-1.088 9.55-1.654 3.459-6.894 4.754-9.58 1.188-2.367-3.143-4.155-4.546-8.301-3.798-7.622 1.376-7.621 10.868-.743 13.39 6.658 2.441 12.743-2.807 10.063-9.643-.291-.742-1.5-.419-1.205.332 2.98 7.605-5.744 11.271-10.96 6.299-5.878-5.603 4.863-13.853 10.067-5.949.733 1.114 1.596 1.784 2.715 2.478 2.325 1.442 5.493-.275 7.314-1.677 3.168-2.437 3.483-6.978 3.214-10.611-.22-2.971-1.27-5.283-3.854-6.769-1.061-.609-2.568-.84-3.765-.919-3.836-.255-6.289-1.419-8.757-4.316-2.82-3.309-5.131-6.762-8.728-9.328-3.529-2.516-8.288-1.519-12.297-1.41-.805.022-.807 1.272-.001 1.25z"></path><path d="M61.342 66.302c-.169.43-8.484-.086-9.542-.12-4.916-.156-9.827-.421-14.742-.61-1.426-.055-2.853-.107-4.28-.089.144-.002-.965-2.796-1.517-3.51-1.859-2.408-5.28-2.713-8.04-2.265-8.492 1.382-8.525 12.724-.833 15.332 4.448 1.508 14.556-7.89 9.12-10.427-.726-.339-1.361.738-.631 1.079 2.554 1.192-1.221 4.893-2.412 6.02-4.827 4.571-11.786.356-10.433-6.102 1.402-6.692 12.829-6.447 13.522.529.032.317.261.653.625.625 6.114-.474 12.503.407 18.62.633 1.737.064 10.86 1.49 11.748-.763.296-.751-.913-1.073-1.205-.332z"></path><path d="M16.556 66.5c-9.97-1.199-7.839-9.78-6.914-17.013.444-3.473.81-6.946.785-10.451-.023-3.208-.952-6.345-.975-9.571-.021-2.948 1.36-7.612 4.998-7.364 3.363.229 6.711.645 10.061 1.009 7.329.796 14.746.514 22.102.41 3.137-.044 6.273-.05 9.411-.008.835.011 1.67-.05 2.507-.039l-.121 2.204c-.577.073-1.153.148-1.729.226-3.048.68-5.686 1.282-6.772 4.446-.842 2.451-.22 5.684-.114 8.191.156 3.729.443 7.452.6 11.182.25 5.938-1.831 11.857-.893 17.733.086.538.908.603 1.142.149.344-.665.365-.721.557-1.465.201-.781-1.004-1.112-1.205-.332l-.431 1.166 1.142.149c-.654-4.1.487-8.124.943-12.184.532-4.732-.234-9.799-.509-14.535-.25-4.318-1.789-10.982 3.42-12.708 1.629-.54 4.908-.28 6.261-1.565 2.218-2.109-.094-3.653-2.29-3.908-8.71-1.01-18.009.27-26.789.097-4.224-.083-8.402-.592-12.596-1.053-1.985-.218-5.516-1.203-7.437-.078-4.105 2.405-3.647 9.359-3.113 13.24 1.182 8.593-1.366 16.6-1.189 25.114.124 5.949 3.896 7.573 9.15 8.205.797.1.788-1.151-.002-1.247z"></path><path d="M66.22 37.229c-3.627-.251-7.58-1.832-9.467 2.323-1.018 2.241-1.033 6.483.768 8.396 4.416 4.693 12.064-.26 17.251-.26.806 0 .806-1.25 0-1.25-3.729 0-7.415 1.717-11.128 2.088-3.232.323-5.752-.769-6.172-4.258-.33-2.74.168-6.012 3.651-6.446 1.582-.197 3.475.545 5.098.658.804.054.798-1.196-.001-1.251z"></path><path d="M64.792 38.131c.697.875 1.705.976 2.746.818.795-.12.456-1.324-.332-1.205-.635.096-1.121.016-1.53-.497-.503-.63-1.382.26-.884.884zM87.6 54.683c-1.734-.28-4.749-1.53-6.37-.235-1.118.893-.788 2.878-.977 4.125-.047.309.073.706.437.769 2.035.35 4.05.802 6.085 1.151.788.136 1.125-1.069.332-1.205-2.035-.35-4.05-.802-6.085-1.151l.437.769c.154-1.011-.042-2.439.433-3.357.599-1.159 4.465.193 5.377.34.787.126 1.126-1.078.331-1.206zM51.748 27.855c-14.088.147-28.175-.165-42.264-.165-.806 0-.806 1.25 0 1.25 14.088 0 28.175.312 42.264.165.806-.008.806-1.258 0-1.25z"></path></g><!----></svg>