<svg width="1440" height="924" viewBox="0 0 1440 924" xmlns="http://www.w3.org/2000/svg"><title>proto-background-nuanced</title><defs><linearGradient x1="62.023%" y1="42.199%" x2="53.056%" y2="111.431%" id="a"><stop stop-color="#130E29" offset="0%"/><stop stop-color="#140A33" offset="100%"/></linearGradient><radialGradient cx="49.104%" cy="105.515%" fx="49.104%" fy="105.515%" r="88.612%" gradientTransform="matrix(0 -1 .82157 0 -.376 1.546)" id="b"><stop stop-color="#FF0095" offset="0%"/><stop stop-color="#B30D78" stop-opacity=".668" offset="30.681%"/><stop stop-color="#280E76" stop-opacity="0" offset="100%"/></radialGradient><linearGradient x1="50%" y1="100%" x2="50%" y2="10.219%" id="c"><stop stop-color="#06053E" offset="0%"/><stop stop-color="#171522" stop-opacity=".851" offset="100%"/></linearGradient></defs><g fill="none" fill-rule="evenodd"><path fill="url(#a)" d="M0 0H1440V924H0z"/><g transform="matrix(0 -1 -1 0 1440 924)" fill="#351498" fill-opacity=".12"><path d="M923 0H0l1.429 721h13.777c355.1 0 641.834-116.684 860.202-350.051 14.614-15.62 33.677-35.121 47.592-49.677V0z"/><path d="M777.408 0H.355L0 717.852c203.706-20.03 370.568-135.665 500.584-346.903C644.22 137.58 736.495 13.932 777.408 0z"/><path d="M923 0H.218L0 720.715c283.942-6.465 514.188-123.054 690.736-349.766C783.628 251.662 870.617 169.787 923 102.123V0z"/><path d="M574.484 0H1.908L0 709.948c142.295-34.098 260.409-147.098 354.34-339C468.566 137.582 541.948 13.933 574.483 0z"/><path d="M451.956 0H0l1.783 697.258c104.537-44.949 192.53-153.718 263.98-326.31C362.374 137.582 424.439 13.933 451.957 0z"/><path d="M329.205 0H0l1.076 671.521c68.371-54.751 127.138-154.942 176.3-300.572C256.156 137.58 306.766 13.932 329.205 0z"/><path d="M163.675 0H0l.984 555.372c20.543-50.106 39.407-111.58 56.591-184.423C112.629 137.58 147.995 13.932 163.675 0z"/></g><g transform="rotate(-90 462 462)" fill="#351498" fill-opacity=".12"><path d="M923 0H0l1.429 719h13.777c355.1 0 641.834-116.36 860.202-349.08 14.614-15.576 33.677-35.024 47.592-49.54V0z"/><path d="M777.408 0H.355L0 715.861c203.706-19.976 370.568-135.29 500.584-345.941C644.22 137.2 736.495 13.893 777.408 0z"/><path d="M923 0H.218L0 718.716c283.942-6.447 514.188-122.713 690.736-348.796C783.628 250.964 870.617 169.316 923 101.84V0z"/><path d="M574.484 0H1.908L0 707.979c142.295-34.004 260.409-146.69 354.34-338.06C468.566 137.2 541.948 13.894 574.483 0z"/><path d="M451.956 0H0l1.783 695.324C106.32 650.5 194.313 542.032 265.763 369.92 362.374 137.2 424.439 13.893 451.957 0z"/><path d="M329.205 0H0l1.076 669.658c68.371-54.6 127.138-154.512 176.3-299.738C256.156 137.2 306.766 13.893 329.205 0z"/><path d="M163.675 0H0l.984 553.831c20.543-49.967 39.407-111.27 56.591-183.911C112.629 137.2 147.995 13.893 163.675 0z"/></g><path fill="url(#b)" opacity=".425" d="M0 155H1440V924H0z"/><path fill="url(#c)" opacity=".559" d="M0 0H1440V924H0z"/></g></svg>