<?xml version="1.0" encoding="utf-8"?> <!-- Generated by Layerhero SVG Exporter: http://www.layerhero.com/photoshop-svg-exporter --><!DOCTYPE svg PUBLIC "-//W3C//DTD SVG 1.1//EN" "http://www.w3.org/Graphics/SVG/1.1/DTD/svg11.dtd"><svg version="1.1" baseProfile="full" xmlns="http://www.w3.org/2000/svg" xmlns:xlink="http://www.w3.org/1999/xlink" xmlns:ev="http://www.w3.org/2001/xml-events" width="150" height="95" viewBox="0 0 150 95"><g transform="scale(NaN)" ><path fill-rule="evenodd"  fill="rgb( 223, 223, 223 )" d="M-0.000,-0.000 C-0.000,-0.000 150.000,-0.000 150.000,-0.000 C150.000,-0.000 150.000,95.000 150.000,95.000 C150.000,95.000 -0.000,95.000 -0.000,95.000 C-0.000,95.000 -0.000,-0.000 -0.000,-0.000 Z"/><path fill-rule="evenodd"  fill="rgb( 255, 255, 255 )" d="M75.233,67.971 C75.233,67.971 75.239,67.971 75.239,67.971 C75.344,67.831 75.446,67.693 75.548,67.550 C75.442,67.697 75.337,67.828 75.233,67.971 ZM73.147,70.825 C73.161,70.807 73.176,70.785 73.192,70.767 C73.192,70.767 73.190,70.767 73.190,70.767 C73.175,70.785 73.161,70.807 73.147,70.825 ZM77.537,64.926 C77.695,64.718 77.852,64.510 78.009,64.305 C78.009,64.305 78.005,64.305 78.005,64.305 C77.850,64.508 77.693,64.718 77.537,64.926 ZM100.354,50.019 C100.010,50.372 99.655,50.716 99.295,51.057 C99.171,51.175 99.044,51.292 98.917,51.410 C98.556,51.749 98.194,52.077 97.821,52.400 C97.811,52.410 97.804,52.416 97.795,52.428 C97.907,52.665 97.977,52.927 97.977,53.215 C97.977,54.226 97.171,55.047 96.181,55.047 C96.181,55.047 94.519,55.047 94.519,55.047 C94.615,54.977 94.710,54.900 94.807,54.826 C94.474,55.076 94.133,55.314 93.792,55.552 C93.539,55.734 93.286,55.913 93.029,56.088 C92.706,56.309 92.378,56.522 92.049,56.741 C91.746,56.933 91.437,57.128 91.128,57.320 C90.821,57.510 90.518,57.702 90.208,57.886 C90.231,57.870 90.257,57.858 90.282,57.843 C90.282,57.843 96.181,57.843 96.181,57.843 C97.171,57.843 97.977,58.663 97.977,59.677 C97.977,60.692 97.171,61.507 96.181,61.507 C96.181,61.507 83.035,61.507 83.035,61.507 C83.042,61.505 83.050,61.504 83.057,61.500 C82.670,61.663 82.283,61.828 81.889,61.988 C81.651,62.086 81.412,62.185 81.172,62.282 C80.428,62.568 79.679,62.854 78.913,63.121 C78.612,63.510 78.312,63.913 78.009,64.305 C78.009,64.305 96.181,64.305 96.181,64.305 C97.171,64.305 97.977,65.123 97.977,66.137 C97.977,67.147 97.171,67.971 96.181,67.971 C96.181,67.971 75.239,67.971 75.239,67.971 C74.555,68.896 73.871,69.825 73.192,70.767 C73.192,70.767 96.181,70.767 96.181,70.767 C97.171,70.767 97.977,71.587 97.977,72.601 C97.977,73.612 97.171,74.431 96.181,74.431 C96.181,74.431 70.592,74.431 70.592,74.431 C70.481,74.595 70.367,74.752 70.257,74.912 C70.257,74.912 65.147,77.518 65.147,77.518 C65.147,77.518 65.367,74.431 65.367,74.431 C65.367,74.431 51.377,74.431 51.377,74.431 C50.384,74.431 49.582,73.612 49.582,72.601 C49.582,71.587 50.384,70.767 51.377,70.767 C51.377,70.767 66.157,70.767 66.157,70.767 C66.585,69.828 67.014,68.891 67.449,67.966 C67.447,67.968 67.445,67.969 67.445,67.971 C67.445,67.971 51.377,67.971 51.377,67.971 C50.384,67.971 49.582,67.147 49.582,66.137 C49.582,65.123 50.384,64.305 51.377,64.305 C51.377,64.305 69.195,64.305 69.195,64.305 C69.653,63.366 70.111,62.434 70.572,61.507 C70.572,61.507 51.377,61.507 51.377,61.507 C50.384,61.507 49.582,60.692 49.582,59.677 C49.582,58.663 50.384,57.843 51.377,57.843 C51.377,57.843 72.219,57.843 72.219,57.843 C72.239,56.899 72.295,55.963 72.378,55.038 C72.378,55.043 72.378,55.047 72.378,55.047 C72.378,55.047 51.377,55.047 51.377,55.047 C50.384,55.047 49.582,54.226 49.582,53.215 C49.582,52.199 50.384,51.381 51.377,51.381 C51.377,51.381 72.864,51.381 72.864,51.381 C73.040,50.413 73.254,49.458 73.505,48.522 C73.497,48.544 73.490,48.565 73.483,48.589 C73.483,48.589 51.377,48.589 51.377,48.589 C50.384,48.589 49.582,47.764 49.582,46.757 C49.582,45.740 50.384,44.919 51.377,44.919 C51.377,44.919 74.674,44.919 74.674,44.919 C74.670,44.926 74.670,44.935 74.666,44.941 C75.033,43.980 75.429,43.044 75.873,42.125 C75.873,42.125 51.377,42.125 51.377,42.125 C50.384,42.125 49.582,41.304 49.582,40.291 C49.582,39.280 50.384,38.459 51.377,38.459 C51.377,38.459 77.942,38.459 77.942,38.459 C77.939,38.463 77.938,38.466 77.933,38.473 C78.555,37.509 79.235,36.571 79.955,35.663 C79.955,35.663 51.377,35.663 51.377,35.663 C50.384,35.663 49.582,34.842 49.582,33.832 C49.582,32.818 50.384,31.993 51.377,31.993 C51.377,31.993 83.274,31.993 83.274,31.993 C84.273,31.025 85.330,30.093 86.460,29.204 C86.460,29.204 51.377,29.204 51.377,29.204 C50.384,29.204 49.582,28.383 49.582,27.372 C49.582,26.356 50.384,25.537 51.377,25.537 C51.377,25.537 91.768,25.537 91.768,25.537 C91.768,25.537 90.642,26.255 90.642,26.255 C90.642,26.255 97.295,22.798 98.077,22.477 C98.345,22.366 98.617,22.260 98.888,22.156 C99.413,21.950 99.940,21.751 100.473,21.559 C100.797,21.442 101.118,21.328 101.444,21.213 C101.997,21.030 102.556,20.855 103.117,20.679 C103.398,20.593 103.674,20.503 103.957,20.421 C103.959,20.421 103.961,20.421 103.961,20.421 C103.961,20.421 103.961,15.590 103.961,15.590 C103.961,11.960 101.082,9.010 97.532,9.010 C97.532,9.010 49.458,9.010 49.458,9.010 C45.909,9.010 43.027,11.960 43.027,15.590 C43.027,15.590 43.027,80.445 43.027,80.445 C43.027,84.077 45.909,87.026 49.458,87.026 C49.458,87.026 97.532,87.026 97.532,87.026 C101.082,87.026 103.961,84.077 103.961,80.445 C103.961,80.445 103.961,45.873 103.961,45.873 C102.942,47.214 101.828,48.501 100.625,49.739 C100.536,49.831 100.446,49.922 100.354,50.019 ZM51.377,19.073 C51.377,19.073 96.181,19.073 96.181,19.073 C97.171,19.073 97.977,19.892 97.977,20.908 C97.977,21.919 97.171,22.744 96.181,22.744 C96.181,22.744 51.377,22.744 51.377,22.744 C50.384,22.744 49.582,21.919 49.582,20.908 C49.582,19.892 50.384,19.073 51.377,19.073 ZM113.754,18.877 C111.701,19.928 109.696,21.080 107.726,22.306 C103.151,23.386 98.799,24.979 94.841,27.066 C93.027,29.279 91.796,32.459 90.729,35.580 C90.717,35.684 90.695,35.790 90.680,35.903 C90.647,35.935 90.617,35.969 90.586,36.005 C90.553,36.098 90.518,36.206 90.484,36.304 C90.439,34.135 90.334,31.913 90.549,29.636 C81.133,36.035 74.868,45.830 74.934,59.023 C72.475,63.718 70.178,68.480 68.021,73.297 C70.990,69.004 74.075,64.809 77.279,60.737 C89.081,56.748 99.272,49.548 104.691,39.719 C102.260,40.124 99.732,40.608 97.551,41.200 C100.559,39.194 103.178,37.697 106.305,36.055 C103.901,36.756 101.499,37.346 99.148,38.050 C99.148,38.050 99.253,37.986 99.253,37.986 C99.037,38.043 98.821,38.106 98.609,38.167 C98.899,38.066 99.186,37.954 99.476,37.846 C102.197,36.109 105.024,34.492 107.597,32.694 C108.398,29.857 108.836,26.854 108.850,23.690 C110.507,22.167 112.218,20.702 114.013,19.304 C114.013,19.304 113.754,18.877 113.754,18.877 Z"/></g></svg>