<svg xmlns="http://www.w3.org/2000/svg" width="16" height="16" viewBox="0 0 16 16">
    <g fill="none" fill-rule="evenodd" opacity=".3">
        <g fill="#222" fill-rule="nonzero">
            <g>
                <path d="M19 22.439c.545 0 .987.442.987.987v2.206c.386-.376 1.003-.373 1.385.01.385.385.385 1.01 0 1.395l-1.674 1.674c-.193.193-.445.289-.698.289-.252 0-.505-.096-.698-.289l-1.674-1.674c-.385-.386-.385-1.01 0-1.396.382-.382 1-.385 1.385-.009v-2.206c0-.545.442-.987.987-.987zm4.641-3.811c.386-.385 1.01-.385 1.396 0l1.674 1.674c.385.386.385 1.01 0 1.396l-1.674 1.674c-.193.193-.445.289-.698.289-.252 0-.505-.096-.698-.289-.382-.382-.384-1-.009-1.385h-2.206c-.545 0-.987-.442-.987-.987 0-.545.442-.987.987-.987h2.206c-.375-.386-.373-1.003.01-1.385zm-10.678 0c.386-.385 1.01-.385 1.396 0 .382.382.385 1 .009 1.385h2.206c.545 0 .987.442.987.987 0 .545-.442.987-.987.987h-2.206c.376.386.373 1.003-.01 1.385-.192.193-.444.289-.697.289-.252 0-.505-.096-.697-.289l-1.675-1.674c-.385-.386-.385-1.01 0-1.396zm5.34-5.339c.385-.385 1.01-.385 1.395 0l1.674 1.674c.385.386.385 1.01 0 1.396-.193.192-.445.289-.698.289-.248 0-.496-.094-.687-.28v2.206c0 .545-.442.987-.987.987-.545 0-.987-.442-.987-.987v-2.206c-.386.376-1.003.373-1.385-.01-.385-.385-.385-1.01 0-1.395z" transform="translate(-270 -207) translate(259 194)"/>
            </g>
        </g>
    </g>
</svg>
