<?xml version="1.0" encoding="UTF-8"?>
<svg width="245px" height="38px" viewBox="0 0 245 38" version="1.1" xmlns="http://www.w3.org/2000/svg" xmlns:xlink="http://www.w3.org/1999/xlink">
    <title>sl-logo-white</title>
    <g id="Page-1" stroke="none" stroke-width="1" fill="none" fill-rule="evenodd">
        <g id="sl-logo-white" fill-rule="nonzero">
            <path d="M9.38178394,25.8073003 C11.5830808,28.0023337 13.7516679,30.2328605 15.9870665,32.3930961 C17.6796223,34.0299759 16.7415131,35.0922222 15.666054,36.238724 L15.4634046,36.4548413 C15.395724,36.5273167 15.3281157,36.6002822 15.2611883,36.6738985 C13.9284398,38.1409656 12.7877741,38.4945093 11.2866052,36.8604136 C9.34072275,34.7419349 7.23755514,32.7682144 5.21442202,30.7207231 C4.49132768,29.9892771 3.46897385,29.1917159 4.14056776,28.083064 C4.96387923,26.7231734 6.08436232,25.5330952 7.46373963,24.8844677 C8.40466703,24.8134806 8.89252953,25.3194378 9.38178394,25.8073003 Z M4.16680515,6.82165402 C4.79594597,7.34361819 5.45849247,7.80990618 6.02360567,8.37432343 C11.5856559,13.9294141 17.0704553,19.5638433 22.7153238,25.0319399 C24.577692,26.836544 24.0766063,27.9382364 22.5281126,29.560501 C20.8265095,31.3421387 19.6426947,31.2231309 17.9960718,29.531271 C12.5126642,23.8996256 6.90746501,18.3862921 1.38578007,12.7915322 C0.728105216,12.1248099 -0.58515663,11.4740946 0.293135076,10.2533944 C1.28834675,8.87123332 2.39212698,7.506471 4.16680515,6.82165402 Z M11.9543017,0.394187339 C14.5926566,3.00331222 17.2191803,5.6242683 19.8192578,8.27167055 C20.1164294,8.57440976 20.2229101,9.06505608 20.4003779,9.4318229 C19.685635,11.1048921 18.4510157,12.1996249 17.1168753,13.071653 C15.956027,13.8316329 15.2343246,12.6540817 14.5181897,11.9532578 C12.694099,10.1695323 10.8915827,8.36353625 9.1043774,6.54362119 C6.75484269,4.15093743 7.32830732,1.46873757 10.391889,0.160347392 C11.0426043,-0.118033497 11.5248992,-0.030343517 11.9543017,0.394187339 Z" id="Combined-Shape" fill="#cfd9e0"></path>
            <path d="M136.043181,5.90151661 L136.043181,26.903494 L146.337531,26.903494 L146.33657,31.8743166 L146.074537,32.5015166 L129.581034,32.5015166 L129.581034,5.90151661 L136.043181,5.90151661 Z M163.469735,5.90151661 L174.515498,32.5015166 L167.377079,32.5015166 L165.310695,27.2792002 L155.016345,27.2792002 L153.062673,32.5015166 L146.337531,32.5015166 L146.33657,31.8743166 L157.233012,5.90151661 L163.469735,5.90151661 Z M178.760978,5.90151661 L184.434142,15.7450194 L190.107305,5.90151661 L197.62143,5.90151661 L187.402221,21.2303302 L187.402221,32.5015166 L180.977644,32.5015166 L180.977644,21.2303302 L170.983859,5.90151661 L178.760978,5.90151661 Z M217.496288,5.90151661 L217.496288,11.3492567 L205.811825,11.3492567 L205.811825,16.3461494 L216.857588,16.3461494 L216.857588,21.4933245 L205.811825,21.4933245 L205.811825,27.0162059 L218.17256,27.0162059 L218.17256,32.5015166 L199.612673,32.5015166 L199.612673,5.90151661 L217.496288,5.90151661 Z M232.562108,5.90151661 L233.107648,5.90956746 C234.194896,5.94177085 235.259142,6.07058441 236.300385,6.29600814 C237.515168,6.55900249 238.604716,7.00358818 239.569029,7.6297652 C240.533341,8.25594222 241.303539,9.0824959 241.879622,10.1094262 C242.455705,11.1363565 242.743746,12.4137577 242.743746,13.9416296 C242.743746,15.7450194 242.255328,17.2603678 241.278492,18.4876748 C240.301656,19.7149818 238.949113,20.5916296 237.220865,21.1176183 L237.220865,21.1176183 L244.17143,32.5015166 L236.657305,32.5015166 L230.909,21.944172 L228.729904,21.944172 L228.729904,32.5015166 L222.41804,32.5015166 L222.41804,5.90151661 L232.562108,5.90151661 Z M43.2692259,5.86831661 C44.985355,5.86831661 46.4512152,6.17221446 47.6668066,6.78001016 C48.882398,7.38780586 49.8000503,8.1088184 50.4197636,8.9430478 L50.4197636,8.9430478 L48.3818604,10.5876715 L48.1933863,10.3389475 C47.6754873,9.69039668 47.0351758,9.15955018 46.2724518,8.74640801 C45.4143872,8.28162306 44.3775593,8.04923059 43.1619679,8.04923059 C42.5422546,8.04923059 41.9106238,8.14457109 41.2670754,8.3352521 C40.623527,8.5259331 40.0395664,8.81791339 39.5151937,9.21119296 C38.9908209,9.60447253 38.5677475,10.0990514 38.2459733,10.6949295 C37.9241991,11.2908077 37.763312,11.9939439 37.763312,12.8043381 C37.763312,13.6147324 37.9182403,14.2821159 38.2280969,14.8064887 C38.5379535,15.3308614 38.9491095,15.77777 39.4615647,16.1472145 C39.9740199,16.5166589 40.5579804,16.8205568 41.2134464,17.058908 C41.8689123,17.2972593 42.5541722,17.5356105 43.2692259,17.7739618 C44.1511256,18.0599833 45.038984,18.3698399 45.9328012,18.7035317 C46.8266184,19.0372234 47.6310539,19.4722145 48.3461077,20.0085048 C49.0611614,20.5447951 49.645122,21.2240962 50.0979894,22.046408 C50.5508568,22.8687198 50.7772905,23.9115066 50.7772905,25.1747682 C50.7772905,26.4380299 50.5329804,27.5284869 50.0443604,28.4461392 C49.5557403,29.3637915 48.9241095,30.1205568 48.1494679,30.7164349 C47.3748263,31.312313 46.4929267,31.7532628 45.503769,32.0392844 C44.5146113,32.3253059 43.5194948,32.4683166 42.5184195,32.4683166 C41.7556955,32.4683166 40.9929715,32.3908525 40.2302475,32.2359241 C39.4675234,32.0809958 38.7405521,31.8486034 38.0493335,31.5387467 C37.3581148,31.2288901 36.7145664,30.8356105 36.1186883,30.358908 C35.5228102,29.8822055 34.9984374,29.3339976 34.54557,28.7142844 L34.54557,28.7142844 L36.7622367,27.0696607 L36.9333133,27.336912 C37.4663859,28.1252588 38.1780432,28.7929403 39.0682851,29.3399564 C40.0574428,29.9477521 41.2194052,30.2516499 42.5541722,30.2516499 C43.1977206,30.2516499 43.8531865,30.1503507 44.52057,29.9477521 C45.1879535,29.7451535 45.7897905,29.4352969 46.3260808,29.0181822 C46.8623711,28.6010675 47.3033209,28.0886123 47.6489302,27.4808166 C47.9945396,26.8730209 48.1673442,26.1639259 48.1673442,25.3535317 C48.1673442,24.471632 47.9945396,23.7387019 47.6489302,23.1547413 C47.3033209,22.5707808 46.8444948,22.0821607 46.2724518,21.6888811 C45.7004087,21.2956016 45.0449428,20.9678686 44.3060539,20.7056822 C43.567165,20.4434958 42.7925234,20.1813094 41.9821292,19.9191231 C41.1478998,19.6569367 40.325588,19.3589976 39.5151937,19.0253059 C38.7047994,18.6916141 37.9778281,18.2566231 37.3342797,17.7203327 C36.6907313,17.1840424 36.1723173,16.5226177 35.7790378,15.7360585 C35.3857582,14.9494994 35.1891184,13.9841768 35.1891184,12.8400908 C35.1891184,11.6244994 35.4334285,10.5757539 35.9220485,9.69385425 C36.4106686,8.81195461 37.0482582,8.08498328 37.8348173,7.51294027 C38.6213765,6.94089726 39.4913586,6.52378256 40.4447636,6.26159618 C41.3981686,5.9994098 42.3396561,5.86831661 43.2692259,5.86831661 Z M88.8539034,5.86831661 C90.7368783,5.86831661 92.4828012,6.20200837 94.0916722,6.86939188 C95.7005432,7.53677539 97.094898,8.4603865 98.2747367,9.64022521 C99.4545754,10.8200639 100.378187,12.2203775 101.04557,13.8411661 C101.712954,15.4619546 102.046645,17.2376715 102.046645,19.1683166 C102.046645,21.0989618 101.712954,22.8746786 101.04557,24.4954672 C100.378187,26.1162557 99.4545754,27.5165693 98.2747367,28.696408 C97.094898,29.8762467 95.7005432,30.7998578 94.0916722,31.4672413 C92.4828012,32.1346249 90.7368783,32.4683166 88.8539034,32.4683166 C86.9709285,32.4683166 85.2250055,32.1346249 83.6161345,31.4672413 C82.0072636,30.7998578 80.6129087,29.8762467 79.43307,28.696408 C78.2532313,27.5165693 77.3296202,26.1162557 76.6622367,24.4954672 C75.9948532,22.8746786 75.6611614,21.0989618 75.6611614,19.1683166 C75.6611614,17.2376715 75.9948532,15.4619546 76.6622367,13.8411661 C77.3296202,12.2203775 78.2532313,10.8200639 79.43307,9.64022521 C80.6129087,8.4603865 82.0072636,7.53677539 83.6161345,6.86939188 C85.2250055,6.20200837 86.9709285,5.86831661 88.8539034,5.86831661 Z M63.4337421,6.511865 L63.910817,6.51828931 C65.010957,6.54826943 66.0198532,6.68317996 66.9375055,6.92302091 C67.986251,7.19712486 68.886027,7.61423955 69.6368335,8.174365 C70.3876399,8.73449045 70.9656417,9.43762665 71.3708388,10.2837736 C71.776036,11.1299206 71.9786345,12.125037 71.9786345,13.2691231 C71.9786345,14.4132091 71.7700772,15.4083256 71.3529625,16.2544725 C70.9358478,17.1006195 70.3518872,17.8037557 69.6010808,18.3638811 C68.8502743,18.9240066 67.9445396,19.3470801 66.8838765,19.6331016 C65.8232134,19.9191231 64.6493335,20.0621338 63.3622367,20.0621338 L63.3622367,20.0621338 L58.857398,20.0621338 L58.857398,31.8247682 L56.2832044,31.8247682 L56.2832044,6.511865 L63.4337421,6.511865 Z M122.926215,6.511865 L122.926215,8.80003704 L114.452828,8.80003704 L114.452828,31.8247682 L111.878635,31.8247682 L111.878635,8.80003704 L103.405247,8.80003704 L103.405247,6.511865 L122.926215,6.511865 Z M88.8539034,8.12073597 C87.2331148,8.12073597 85.7732134,8.41867504 84.4741991,9.01455317 C83.1751847,9.61043131 82.0728102,10.4148668 81.1670754,11.4278596 C80.2613406,12.4408525 79.570122,13.6147324 79.0934195,14.9494994 C78.616717,16.2842664 78.3783657,17.6905388 78.3783657,19.1683166 C78.3783657,20.6460944 78.616717,22.0523668 79.0934195,23.3871338 C79.570122,24.7219008 80.2613406,25.889822 81.1670754,26.8908973 C82.0728102,27.8919725 83.1751847,28.6904492 84.4741991,29.2863274 C85.7732134,29.8822055 87.2331148,30.1801446 88.8539034,30.1801446 C90.4746919,30.1801446 91.9345933,29.8822055 93.2336077,29.2863274 C94.532622,28.6904492 95.6349966,27.8919725 96.5407313,26.8908973 C97.4464661,25.889822 98.1376847,24.7219008 98.6143872,23.3871338 C99.0910897,22.0523668 99.329441,20.6460944 99.329441,19.1683166 C99.329441,17.6905388 99.0910897,16.2842664 98.6143872,14.9494994 C98.1376847,13.6147324 97.4464661,12.4408525 96.5407313,11.4278596 C95.6349966,10.4148668 94.532622,9.61043131 93.2336077,9.01455317 C91.9345933,8.41867504 90.4746919,8.12073597 88.8539034,8.12073597 Z M160.238661,13.0023641 L156.857305,22.1320251 L163.544876,22.1320251 L160.238661,13.0023641 Z M63.2192259,8.72853167 L58.857398,8.72853167 L58.857398,17.8812198 L63.2192259,17.8812198 C65.2452116,17.8812198 66.7825772,17.4879403 67.8313227,16.7013811 C68.8800682,15.914822 69.404441,14.770736 69.404441,13.2691231 C69.404441,11.6960048 68.8621919,10.54596 67.7776937,9.81898866 C66.6931955,9.09201733 65.1737062,8.72853167 63.2192259,8.72853167 L63.2192259,8.72853167 Z M232.11126,11.0862624 L228.692334,11.0862624 L228.692334,17.2854149 L231.735554,17.2854149 C232.261543,17.2854149 232.800055,17.2415825 233.351091,17.1539177 C233.902127,17.066253 234.403068,16.9097087 234.853916,16.684285 C235.304763,16.4588612 235.674207,16.1332492 235.962249,15.7074488 C236.25029,15.2816484 236.394311,14.7306127 236.394311,14.0543415 C236.394311,13.4281644 236.262814,12.9209611 235.99982,12.5327313 C235.736825,12.1445015 235.39869,11.8439366 234.985413,11.6310364 C234.572136,11.4181362 234.108765,11.2741155 233.5953,11.1989742 C233.081835,11.123833 232.587155,11.0862624 232.11126,11.0862624 L232.11126,11.0862624 Z" id="Combined-Shape" fill="#cfd9e0"></path>
        </g>
    </g>
</svg>
