<svg xmlns="http://www.w3.org/2000/svg" width="21" height="22" viewBox="0 0 21 22">
    <g fill="none" fill-rule="evenodd">
        <g fill-rule="nonzero">
            <g>
                <g>
                    <path fill="#2FDF84" d="M20.125 2.618v15.71c0 .964-.783 1.745-1.75 1.745H14V.873h4.375c.967 0 1.75.78 1.75 1.745z" transform="translate(-786 -97) translate(786 97.457)"/>
                    <path fill="#012E52" d="M2.625 20.945h15.75c1.448 0 2.625-1.174 2.625-2.618V2.618C21 1.174 19.823 0 18.375 0H2.625C1.177 0 0 1.174 0 2.618v15.71c0 1.443 1.177 2.617 2.625 2.617zM19.25 2.618v15.71c0 .48-.392.872-.875.872h-3.5V1.745h3.5c.483 0 .875.392.875.873zm-17.5 0c0-.481.392-.873.875-.873h10.5V19.2h-10.5c-.483 0-.875-.391-.875-.873V2.618z" transform="translate(-786 -97) translate(786 97.457)"/>
                </g>
            </g>
        </g>
    </g>
</svg>
