<svg xmlns="http://www.w3.org/2000/svg" width="22" height="22" viewBox="0 0 22 22">
    <g fill="none" fill-rule="evenodd">
        <g fill-rule="nonzero">
            <g>
                <g>
                    <g>
                        <path fill="#F3F3F1" d="M6.125 0v9.844H0V1.75C0 .787.787 0 1.75 0h4.375zM19.688 1.75v8.094h-6.125V0h4.374c.963 0 1.75.787 1.75 1.75z" transform="translate(-259 -97) translate(259.352 97.457) translate(.656 .656)"/>
                        <path fill="#F3F3F1" d="M6.125 0L13.563 0 13.563 9.844 6.125 9.844zM9.844 9.844v9.844H1.75c-.963 0-1.75-.788-1.75-1.75V9.844h9.844z" transform="translate(-259 -97) translate(259.352 97.457) translate(.656 .656)"/>
                        <path fill="#2FDF84" d="M19.688 9.844v8.094c0 .962-.788 1.75-1.75 1.75H9.844V9.844h9.844z" transform="translate(-259 -97) translate(259.352 97.457) translate(.656 .656)"/>
                        <path fill="#D5DBE1" d="M3.719 0H1.75C.787 0 0 .787 0 1.75v8.094h1.969V1.75c0-.963.787-1.75 1.75-1.75zM13.563 0L15.531 0 15.531 9.844 13.563 9.844zM6.125 0L8.094 0 8.094 9.844 6.125 9.844zM1.969 17.938V9.844H0v8.094c0 .962.787 1.75 1.75 1.75h1.969c-.963 0-1.75-.788-1.75-1.75z" transform="translate(-259 -97) translate(259.352 97.457) translate(.656 .656)"/>
                        <path fill="#00B871" d="M9.844 9.844L11.813 9.844 11.813 19.688 9.844 19.688z" transform="translate(-259 -97) translate(259.352 97.457) translate(.656 .656)"/>
                    </g>
                    <g fill="#000">
                        <path d="M6.125.656L7.438.656 7.438 10.5 6.125 10.5zM9.844 10.5L11.156 10.5 11.156 20.344 9.844 20.344zM13.563.656L14.875.656 14.875 10.5 13.563 10.5z" transform="translate(-259 -97) translate(259.352 97.457)"/>
                        <path d="M0.656 9.844L18.156 9.844 18.156 11.156 0.656 11.156z" transform="translate(-259 -97) translate(259.352 97.457)"/>
                        <path d="M19.469 21H1.53C.687 21 0 20.313 0 19.469V1.53C0 .687.687 0 1.531 0H19.47C20.313 0 21 .687 21 1.531V19.47c0 .844-.687 1.531-1.531 1.531zM1.53 1.312c-.12 0-.218.099-.218.22v17.937c0 .12.098.218.218.218H19.47c.12 0 .218-.098.218-.218V1.53c0-.12-.098-.218-.218-.218H1.53z" transform="translate(-259 -97) translate(259.352 97.457)"/>
                    </g>
                </g>
            </g>
        </g>
    </g>
</svg>
