<?xml version="1.0" encoding="UTF-8"?>
<svg width="270px" height="60px" viewBox="0 0 270 60" version="1.1" xmlns="http://www.w3.org/2000/svg" xmlns:xlink="http://www.w3.org/1999/xlink">
    <!-- Generator: Sketch 48.2 (47327) - http://www.bohemiancoding.com/sketch -->
    <title>footer-logo</title>
    <desc>Created with Sketch.</desc>
    <defs>
        <linearGradient x1="100%" y1="93.7326389%" x2="0%" y2="0%" id="linearGradient-1">
            <stop stop-color="#CB2D3E" offset="0%"></stop>
            <stop stop-color="#EF473A" offset="100%"></stop>
        </linearGradient>
    </defs>
    <g id="Page-1" stroke="none" stroke-width="1" fill="none" fill-rule="evenodd">
        <g id="footer-logo">
            <path d="M50.8893251,23.1519962 C51.9651279,26.8041489 52.9135691,30.9752493 53.632,35.46 C53.1800593,39.005996 51.3773505,42.6941781 49.7231452,46.152 L5,46.152 L5,23.1519962 L50.889328,23.152 Z M15.7399347,41.2718047 L15.7399347,35.8458772 L19.8706408,41.2718047 L23.721299,41.2718047 L18.6629344,35.1282545 L23.721299,28.9847043 L19.8006288,28.9847043 L15.7399347,34.3756258 L15.7399347,28.9847043 L12.7469231,28.9847043 L12.7469231,41.2718047 L15.7399347,41.2718047 Z M22.9484746,35.0932485 C22.9484746,36.9135688 23.5581561,38.418811 24.7775373,39.6090204 C25.9969185,40.7992298 27.4875751,41.3943256 29.2495517,41.3943256 C31.0115284,41.3943256 32.4992678,40.7992298 33.7128147,39.6090204 C34.9263615,38.418811 35.5331258,36.9135688 35.5331258,35.0932485 C35.5331258,33.2729282 34.9292787,31.7706031 33.7215662,30.5862281 C32.5138537,29.401853 31.0261143,28.8096744 29.2583032,28.8096744 C27.4904922,28.8096744 25.9969185,29.401853 24.7775373,30.5862281 C23.5581561,31.7706031 22.9484746,33.2729282 22.9484746,35.0932485 Z M32.4876052,35.0932485 C32.4876052,36.1667707 32.1929745,37.0244087 31.6037041,37.6661883 C31.0144338,38.3079679 30.226807,38.6288529 29.2408002,38.6288529 C28.2547934,38.6288529 27.4671667,38.3079679 26.8778963,37.6661883 C26.288626,37.0244087 25.9939952,36.1667707 25.9939952,35.0932485 C25.9939952,34.0197263 26.288626,33.1620883 26.8778963,32.5203087 C27.4671667,31.8785291 28.2547934,31.5576441 29.2408002,31.5576441 C30.226807,31.5576441 31.0144338,31.8785291 31.6037041,32.5203087 C32.1929745,33.1620883 32.4876052,34.0197263 32.4876052,35.0932485 Z M37.5257742,28.9847043 L37.5257742,41.2718047 L44.2469231,41.2718047 L44.2469231,38.9964157 L40.5187858,38.9964157 L40.5187858,28.9847043 L37.5257742,28.9847043 Z" id="Combined-Shape" fill="url(#linearGradient-1)" fill-rule="nonzero"></path>
            <path d="M70.484,31.448 C65.792,37.772 61.372,48.312 61.372,52.868 C61.372,53.956 61.712,55.452 62.12,56.54 C60.216,57.492 57.564,58.24 54.98,58.24 C52.396,58.24 50.696,57.288 50.696,55.112 C50.696,49.876 56.748,42.396 57.632,35.46 C55.388,21.452 50.9,10.504 47.296,8.872 C46.616,8.6 46.14,8.26 45.596,8.056 C48.588,5.2 51.58,3.772 54.504,3.772 C57.088,3.772 59.06,5.064 60.216,7.852 C62.188,12.408 63.888,19.888 65.52,27.776 C74.224,13.7 74.972,12.748 76.876,8.6 C77.488,7.308 77.692,5.88 77.692,4.452 C77.692,3.704 77.624,2.888 77.488,2.14 C78.168,2.004 78.78,2.004 79.46,2.004 C84.288,2.004 86.736,3.772 86.736,6.424 C86.736,13.36 74.904,25.668 70.484,31.448 Z M76.9335384,27.64 C81.1495384,22.948 86.4535384,20.024 92.3695384,20.024 C99.7815384,20.024 104.813538,24.58 104.813538,32.128 C104.813538,44.912 94.8855384,57.832 82.7815384,57.832 C75.3015384,57.832 70.3375384,53.072 70.3375384,45.184 C70.3375384,38.588 72.6495384,32.672 76.9335384,27.64 Z M94.6815384,32.128 C94.6815384,28.116 93.5935384,25.056 90.3295384,25.056 C84.2775384,25.056 80.3335384,38.112 80.3335384,45.932 C80.3335384,49.944 81.5575384,52.868 84.8215384,52.868 C90.8055384,52.868 94.6815384,39.948 94.6815384,32.128 Z M136.355077,20.228 C138.531077,20.364 140.503077,21.112 140.503077,23.9 C140.503077,25.328 140.163077,27.028 139.619077,29 C137.783077,35.664 135.607077,42.328 135.607077,47.156 C135.607077,48.516 136.015077,49.468 136.355077,50.08 C138.259077,49.672 143.019077,44.232 143.767077,44.232 C144.039077,44.232 144.175077,44.436 144.175077,44.844 C144.175077,49.74 136.967077,57.22 132.071077,57.22 C128.263077,57.22 126.019077,54.84 126.019077,49.944 C126.019077,48.108 126.291077,46.544 126.631077,44.708 C121.395077,53.276 116.295077,57.832 110.787077,57.832 C105.755077,57.832 104.871077,54.296 104.871077,50.828 C104.871077,45.524 109.767077,30.224 109.767077,25.124 C109.767077,23.968 109.631077,22.676 109.087077,21.656 C111.535077,20.704 113.983077,20.228 115.751077,20.228 C118.879077,20.228 119.695077,21.928 119.695077,23.968 C119.695077,25.328 119.287077,26.892 119.015077,28.116 C116.839077,37.636 114.595077,45.456 114.595077,48.788 C114.595077,49.672 114.867077,50.556 115.887077,50.556 C117.791077,50.556 122.007077,45.864 125.747077,39.132 C129.215077,32.808 130.983077,27.164 130.983077,23.492 C130.983077,22.744 130.847077,21.86 130.507077,21.18 C132.275077,20.568 134.655077,20.228 136.355077,20.228 Z M184.176615,51.508 C184.244615,48.72 185.196615,45.388 185.808615,42.396 C187.508615,34.78 188.392615,30.428 188.392615,29.68 C188.392615,28.796 188.052615,28.524 187.372615,28.524 C184.312615,28.524 173.772615,45.592 172.140615,54.432 C172.140615,54.908 172.208615,55.384 172.412615,55.996 C171.732615,56.54 169.352615,57.424 167.652615,57.424 C165.680615,57.424 164.184615,56.744 162.892615,55.384 C166.020615,42.192 168.604615,32.128 168.604615,29.68 C168.604615,28.728 168.196615,28.456 167.516615,28.456 C165.680615,28.524 162.144615,33.556 158.744615,38.588 C156.500615,41.92 155.072615,45.66 151.740615,53.684 C150.720615,56.132 149.632615,57.424 146.164615,57.424 C144.804615,57.424 143.104615,57.22 140.860615,56.812 C146.232615,43.552 148.544615,31.04 148.544615,26.552 C148.544615,24.92 148.272615,23.356 147.728615,22.064 C150.720615,20.772 153.100615,20.16 154.868615,20.16 C156.908615,20.16 158.540615,21.384 158.540615,23.492 C158.540615,26.076 157.520615,30.02 156.296615,34.78 C162.552615,25.056 169.148615,19.956 173.364615,19.956 C175.948615,19.956 178.056615,21.384 178.056615,24.376 C178.056615,27.844 177.512615,31.652 176.492615,34.644 C182.748615,24.648 189.412615,19.956 193.356615,19.956 C196.076615,19.956 197.980615,22.2 197.980615,24.852 C197.980615,32.332 193.696615,43.008 193.696615,47.564 C193.696615,48.924 194.036615,49.876 194.376615,50.488 C196.280615,50.08 201.040615,44.64 201.788615,44.64 C202.060615,44.64 202.196615,44.844 202.196615,45.252 C202.196615,50.148 194.988615,57.628 190.092615,57.628 C186.420615,57.628 184.176615,55.724 184.176615,51.508 Z" id="Youm" fill="#FFFFFF" fill-rule="nonzero"></path>
            <path d="M226.704,2.547 C226.426665,2.77233446 226.288,3.09949786 226.288,3.5285 C226.288,3.95750215 226.452665,4.28466554 226.782,4.51 C227.111335,4.73533446 227.509998,4.89999948 227.978,5.004 C228.446002,5.10800052 228.913998,5.227166 229.382,5.3615 C229.850002,5.49583401 230.248665,5.74499818 230.578,6.109 C230.907335,6.47300182 231.072,6.98866333 231.072,7.656 C231.072,8.32333667 230.790336,8.92133069 230.227,9.45 C229.663664,9.97866931 228.909671,10.243 227.965,10.243 C227.020329,10.243 226.253336,10.0220022 225.664,9.58 C225.074664,9.13799779 224.78,8.5270039 224.78,7.747 L226.366,7.747 C226.400667,8.14566866 226.547999,8.46199883 226.808,8.696 C227.068001,8.93000117 227.449331,9.047 227.952,9.047 C228.454669,9.047 228.851165,8.9170013 229.1415,8.657 C229.431835,8.3969987 229.577,8.08933511 229.577,7.734 C229.577,7.37866489 229.488168,7.10133433 229.3105,6.902 C229.132832,6.70266567 228.903168,6.55316717 228.6215,6.4535 C228.339832,6.35383284 228.030002,6.26500039 227.692,6.187 C227.353998,6.10899961 227.013835,6.01800052 226.6715,5.914 C226.329165,5.80999948 226.017168,5.67566749 225.7355,5.511 C225.453832,5.34633251 225.224168,5.10583492 225.0465,4.7895 C224.868832,4.47316509 224.78,4.08533563 224.78,3.626 C224.78,2.83732939 225.06383,2.20250241 225.6315,1.7215 C226.19917,1.2404976 226.935829,1 227.8415,1 C228.747171,1 229.470831,1.20799792 230.0125,1.624 C230.554169,2.04000208 230.855333,2.64232939 230.916,3.431 L229.278,3.431 C229.243333,3.0843316 229.096001,2.79400117 228.836,2.56 C228.575999,2.32599883 228.225002,2.209 227.783,2.209 C227.340998,2.209 226.981335,2.32166554 226.704,2.547 Z M232.359,2.274 L232.359,1.117 L238.664,1.117 L238.664,2.274 L236.259,2.274 L236.259,10.152 L234.777,10.152 L234.777,2.274 L232.359,2.274 Z M246.5095,8.0005 C247.085836,7.39816366 247.374,6.60517159 247.374,5.6215 C247.374,4.63782842 247.085836,3.84700299 246.5095,3.249 C245.933164,2.65099701 245.190005,2.352 244.28,2.352 C243.369995,2.352 242.626836,2.65099701 242.0505,3.249 C241.474164,3.84700299 241.186,4.63782842 241.186,5.6215 C241.186,6.60517159 241.474164,7.39816366 242.0505,8.0005 C242.626836,8.60283635 243.369995,8.904 244.28,8.904 C245.190005,8.904 245.933164,8.60283635 246.5095,8.0005 Z M241.004,8.9365 C240.111329,8.06549565 239.665,6.9605067 239.665,5.6215 C239.665,4.28249331 240.111329,3.17750436 241.004,2.3065 C241.896671,1.43549565 242.990827,1 244.2865,1 C245.582173,1 246.674162,1.43549565 247.5625,2.3065 C248.450838,3.17750436 248.895,4.28249331 248.895,5.6215 C248.895,6.9605067 248.450838,8.06549565 247.5625,8.9365 C246.674162,9.80750436 245.582173,10.243 244.2865,10.243 C242.990827,10.243 241.896671,9.80750436 241.004,8.9365 Z M251.833,6.486 L251.833,10.152 L250.351,10.152 L250.351,1.117 L253.471,1.117 C254.493672,1.117 255.282331,1.37049747 255.837,1.8775 C256.391669,2.38450254 256.669,3.0279961 256.669,3.808 C256.669,4.4146697 256.484835,4.96066424 256.1165,5.446 C255.748165,5.93133576 255.18267,6.24766593 254.42,6.395 L256.812,10.152 L255.005,10.152 L252.743,6.486 L251.833,6.486 Z M251.833,2.274 L251.833,5.329 L253.471,5.329 C254.034336,5.329 254.454665,5.19466801 254.732,4.926 C255.009335,4.65733199 255.148,4.28250241 255.148,3.8015 C255.148,3.3204976 255.009335,2.94566801 254.732,2.677 C254.454665,2.40833199 254.034336,2.274 253.471,2.274 L251.833,2.274 Z M262.272,10.152 L260.79,10.152 L260.79,6.876 L257.787,1.117 L259.438,1.117 L261.518,5.524 L263.598,1.117 L265.262,1.117 L262.272,6.876 L262.272,10.152 Z M231.3255,23.0005 C231.901836,22.3981637 232.19,21.6051716 232.19,20.6215 C232.19,19.6378284 231.901836,18.847003 231.3255,18.249 C230.749164,17.650997 230.006005,17.352 229.096,17.352 C228.185995,17.352 227.442836,17.650997 226.8665,18.249 C226.290164,18.847003 226.002,19.6378284 226.002,20.6215 C226.002,21.6051716 226.290164,22.3981637 226.8665,23.0005 C227.442836,23.6028363 228.185995,23.904 229.096,23.904 C230.006005,23.904 230.749164,23.6028363 231.3255,23.0005 Z M225.82,23.9365 C224.927329,23.0654956 224.481,21.9605067 224.481,20.6215 C224.481,19.2824933 224.927329,18.1775044 225.82,17.3065 C226.712671,16.4354956 227.806827,16 229.1025,16 C230.398173,16 231.490162,16.4354956 232.3785,17.3065 C233.266838,18.1775044 233.711,19.2824933 233.711,20.6215 C233.711,21.9605067 233.266838,23.0654956 232.3785,23.9365 C231.490162,24.8075044 230.398173,25.243 229.1025,25.243 C227.806827,25.243 226.712671,24.8075044 225.82,23.9365 Z M235.167,25.152 L235.167,16.117 L240.484,16.117 L240.484,17.274 L236.649,17.274 L236.649,20.017 L239.639,20.017 L239.639,21.161 L236.649,21.161 L236.649,25.152 L235.167,25.152 Z M224.507,32.274 L224.507,31.117 L230.812,31.117 L230.812,32.274 L228.407,32.274 L228.407,40.152 L226.925,40.152 L226.925,32.274 L224.507,32.274 Z M238.04,31.117 L239.522,31.117 L239.522,40.152 L238.04,40.152 L238.04,36.161 L233.789,36.161 L233.789,40.152 L232.307,40.152 L232.307,31.117 L233.789,31.117 L233.789,35.017 L238.04,35.017 L238.04,31.117 Z M246.464,31.104 L246.464,32.261 L242.954,32.261 L242.954,35.004 L246.074,35.004 L246.074,36.148 L242.954,36.148 L242.954,38.995 L246.464,38.995 L246.464,40.152 L241.472,40.152 L241.472,31.104 L246.464,31.104 Z M230.916,46.104 L232.398,46.104 L232.398,55.152 L230.916,55.152 L226.457,48.405 L226.457,55.152 L224.975,55.152 L224.975,46.104 L226.457,46.104 L230.916,52.838 L230.916,46.104 Z M239.34,46.104 L239.34,47.261 L235.83,47.261 L235.83,50.004 L238.95,50.004 L238.95,51.148 L235.83,51.148 L235.83,53.995 L239.34,53.995 L239.34,55.152 L234.348,55.152 L234.348,46.104 L239.34,46.104 Z M251.339,46.117 L252.925,46.117 L250.247,55.152 L248.57,55.152 L246.672,48.314 L244.657,55.152 L242.993,55.165 L240.432,46.117 L242.005,46.117 L243.877,53.475 L245.905,46.117 L247.569,46.117 L249.454,53.436 L251.339,46.117 Z M255.876,47.547 C255.598665,47.7723345 255.46,48.0994979 255.46,48.5285 C255.46,48.9575021 255.624665,49.2846655 255.954,49.51 C256.283335,49.7353345 256.681998,49.8999995 257.15,50.004 C257.618002,50.1080005 258.085998,50.227166 258.554,50.3615 C259.022002,50.495834 259.420665,50.7449982 259.75,51.109 C260.079335,51.4730018 260.244,51.9886633 260.244,52.656 C260.244,53.3233367 259.962336,53.9213307 259.399,54.45 C258.835664,54.9786693 258.081671,55.243 257.137,55.243 C256.192329,55.243 255.425336,55.0220022 254.836,54.58 C254.246664,54.1379978 253.952,53.5270039 253.952,52.747 L255.538,52.747 C255.572667,53.1456687 255.719999,53.4619988 255.98,53.696 C256.240001,53.9300012 256.621331,54.047 257.124,54.047 C257.626669,54.047 258.023165,53.9170013 258.3135,53.657 C258.603835,53.3969987 258.749,53.0893351 258.749,52.734 C258.749,52.3786649 258.660168,52.1013343 258.4825,51.902 C258.304832,51.7026657 258.075168,51.5531672 257.7935,51.4535 C257.511832,51.3538328 257.202002,51.2650004 256.864,51.187 C256.525998,51.1089996 256.185835,51.0180005 255.8435,50.914 C255.501165,50.8099995 255.189168,50.6756675 254.9075,50.511 C254.625832,50.3463325 254.396168,50.1058349 254.2185,49.7895 C254.040832,49.4731651 253.952,49.0853356 253.952,48.626 C253.952,47.8373294 254.23583,47.2025024 254.8035,46.7215 C255.37117,46.2404976 256.107829,46 257.0135,46 C257.919171,46 258.642831,46.2079979 259.1845,46.624 C259.726169,47.0400021 260.027333,47.6423294 260.088,48.431 L258.45,48.431 C258.415333,48.0843316 258.268001,47.7940012 258.008,47.56 C257.747999,47.3259988 257.397002,47.209 256.955,47.209 C256.512998,47.209 256.153335,47.3216655 255.876,47.547 Z" id="story-of-the-news" stroke="#F5A623" stroke-width="0.3" fill="#F5A623" fill-rule="nonzero"></path>
            <path d="M213.5,3.652 L187,3.652" id="Line-2" stroke="#FFFFFF" stroke-width="2" stroke-linecap="square"></path>
        </g>
    </g>
</svg>