<?xml version="1.0" encoding="UTF-8"?>
<svg width="181px" height="44px" viewBox="0 0 181 44" version="1.1" xmlns="http://www.w3.org/2000/svg" xmlns:xlink="http://www.w3.org/1999/xlink">
    <!-- Generator: Sketch 51 (57462) - http://www.bohemiancoding.com/sketch -->
    <title>nav-sticky-logo-white</title>
    <desc>Created with Sketch.</desc>
    <defs></defs>
    <g id="nav-sticky-logo-white" stroke="none" stroke-width="1" fill="none" fill-rule="evenodd">
        <path d="M64.2929677,12 C65.3547898,15.8109413 66.2909055,20.1633932 67,24.8431323 C66.5539325,28.5433014 64.7746509,32.3918386 63.141943,36 L19,36 L19,12 L64.2929706,12.000004 Z M30,31 L30,25.2592593 L34.1403509,31 L38,31 L32.9298246,24.5 L38,18 L34.0701754,18 L30,23.7037037 L30,18 L27,18 L27,31 L30,31 Z M37,24.4909597 C37,26.3713585 37.5813572,27.9262803 38.7440891,29.1557719 C39.9068209,30.3852634 41.3282253,31 43.0083449,31 C44.6884646,31 46.1070874,30.3852634 47.264256,29.1557719 C48.4214244,27.9262803 49,26.3713585 49,24.4909597 C49,22.6105608 48.4242061,21.0586524 47.2726009,19.8351878 C46.1209957,18.6117231 44.7023729,18 43.0166899,18 C41.3310069,18 39.9068209,18.6117231 38.7440891,19.8351878 C37.5813572,21.0586524 37,22.6105608 37,24.4909597 Z M46,24.5 C46,25.5627116 45.7277656,26.4117129 45.1832884,27.0470297 C44.6388113,27.6823464 43.9110558,28 43,28 C42.0889442,28 41.3611888,27.6823464 40.8167116,27.0470297 C40.2722345,26.4117129 40,25.5627116 40,24.5 C40,23.4372884 40.2722345,22.5882871 40.8167116,21.9529703 C41.3611888,21.3176536 42.0889442,21 43,21 C43.9110558,21 44.6388113,21.3176536 45.1832884,21.9529703 C45.7277656,22.5882871 46,23.4372884 46,24.5 Z M51,18 L51,31 L58,31 L58,28.5925926 L54.1171875,28.5925926 L54.1171875,18 L51,18 Z" id="Combined-Shape" fill="#FFFFFF" fill-rule="nonzero"></path>
        <path d="M80.3229971,22.4667473 C77.0571862,27.0773881 73.9806976,34.7617896 73.9806976,38.0834341 C73.9806976,38.8766626 74.2173506,39.9673519 74.5013341,40.7605804 C73.1760775,41.4546554 71.3301844,42 69.5316219,42 C67.7330593,42 66.5497945,41.305925 66.5497945,39.719468 C66.5497945,35.9020556 70.7622173,30.4486094 71.377515,25.3917775 C69.8156054,15.1789601 66.6917863,7.19709794 64.1832648,6.00725514 C63.7099589,5.808948 63.3786447,5.56106409 63,5.41233374 C65.0825461,3.33010883 67.1650922,2.28899637 69.2003077,2.28899637 C70.9988702,2.28899637 72.3714574,3.23095526 73.1760775,5.26360339 C74.5486647,8.58524788 75.7319296,14.0386941 76.8678638,19.789601 C82.9261797,9.52720677 83.4468163,8.8331318 84.7720729,5.808948 C85.1980482,4.86698912 85.34004,3.82587666 85.34004,2.78476421 C85.34004,2.23941959 85.2927094,1.64449819 85.1980482,1.09915357 C85.6713541,1 86.0973295,1 86.5706354,1 C89.9311075,1 91.6350089,2.28899637 91.6350089,4.22249093 C91.6350089,9.27932285 83.3994857,18.2527207 80.3229971,22.4667473 Z M84.8121218,19.6904474 C87.7466186,16.2696493 91.4384048,14.1378476 95.5561664,14.1378476 C100.715201,14.1378476 104.217665,17.4594921 104.217665,22.9625151 C104.217665,32.2829504 97.3073984,41.7025393 88.8825528,41.7025393 C83.6761875,41.7025393 80.2210542,38.2321644 80.2210542,32.4812576 C80.2210542,27.6723096 81.8302944,23.3591294 84.8121218,19.6904474 Z M97.1654066,22.9625151 C97.1654066,20.0374849 96.4081171,17.8065296 94.1362486,17.8065296 C89.9238258,17.8065296 87.1786514,27.3252721 87.1786514,33.0266022 C87.1786514,35.9516324 88.0306021,38.0834341 90.3024706,38.0834341 C94.4675628,38.0834341 97.1654066,28.6638452 97.1654066,22.9625151 Z M126.171779,14.286578 C127.686358,14.3857316 129.058945,14.9310762 129.058945,16.9637243 C129.058945,18.0048368 128.822292,19.2442563 128.443647,20.6819831 C127.165721,25.5405079 125.651142,30.3990326 125.651142,33.9189843 C125.651142,34.91052 125.935126,35.6045949 126.171779,36.050786 C127.497035,35.7533253 130.810177,31.7871826 131.330813,31.7871826 C131.520136,31.7871826 131.614797,31.9359129 131.614797,32.2333736 C131.614797,35.8029021 126.597754,41.2563482 123.189951,41.2563482 C120.539438,41.2563482 118.977529,39.5211608 118.977529,35.9516324 C118.977529,34.6130593 119.166851,33.4727932 119.403504,32.1342201 C115.759048,38.3808948 112.209254,41.7025393 108.375476,41.7025393 C104.873012,41.7025393 104.257714,39.1245466 104.257714,36.5961306 C104.257714,32.7291415 107.665517,21.5743652 107.665517,17.8561064 C107.665517,17.0133011 107.570856,16.0713422 107.192211,15.3276904 C108.896112,14.6336155 110.600014,14.286578 111.830609,14.286578 C114.007816,14.286578 114.575783,15.5259976 114.575783,17.0133011 C114.575783,18.0048368 114.2918,19.1451028 114.102477,20.0374849 C112.587898,26.9782346 111.025989,32.6795647 111.025989,35.1088271 C111.025989,35.7533253 111.215311,36.3978235 111.92527,36.3978235 C113.250527,36.3978235 116.185024,32.9770254 118.788206,28.0689238 C121.202066,23.458283 122.432662,19.3434099 122.432662,16.6662636 C122.432662,16.120919 122.338001,15.4764208 122.101348,14.980653 C123.331943,14.5344619 124.988514,14.286578 126.171779,14.286578 Z M159.457393,37.0918984 C159.504723,35.0592503 160.167352,32.6299879 160.593327,30.4486094 C161.776592,24.8960097 162.39189,21.7230955 162.39189,21.1777509 C162.39189,20.5332527 162.155237,20.3349456 161.681931,20.3349456 C159.552054,20.3349456 152.215812,32.7787183 151.079878,39.2237001 C151.079878,39.5707376 151.127208,39.9177751 151.2692,40.3639661 C150.795894,40.7605804 149.139323,41.4050786 147.956059,41.4050786 C146.583471,41.4050786 145.542198,40.9093108 144.642917,39.9177751 C146.820124,30.2998791 148.618687,22.9625151 148.618687,21.1777509 C148.618687,20.4836759 148.334703,20.2853688 147.861397,20.2853688 C146.583471,20.3349456 144.122281,24.0036276 141.755751,27.6723096 C140.193841,30.1015719 139.199899,32.828295 136.8807,38.6783555 C136.170741,40.4631197 135.413451,41.4050786 132.999591,41.4050786 C132.052979,41.4050786 130.869715,41.2563482 129.307805,40.9588875 C133.046922,31.2914148 134.656162,22.1692866 134.656162,18.8972189 C134.656162,17.7073761 134.46684,16.56711 134.088195,15.6251511 C136.170741,14.6831923 137.827312,14.2370012 139.057907,14.2370012 C140.477825,14.2370012 141.613759,15.1293833 141.613759,16.6662636 C141.613759,18.5501814 140.9038,21.4256348 140.05185,24.8960097 C144.406264,17.8065296 148.997332,14.0882709 151.931828,14.0882709 C153.730391,14.0882709 155.197639,15.1293833 155.197639,17.3107618 C155.197639,19.8391778 154.818995,22.6154776 154.109036,24.7968561 C158.46345,17.5090689 163.101848,14.0882709 165.847023,14.0882709 C167.740247,14.0882709 169.065503,15.7243047 169.065503,17.6577993 C169.065503,23.1112455 166.083676,30.8948005 166.083676,34.216445 C166.083676,35.2079807 166.320329,35.9020556 166.556982,36.3482467 C167.882238,36.050786 171.19538,32.0846433 171.716016,32.0846433 C171.905339,32.0846433 172,32.2333736 172,32.5308343 C172,36.1003628 166.982957,41.5538089 163.575154,41.5538089 C161.019302,41.5538089 159.457393,40.165659 159.457393,37.0918984 Z" id="Youm" fill="#FFFFFF" fill-rule="nonzero"></path>
    </g>
</svg>